<svg width="20" height="20" viewBox="0 0 20 20" fill="none" xmlns="http://www.w3.org/2000/svg">
<g clip-path="url(#clip0_4680_10906)">
<path d="M1.25 0C0.559645 0 0 0.559645 0 1.25V11.25C0 11.9403 0.559645 12.5 1.25 12.5V12.9167C1.25 13.607 1.80964 14.1667 2.5 14.1667V19.5833C2.5 19.8134 2.68655 20 2.91666 20H5.41666C5.64678 20 5.83333 19.8134 5.83333 19.5833V14.1667C6.52368 14.1667 7.08333 13.607 7.08333 12.9167V12.5H12.9167V12.9167C12.9167 13.607 13.4763 14.1667 14.1667 14.1667V19.5833C14.1667 19.8134 14.3532 20 14.5833 20H17.0833C17.3134 20 17.5 19.8134 17.5 19.5833V14.1667C18.1903 14.1667 18.75 13.607 18.75 12.9167V12.5C19.4403 12.5 20 11.9403 20 11.25V1.25C20 0.559645 19.4403 0 18.75 0H1.25ZM1.25 0.833333H18.75C18.9801 0.833333 19.1667 1.01988 19.1667 1.25V11.25C19.1667 11.4801 18.9801 11.6667 18.75 11.6667H1.25C1.01988 11.6667 0.833333 11.4801 0.833333 11.25V1.25C0.833333 1.01988 1.01988 0.833333 1.25 0.833333ZM2.08333 1.66667C1.85322 1.66667 1.66667 1.85322 1.66667 2.08333V10.4167C1.66667 10.6468 1.85322 10.8333 2.08333 10.8333H17.9167C18.1468 10.8333 18.3333 10.6468 18.3333 10.4167V2.08333C18.3333 1.85322 18.1468 1.66667 17.9167 1.66667H2.08333ZM2.5 2.5H17.5V9.99999H2.5V2.5ZM6.66829 4.58089C6.4956 4.58872 6.34568 4.70238 6.2915 4.86653L5.45817 7.36653C5.38446 7.58519 5.50196 7.8222 5.72062 7.89591C5.93928 7.96962 6.17628 7.85212 6.25 7.63346L6.2915 7.5C7.20817 7.5 7.0665 7.45846 7.12483 7.63346C7.19854 7.85212 7.43555 7.96962 7.65421 7.89591C7.87287 7.8222 7.99037 7.58519 7.91666 7.36653L7.08333 4.86653C7.02474 4.68898 6.85505 4.5722 6.66829 4.58089ZM9.16666 4.58333C8.93654 4.58333 8.74999 4.76988 8.74999 5V7.5C8.74999 7.73011 8.93654 7.91666 9.16666 7.91666H9.58333C10.5038 7.91666 11.25 7.17047 11.25 6.25C11.25 5.32952 10.5038 4.58333 9.58333 4.58333H9.16666ZM13.125 4.58333C12.5497 4.58333 12.0833 5.0497 12.0833 5.625C12.0833 6.20029 12.5497 6.66666 13.125 6.66666H13.5417C13.6567 6.66666 13.75 6.75994 13.75 6.875C13.75 6.99005 13.6567 7.08333 13.5417 7.08333H12.5C12.2699 7.08333 12.0833 7.26988 12.0833 7.5C12.0833 7.73011 12.2699 7.91666 12.5 7.91666H13.5417C14.117 7.91666 14.5833 7.45029 14.5833 6.875C14.5833 6.2997 14.117 5.83333 13.5417 5.83333C13.2667 5.83333 12.9167 5.9 12.9167 5.625C12.9167 5.50994 13.0099 5.41666 13.125 5.41666H14.1667C14.3968 5.41666 14.5833 5.23011 14.5833 5C14.5833 4.76988 14.3968 4.58333 14.1667 4.58333H13.125ZM9.58333 5.41666C10.0436 5.41666 10.4167 5.78976 10.4167 6.25C10.4167 6.71023 10.0436 7.08333 9.58333 7.08333V5.41666ZM6.66666 6.31673L6.78304 6.66666H6.55029L6.66666 6.31673ZM2.08333 12.5H6.25V12.9167C6.25 13.1468 6.06345 13.3333 5.83333 13.3333H2.5C2.26988 13.3333 2.08333 13.1468 2.08333 12.9167V12.5ZM13.75 12.5H17.9167V12.9167C17.9167 13.1468 17.7301 13.3333 17.5 13.3333H14.1667C13.9365 13.3333 13.75 13.1468 13.75 12.9167V12.5ZM3.33333 14.1667H5V19.1667H3.33333V14.1667ZM15 14.1667H16.6667V19.1667H15V14.1667Z" fill="#7356C0"/>
</g>
<defs>
<clipPath id="clip0_4680_10906">
<rect width="20" height="20" fill="white"/>
</clipPath>
</defs>
</svg>
