<svg width="20" height="20" viewBox="0 0 20 20" fill="none" xmlns="http://www.w3.org/2000/svg">
<g clip-path="url(#clip0_4684_10935)">
<path d="M9.51172 0.664062C8.94141 0.769531 8.45312 1.03125 8.02734 1.46094C7.66797 1.82422 7.46484 2.15234 7.31641 2.59766C7.22656 2.875 7.21484 2.97266 7.21484 3.4375C7.21484 3.90234 7.22656 4 7.31641 4.27734C7.46484 4.72656 7.67188 5.05469 8.02734 5.41016C8.38281 5.76562 8.71094 5.97266 9.16016 6.12109C9.4375 6.21094 9.53516 6.22266 10 6.22266C10.4648 6.22266 10.5625 6.21094 10.8398 6.12109C11.2891 5.97266 11.6172 5.76562 11.9727 5.41016C12.3281 5.05469 12.5352 4.72656 12.6836 4.27734C12.7734 4 12.7852 3.90234 12.7852 3.4375C12.7852 2.97266 12.7734 2.875 12.6836 2.59766C12.5352 2.14844 12.3281 1.82031 11.9727 1.46484C11.4297 0.917969 10.8633 0.671875 10.1172 0.644531C9.89062 0.636719 9.62109 0.644531 9.51172 0.664062ZM10.4141 1.29297C11.1719 1.42969 11.8281 2.02344 12.0938 2.8125C12.1953 3.10938 12.1953 3.76562 12.0938 4.0625C11.8555 4.77734 11.3438 5.28906 10.625 5.53125C10.4688 5.58594 10.2969 5.60547 10 5.60547C9.36328 5.60547 8.89844 5.41406 8.45312 4.96875C7.40234 3.91797 7.69922 2.14844 9.03516 1.48828C9.49609 1.26172 9.91406 1.20312 10.4141 1.29297Z" fill="#7356C0"/>
<path d="M9.6875 1.75391C9.6875 1.92969 9.67969 1.94922 9.57031 1.99219C9.30469 2.10156 9.0625 2.49609 9.0625 2.8125C9.0625 3.29297 9.51562 3.75 9.99609 3.75C10.1602 3.75 10.3125 3.89844 10.3125 4.0625C10.3125 4.22266 10.1602 4.375 10 4.375C9.87109 4.375 9.6875 4.22656 9.6875 4.12109C9.6875 4.07422 9.62891 4.0625 9.375 4.0625C9.02734 4.0625 9.02344 4.0625 9.10938 4.34375C9.16406 4.53125 9.40625 4.81641 9.57031 4.88281C9.67969 4.92578 9.6875 4.94531 9.6875 5.12109V5.3125H10H10.3125V5.12109C10.3125 4.94531 10.3203 4.92578 10.4297 4.88281C10.6953 4.77344 10.9375 4.37891 10.9375 4.0625C10.9375 3.58203 10.4844 3.125 10.0039 3.125C9.83984 3.125 9.6875 2.97656 9.6875 2.8125C9.6875 2.65234 9.83984 2.5 10 2.5C10.1289 2.5 10.3125 2.64844 10.3125 2.75391C10.3125 2.80078 10.3711 2.8125 10.625 2.8125C10.9727 2.8125 10.9766 2.8125 10.8906 2.53125C10.8359 2.34375 10.5938 2.05859 10.4297 1.99219C10.3203 1.94922 10.3125 1.92969 10.3125 1.75391V1.5625H10H9.6875V1.75391Z" fill="#7356C0"/>
<path d="M3.22197 3.16797C2.07354 3.39453 1.14775 4.18359 0.804004 5.23047C0.417285 6.40625 0.694629 7.60156 1.54619 8.45312C2.15557 9.0625 2.8665 9.35547 3.74932 9.35547C4.63213 9.35547 5.34307 9.0625 5.95244 8.45312C6.56182 7.84375 6.85479 7.13281 6.85479 6.25C6.85479 5.57031 6.71416 5.08594 6.37041 4.5625C5.929 3.88672 5.3001 3.4375 4.4915 3.21484C4.22588 3.14453 3.48369 3.11719 3.22197 3.16797ZM4.27666 3.80859C5.12041 3.98438 5.87432 4.67969 6.14385 5.52734C6.21025 5.74219 6.22979 5.89453 6.22979 6.25C6.22979 6.60547 6.21025 6.75781 6.14385 6.97266C5.89775 7.75 5.24932 8.39844 4.47197 8.64453C4.08525 8.76562 3.41338 8.76562 3.02666 8.64453C1.98369 8.3125 1.24932 7.32422 1.24932 6.25C1.24932 5.32812 1.79619 4.44141 2.6165 4.03125C3.15166 3.76172 3.70244 3.6875 4.27666 3.80859Z" fill="#7356C0"/>
<path d="M2.80714 5.04297C2.3462 5.40625 1.94777 5.73828 1.92433 5.76953C1.8423 5.875 1.86573 6.05078 1.9712 6.15234C2.04933 6.23438 2.10402 6.25 2.2837 6.25H2.49855V6.93359C2.49855 7.60938 2.49855 7.62109 2.5962 7.71484L2.68995 7.8125H3.74855H4.80714L4.90089 7.71484C4.99855 7.62109 4.99855 7.60938 4.99855 6.93359V6.25H5.21339C5.39308 6.25 5.44777 6.23438 5.52589 6.15234C5.63136 6.05078 5.6548 5.875 5.57667 5.76953C5.54933 5.73828 5.15089 5.40625 4.68995 5.04297C4.06495 4.54297 3.83058 4.375 3.74855 4.375C3.66652 4.375 3.43214 4.54297 2.80714 5.04297ZM4.10402 5.37109L4.42042 5.625H3.74855H3.07667L3.38527 5.375C3.55323 5.23438 3.71339 5.12109 3.74073 5.12109C3.76808 5.11719 3.93214 5.23047 4.10402 5.37109ZM4.37355 6.71875V7.1875H3.74855H3.12355V6.71875V6.25H3.74855H4.37355V6.71875Z" fill="#7356C0"/>
<path d="M15.722 3.16797C14.5735 3.39453 13.6478 4.18359 13.304 5.23047C12.9173 6.40625 13.1946 7.60156 14.0462 8.45312C14.6556 9.0625 15.3665 9.35547 16.2493 9.35547C17.1321 9.35547 17.8431 9.0625 18.4524 8.45312C19.0618 7.84375 19.3548 7.13281 19.3548 6.25C19.3548 5.57031 19.2142 5.08594 18.8704 4.5625C18.429 3.88672 17.8001 3.4375 16.9915 3.21484C16.7259 3.14453 15.9837 3.11719 15.722 3.16797ZM16.7767 3.80859C17.6204 3.98438 18.3743 4.67969 18.6438 5.52734C18.7649 5.91406 18.7649 6.58594 18.6438 6.97266C18.3978 7.75 17.7493 8.39844 16.972 8.64453C16.5853 8.76562 15.9134 8.76562 15.5267 8.64453C14.4837 8.3125 13.7493 7.32422 13.7493 6.25C13.7493 5.32812 14.2962 4.44141 15.1165 4.03125C15.6517 3.76172 16.2024 3.6875 16.7767 3.80859Z" fill="#7356C0"/>
<path d="M15.4102 4.47266C15.3203 4.55859 15.3125 4.59766 15.3125 4.94141V5.3125H14.9414C14.5977 5.3125 14.5586 5.32031 14.4727 5.41016C14.375 5.50391 14.375 5.51172 14.375 6.25C14.375 6.98828 14.375 6.99609 14.4727 7.08984C14.5586 7.17969 14.5977 7.1875 14.9414 7.1875H15.3125V7.55859C15.3125 7.90234 15.3203 7.94141 15.4102 8.02734C15.5039 8.125 15.5117 8.125 16.25 8.125C16.9883 8.125 16.9961 8.125 17.0898 8.02734C17.1797 7.94141 17.1875 7.90234 17.1875 7.55859V7.1875H17.5586C17.9023 7.1875 17.9414 7.17969 18.0273 7.08984C18.125 6.99609 18.125 6.98828 18.125 6.25C18.125 5.51172 18.125 5.50391 18.0273 5.41016C17.9414 5.32031 17.9023 5.3125 17.5586 5.3125H17.1875V4.94141C17.1875 4.59766 17.1797 4.55859 17.0898 4.47266C16.9961 4.375 16.9883 4.375 16.25 4.375C15.5117 4.375 15.5039 4.375 15.4102 4.47266ZM16.5625 5.37109C16.5625 5.71484 16.5703 5.75391 16.6602 5.83984C16.7461 5.92969 16.7852 5.9375 17.1289 5.9375H17.5V6.25V6.5625H17.1289C16.7852 6.5625 16.7461 6.57031 16.6602 6.66016C16.5703 6.74609 16.5625 6.78516 16.5625 7.12891V7.5H16.25H15.9375V7.12891C15.9375 6.78516 15.9297 6.74609 15.8398 6.66016C15.7539 6.57031 15.7148 6.5625 15.3711 6.5625H15V6.25V5.9375H15.3711C15.7148 5.9375 15.7539 5.92969 15.8398 5.83984C15.9297 5.75391 15.9375 5.71484 15.9375 5.37109V5H16.25H16.5625V5.37109Z" fill="#7356C0"/>
<path d="M9.53516 6.9375C8.54688 7.20312 7.93359 8.23047 8.18359 9.19141C8.26562 9.50391 8.41406 9.78516 8.61719 10L8.79297 10.1875L8.58203 10.3047C8.24609 10.4961 7.91406 10.8555 7.73438 11.2227C7.65234 11.3984 7.56641 11.6484 7.54297 11.7734C7.51953 11.9062 7.5 12.5391 7.5 13.25V14.4961L7.59766 14.5898L7.69141 14.6875H10H12.3086L12.4023 14.5898L12.5 14.4961V13.25C12.5 12.5391 12.4805 11.9062 12.457 11.7734C12.3555 11.2148 11.9141 10.5859 11.4258 10.3086L11.207 10.1875L11.3828 10C11.7969 9.55469 11.9688 8.89062 11.8164 8.30859C11.5547 7.29688 10.5156 6.67188 9.53516 6.9375ZM10.5117 7.62891C10.6992 7.71484 10.9609 7.91797 10.9297 7.94922C10.9219 7.95703 10.8203 7.93359 10.7031 7.90234C10.5586 7.85938 10.3281 7.83984 10 7.83984C9.67188 7.83984 9.44141 7.85938 9.29688 7.90234C9.17969 7.93359 9.07812 7.95703 9.07031 7.94922C9.0625 7.94141 9.10547 7.89062 9.16797 7.83203C9.51953 7.5 10.0664 7.41797 10.5117 7.62891ZM10.6797 8.55078C10.8086 8.59766 10.9883 8.67969 11.082 8.73438C11.2422 8.82812 11.2539 8.84375 11.2305 8.95703C11.1484 9.35156 10.8945 9.68359 10.5352 9.87109C10.3594 9.96094 10.2852 9.97656 10 9.97656C9.71484 9.97656 9.64062 9.96094 9.46484 9.87109C9.10547 9.68359 8.85156 9.35156 8.76953 8.95703C8.74609 8.84375 8.75781 8.82812 8.91406 8.73438C9.10547 8.625 9.35547 8.52734 9.58984 8.47656C9.83984 8.42188 10.418 8.46094 10.6797 8.55078ZM9.29297 11.2383C9.16797 11.5547 9.0625 11.8477 9.0625 11.8906C9.06641 11.9375 9.22656 12.2891 9.42578 12.6758C9.8125 13.4336 9.87109 13.4961 10.1094 13.4141C10.1953 13.3867 10.2773 13.2578 10.5742 12.6758C10.7734 12.2891 10.9336 11.9375 10.9375 11.8906C10.9375 11.8477 10.832 11.5508 10.7031 11.2344L10.4727 10.6523L10.625 10.6758C11.0547 10.7344 11.5156 11.0977 11.7305 11.5547L11.8555 11.8164L11.8672 12.9375L11.8789 14.0625H10H8.12109L8.13281 12.9375L8.14453 11.8164L8.25 11.5938C8.37891 11.3125 8.51953 11.1289 8.71875 10.9688C8.89844 10.8281 9.26953 10.668 9.42188 10.6641H9.52344L9.29297 11.2383ZM10.1523 11.5352L10.2812 11.8633L10.1523 12.1211C10.082 12.2656 10.0117 12.3828 10 12.3828C9.98828 12.3828 9.91797 12.2656 9.84766 12.1211L9.71875 11.8633L9.84766 11.5352C9.91406 11.3555 9.98438 11.2109 10 11.2109C10.0156 11.2109 10.0859 11.3555 10.1523 11.5352Z" fill="#7356C0"/>
<path d="M2.75324 12.2617C2.44465 12.4023 2.2298 12.7695 2.27668 13.0742L2.30012 13.207L2.12824 13.0547C1.76887 12.7383 1.24933 12.7383 0.901679 13.0586C0.675116 13.2656 0.569647 13.6914 0.667303 13.9883C0.694647 14.0625 1.15168 14.7461 1.68293 15.5117L2.65559 16.8984L3.34699 17.5039C3.7298 17.8359 4.17512 18.2148 4.33527 18.3477C4.74152 18.6758 4.98371 18.9453 5.0384 19.1328C5.08137 19.2695 5.1048 19.293 5.2298 19.3125C5.30793 19.3242 5.44855 19.3359 5.5423 19.3359H5.71027L5.68293 19.1484C5.62043 18.7109 5.38215 18.3867 4.71809 17.8477C4.49543 17.668 4.0423 17.2812 3.71027 16.9883L3.1048 16.4531L2.19074 15.1523C1.68683 14.4336 1.26887 13.8008 1.25715 13.7422C1.23762 13.6133 1.39777 13.4375 1.53058 13.4375C1.64777 13.4375 1.76887 13.5625 2.59699 14.5312C2.95246 14.9492 3.31184 15.332 3.38996 15.3789C3.46809 15.4297 4.05012 15.6406 4.67902 15.8477C5.97199 16.2773 5.93684 16.2578 5.93684 16.6602V16.875H6.25324H6.57355L6.55402 16.5469L6.5384 16.2227L6.13215 15.5078C5.78059 14.8867 5.73371 14.7852 5.76496 14.6953C5.78449 14.6367 5.8509 14.5664 5.90949 14.5312C6.00324 14.4805 6.02668 14.4805 6.12043 14.5312C6.17902 14.5664 6.49152 14.9648 6.82355 15.4297C7.81965 16.8359 7.83137 16.8633 7.82746 18.3477L7.82355 19.375H8.12434H8.42512L8.44855 18.9336C8.52668 17.6328 8.42512 16.8438 8.1048 16.2148C8.01496 16.0312 6.81574 14.3164 6.6634 14.1484C6.51105 13.9766 6.2884 13.8906 6.01105 13.8867C5.7923 13.8867 5.7259 13.9023 5.56184 14.0039C5.44465 14.0781 5.32746 14.1953 5.25324 14.3125C5.15168 14.4766 5.13605 14.543 5.13605 14.7617C5.13996 14.9531 5.1634 15.0625 5.2298 15.1875C5.27668 15.2812 5.31184 15.3672 5.30012 15.375C5.2923 15.3828 5.19074 15.3594 5.07355 15.3203L4.86262 15.25L4.44855 14.4336C4.15559 13.8594 4.01496 13.5312 3.96418 13.3242C3.83527 12.7617 3.75715 12.5625 3.62434 12.4336C3.37434 12.1914 3.05012 12.125 2.75324 12.2617ZM3.15559 12.8477C3.18684 12.8633 3.26496 13.1055 3.33527 13.3828C3.43293 13.7695 3.52277 14.0078 3.72199 14.4023C3.86652 14.6875 3.98371 14.9297 3.98371 14.9375C3.98371 14.9453 3.92121 14.9336 3.84309 14.9102C3.74152 14.8789 3.62434 14.7734 3.40168 14.5156L3.09699 14.1602L3.01105 13.6523C2.96418 13.3711 2.9173 13.0977 2.90559 13.043C2.87434 12.8789 3.02277 12.7617 3.15559 12.8477Z" fill="#7356C0"/>
<path d="M16.6403 12.25C16.3161 12.3906 16.2067 12.582 16.0349 13.3242C15.9841 13.5312 15.8434 13.8594 15.5505 14.4336L15.1364 15.25L14.9411 15.3164C14.652 15.418 14.6442 15.4102 14.7575 15.2031C14.8434 15.0547 14.863 14.9688 14.863 14.7617C14.863 14.543 14.8434 14.4766 14.7458 14.3125C14.6716 14.1953 14.5544 14.0781 14.4372 14.0039C14.2731 13.9023 14.2067 13.8867 13.988 13.8867C13.7106 13.8906 13.488 13.9766 13.3356 14.1484C13.1833 14.3164 11.9841 16.0312 11.8942 16.2148C11.5739 16.8438 11.4724 17.6328 11.5505 18.9336L11.5739 19.375H11.8747H12.1755L12.1716 18.3477C12.1677 16.8633 12.1794 16.8359 13.1755 15.4297C13.5075 14.9648 13.82 14.5664 13.8786 14.5312C13.9724 14.4805 13.9958 14.4805 14.0895 14.5312C14.1481 14.5664 14.2145 14.6406 14.2341 14.6953C14.2653 14.7852 14.2263 14.8789 13.8903 15.4609C13.4684 16.1992 13.4372 16.2812 13.4372 16.6289V16.875H13.7497H14.0622V16.6602C14.0622 16.2578 14.027 16.2773 15.32 15.8477C15.9489 15.6406 16.5309 15.4297 16.6091 15.3789C16.6872 15.332 17.0466 14.9492 17.402 14.5312C18.2302 13.5625 18.3513 13.4375 18.4684 13.4375C18.5974 13.4375 18.7575 13.6094 18.7419 13.7305C18.7341 13.7852 18.3161 14.4219 17.8122 15.1445L16.8942 16.457L16.2888 16.9922C15.9567 17.2852 15.4958 17.6758 15.2653 17.8633C14.6052 18.4023 14.3786 18.707 14.3161 19.1523L14.2888 19.3359H14.4567C14.5505 19.3359 14.6911 19.3242 14.7692 19.3125C14.8942 19.293 14.9177 19.2695 14.9606 19.1328C15.0153 18.9453 15.2575 18.6758 15.6638 18.3477C15.8239 18.2148 16.2692 17.8359 16.652 17.5039L17.3434 16.8984L18.3161 15.5117C18.8474 14.7461 19.3044 14.0625 19.3317 13.9883C19.3981 13.7891 19.3825 13.5586 19.2927 13.3594C19.1872 13.125 19.0817 13.0156 18.8474 12.9062C18.5075 12.7461 18.1638 12.7969 17.8708 13.0547L17.6989 13.207L17.7224 13.0742C17.8122 12.5156 17.1638 12.0234 16.6403 12.25ZM17.0505 12.875C17.0895 12.918 17.1052 12.9766 17.0934 13.043C17.0817 13.0977 17.0349 13.3711 16.988 13.6523L16.902 14.1602L16.5974 14.5156C16.3747 14.7734 16.2575 14.8789 16.1559 14.9102C16.0778 14.9336 16.0153 14.9453 16.0153 14.9375C16.0153 14.9297 16.1325 14.6875 16.277 14.4023C16.4763 14.0078 16.5661 13.7695 16.6638 13.3828C16.7341 13.1055 16.8122 12.8633 16.8434 12.8477C16.9216 12.7969 16.9802 12.8047 17.0505 12.875Z" fill="#7356C0"/>
</g>
<defs>
<clipPath id="clip0_4684_10935">
<rect width="20" height="20" fill="white"/>
</clipPath>
</defs>
</svg>
