<svg width="20" height="20" viewBox="0 0 20 20" fill="none" xmlns="http://www.w3.org/2000/svg">
<path d="M3.98438 4.80469V8.00781H2.59766H1.21094V9.59766C1.21094 10.4766 1.22266 12.8125 1.23828 14.793L1.26172 18.3984H10.0273H18.7891V10.8008V3.20312H15.5859H12.3828V7.20703V11.2109H11.3867H10.3906V6.40625V1.60156H7.1875H3.98438V4.80469ZM8.70312 2.41016L9.60938 2.43359V6.82422V11.2109H8.61328H7.61719V9.60938V8.00781H6.21094H4.80469V5.19531V2.38281H6.30078C7.12109 2.38281 8.20312 2.39453 8.70312 2.41016ZM17.9883 10.8008V17.5977H16.9922H15.9961L15.9844 16.8047L15.9766 16.0156H15.5859H15.1953V16.8164V17.6172H14.1992H13.2031V10.8008V3.98438L15.5977 3.99219L17.9883 4.00391V10.8008ZM6.79688 13.2031V17.6172H5.80078H4.80469V16.8164V16.0156H4.41406H4.02344L4.01562 16.8047L4.00391 17.5977L3.04297 17.6094L2.07812 17.6172L2.05469 17.0625C2.04297 16.7539 2.02734 14.7695 2.01953 12.6445L2.00391 8.78906H4.39844H6.79688V13.2031ZM12.3828 14.8047V17.6172L11.3984 17.6094L10.4102 17.5977L10.3984 16.8047L10.3906 16.0156H10H9.60938L9.60156 16.8047L9.58984 17.5977L8.60547 17.6094L7.61719 17.6172V14.8047V11.9922H10H12.3828V14.8047Z" fill="#7356C0"/>
<path d="M6.01562 3.59375V3.98438H6.40625H6.79688V3.59375V3.20312H6.40625H6.01562V3.59375Z" fill="#7356C0"/>
<path d="M7.61719 3.59375V3.98438H8.00781H8.39844V3.59375V3.20312H8.00781H7.61719V3.59375Z" fill="#7356C0"/>
<path d="M6.01562 5.19531V5.58594H6.40625H6.79688V5.19531V4.80469H6.40625H6.01562V5.19531Z" fill="#7356C0"/>
<path d="M7.61719 5.19531V5.58594H8.00781H8.39844V5.19531V4.80469H8.00781H7.61719V5.19531Z" fill="#7356C0"/>
<path d="M14.4141 5.19531V5.58594H14.8047H15.1953V5.19531V4.80469H14.8047H14.4141V5.19531Z" fill="#7356C0"/>
<path d="M16.0156 5.21484V5.625H16.4062H16.7969V5.21484V4.80469H16.4062H16.0156V5.21484Z" fill="#7356C0"/>
<path d="M14.4141 6.79688V7.1875H14.8047H15.1953V6.79688V6.40625H14.8047H14.4141V6.79688Z" fill="#7356C0"/>
<path d="M16.0156 6.79688V7.1875H16.4062H16.7969V6.79688V6.40625H16.4062H16.0156V6.79688Z" fill="#7356C0"/>
<path d="M14.4141 8.39844V8.78906H14.8047H15.1953V8.39844V8.00781H14.8047H14.4141V8.39844Z" fill="#7356C0"/>
<path d="M16.0156 8.39844V8.78906H16.4062H16.7969V8.39844V8.00781H16.4062H16.0156V8.39844Z" fill="#7356C0"/>
<path d="M14.4141 10V10.3906H14.8047H15.1953V10V9.60938H14.8047H14.4141V10Z" fill="#7356C0"/>
<path d="M16.0156 10V10.3906H16.4062H16.7969V10V9.60938H16.4062H16.0156V10Z" fill="#7356C0"/>
<path d="M14.4141 11.6016V11.9922H14.8047H15.1953V11.6016V11.2109H14.8047H14.4141V11.6016Z" fill="#7356C0"/>
<path d="M16.0156 11.6016V11.9922H16.4062H16.7969V11.6016V11.2109H16.4062H16.0156V11.6016Z" fill="#7356C0"/>
<path d="M14.4141 13.2031V13.5938H14.8047H15.1953V13.2031V12.8125H14.8047H14.4141V13.2031Z" fill="#7356C0"/>
<path d="M16.0156 13.2031V13.5938H16.4062H16.7969V13.2031V12.8125H16.4062H16.0156V13.2031Z" fill="#7356C0"/>
<path d="M14.4141 14.7852V15.1953H14.8047H15.1953V14.7852V14.375H14.8047H14.4141V14.7852Z" fill="#7356C0"/>
<path d="M16.0156 14.7852V15.1953H16.4062H16.8008L16.7891 14.793L16.7773 14.3945L16.3984 14.3828L16.0156 14.3711V14.7852Z" fill="#7356C0"/>
<path d="M3.20312 10V10.3906H3.61328H4.02344V10V9.60938H3.61328H3.20312V10Z" fill="#7356C0"/>
<path d="M4.80469 10V10.3906H5.19531H5.58594V10V9.60938H5.19531H4.80469V10Z" fill="#7356C0"/>
<path d="M3.20312 11.6016V11.9922H3.61328H4.02344V11.6016V11.2109H3.61328H3.20312V11.6016Z" fill="#7356C0"/>
<path d="M4.80469 11.6016V11.9922H5.19531H5.58594V11.6016V11.2109H5.19531H4.80469V11.6016Z" fill="#7356C0"/>
<path d="M3.20312 13.2031V13.5938H3.61328H4.02344V13.2031V12.8125H3.61328H3.20312V13.2031Z" fill="#7356C0"/>
<path d="M4.80469 13.2031V13.5938H5.19531H5.58594V13.2031V12.8125H5.19531H4.80469V13.2031Z" fill="#7356C0"/>
<path d="M8.78906 13.2031V13.5938H9.19922H9.60938V13.2031V12.8125H9.19922H8.78906V13.2031Z" fill="#7356C0"/>
<path d="M10.3906 13.2031V13.5938H10.8008H11.2109V13.2031V12.8125H10.8008H10.3906V13.2031Z" fill="#7356C0"/>
<path d="M8.81641 14.3984C8.80078 14.4141 8.78906 14.6016 8.78906 14.8125V15.1953H9.19922H9.61328L9.60156 14.793L9.58984 14.3945L9.21875 14.3828C9.01172 14.3789 8.83203 14.3828 8.81641 14.3984Z" fill="#7356C0"/>
<path d="M10.418 14.3984C10.4023 14.4141 10.3906 14.6016 10.3906 14.8125V15.1953H10.8008H11.2148L11.2031 14.793L11.1914 14.3945L10.8203 14.3828C10.6133 14.3789 10.4336 14.3828 10.418 14.3984Z" fill="#7356C0"/>
</svg>
