<svg width="20" height="20" viewBox="0 0 20 20" fill="none" xmlns="http://www.w3.org/2000/svg">
<path d="M9.37564 0.910156C8.37955 1.25 7.80533 2.29687 8.06705 3.30078C8.23111 3.91797 8.73892 4.46484 9.36002 4.69141C9.68814 4.8125 10.3131 4.8125 10.6413 4.69141C11.2624 4.46875 11.7506 3.94531 11.9225 3.32422C12.2038 2.30469 11.6061 1.21094 10.5944 0.898437C10.2389 0.789062 9.71549 0.792968 9.37564 0.910156ZM10.528 1.73047C11.1335 2.03906 11.36 2.72266 11.0631 3.33203C10.9342 3.58984 10.7858 3.74219 10.5085 3.89062C10.403 3.94922 10.2897 3.96484 10.0006 3.96484C9.71158 3.96484 9.5983 3.94922 9.49283 3.89062C9.21549 3.74219 9.06705 3.58984 8.93814 3.33203C8.60221 2.64453 8.93814 1.88281 9.68814 1.63672C9.87955 1.57422 10.321 1.62109 10.528 1.73047Z" fill="#7356C0"/>
<path d="M9.0625 5.25426C8.33203 5.3988 7.67578 5.84411 7.26172 6.47692C6.87109 7.07458 6.79688 7.43395 6.79688 8.76989V9.75817L7.04297 9.78551C7.17578 9.80114 7.35156 9.8363 7.42969 9.86364C7.51172 9.89098 7.58594 9.9027 7.59766 9.89098C7.60938 9.87926 7.61719 9.37536 7.61719 8.76598C7.61719 7.7777 7.625 7.64098 7.69531 7.41442C7.88281 6.79723 8.40234 6.28161 9.01953 6.09411C9.38281 5.98083 10.6172 5.98083 10.9844 6.09411C11.6016 6.28161 12.1172 6.80114 12.3047 7.41833C12.375 7.63708 12.3828 7.78161 12.3828 8.76598C12.3828 9.37536 12.3906 9.87926 12.4023 9.89098C12.4141 9.9027 12.4883 9.89098 12.5703 9.86364C12.6484 9.8363 12.8242 9.80114 12.9609 9.78551L13.2031 9.75817V8.76989C13.2031 8.07848 13.1875 7.69176 13.1484 7.49255C12.9297 6.35192 12.0469 5.46911 10.9062 5.25036C10.543 5.18005 9.41797 5.18395 9.0625 5.25426Z" fill="#7356C0"/>
<path d="M0.816406 10.6406C0.476562 10.7617 0.234375 11.0039 0.125 11.3242C0.09375 11.4141 0.078125 11.8828 0.078125 12.7891C0.078125 14.1094 0.078125 14.1211 0.171875 14.3203C0.246094 14.4844 0.414062 14.6562 1.07031 15.2578L1.875 15.9961V17.1953V18.3984H2.26562H2.65625V17.0547C2.65625 16.3164 2.64453 15.6836 2.63281 15.6484C2.62109 15.6133 2.23438 15.2422 1.77344 14.8203C1.3125 14.3984 0.917969 14.0195 0.898438 13.9805C0.855469 13.9062 0.84375 11.6484 0.882812 11.543C0.917969 11.4531 1.12109 11.3594 1.22266 11.3906C1.44531 11.457 1.44531 11.4492 1.44531 12.5391C1.44531 13.1562 1.46094 13.5898 1.48828 13.6641C1.52344 13.7695 2.39844 14.6172 2.9375 15.0664L3.09375 15.1953H4.23828C4.86719 15.1953 5.41016 15.1836 5.44531 15.1719C5.49609 15.1523 5.48828 15.125 5.39062 15C5.32422 14.918 5.22656 14.7539 5.17188 14.6328L5.07422 14.4141H4.23438H3.39844L2.83984 13.9023L2.28516 13.3906L2.26562 12.3906C2.24609 11.3945 2.24609 11.3867 2.14062 11.1875C1.88672 10.7031 1.30469 10.4648 0.816406 10.6406Z" fill="#7356C0"/>
<path d="M6.5 10.6484C6.27344 10.7305 6.05469 10.9297 5.91797 11.1758L5.80078 11.3867V12.7539C5.80078 14.0586 5.80469 14.1289 5.88281 14.2969C5.98047 14.5117 6.01172 14.543 6.90625 15.3633L7.61719 16.0195V17.2109V18.3984H8.00781H8.39844V17.0586C8.39844 15.8555 8.39062 15.7109 8.32812 15.6172C8.29297 15.5625 7.90234 15.1836 7.46094 14.7812C7.01953 14.3789 6.64844 14.0312 6.63281 14.0078C6.61719 13.9844 6.60156 13.418 6.60156 12.75C6.60156 11.5742 6.60547 11.5312 6.67969 11.4648C6.79688 11.3594 7.02344 11.3672 7.11328 11.4805C7.18359 11.5625 7.1875 11.6523 7.1875 12.6133C7.1875 13.4766 7.19922 13.668 7.24609 13.7383C7.31641 13.8359 8.64453 15.0703 8.78906 15.168C8.875 15.2266 9.01562 15.2344 10 15.2344C10.9844 15.2344 11.125 15.2266 11.2109 15.168C11.3555 15.0703 12.6836 13.8359 12.7539 13.7383C12.8008 13.668 12.8125 13.4766 12.8125 12.6133C12.8125 11.6523 12.8164 11.5625 12.8867 11.4805C12.9766 11.3672 13.2031 11.3594 13.3203 11.4648C13.3945 11.5312 13.3984 11.5742 13.3984 12.7539C13.3984 13.668 13.3867 13.9844 13.3516 14.0312C13.3242 14.0625 12.9492 14.4102 12.5195 14.8008C12.0898 15.1953 11.707 15.5586 11.6719 15.6172C11.6094 15.7109 11.6016 15.8555 11.6016 17.0586V18.3984H11.9922H12.3828V17.2109V16.0195L13.0977 15.3633C13.9883 14.543 14.0195 14.5117 14.1172 14.2969C14.1953 14.1289 14.1992 14.0586 14.1992 12.7734C14.1992 11.4844 14.1953 11.418 14.1172 11.2461C14.0039 11 13.8281 10.8164 13.6055 10.7031C13.4531 10.6211 13.3633 10.6055 13.1055 10.6055C12.7539 10.6094 12.5625 10.6836 12.332 10.9141C12.0469 11.1992 11.9922 11.4609 11.9922 12.582V13.3867L11.4375 13.8984L10.8789 14.4102H10H9.12109L8.54688 13.8828L7.96875 13.3516V12.3906C7.96875 11.4609 7.96484 11.418 7.875 11.2305C7.76953 10.9961 7.58984 10.8086 7.36719 10.6953C7.16016 10.5898 6.72266 10.5625 6.5 10.6484Z" fill="#7356C0"/>
<path d="M18.5941 10.6211C18.3012 10.7109 18.0238 10.9609 17.8949 11.25C17.8207 11.4102 17.8129 11.5039 17.8129 12.3906V13.3555L17.2387 13.8828L16.6605 14.4141H15.7934H14.9262L14.848 14.5898C14.8051 14.6836 14.7191 14.8398 14.6527 14.9375C14.4652 15.2109 14.473 15.2109 15.7387 15.2266C16.3324 15.2344 16.8559 15.2266 16.9066 15.2148C17.0043 15.1914 18.4691 13.8672 18.5434 13.7344C18.5785 13.6758 18.5902 13.3633 18.5941 12.6484C18.5941 11.5859 18.6098 11.4883 18.7777 11.4102C18.9145 11.3477 18.9691 11.3555 19.0902 11.4609L19.1996 11.5547L19.2113 12.6875C19.2191 13.5508 19.2113 13.8477 19.1723 13.9375C19.1449 14.0078 18.7816 14.3711 18.3207 14.793C17.8832 15.1992 17.5004 15.5742 17.473 15.625C17.4379 15.6992 17.4223 16.0664 17.4223 17.0586V18.3984H17.8324H18.2426V17.1719V15.9453L19.0004 15.2539C19.5473 14.7539 19.7895 14.5039 19.8715 14.3594L19.9809 14.1602L19.9926 12.8594C20.0082 11.3047 19.9965 11.2422 19.6762 10.918C19.5395 10.7852 19.4066 10.6953 19.2816 10.6523C19.0824 10.582 18.766 10.5703 18.5941 10.6211Z" fill="#7356C0"/>
<path d="M4.03466 10.8284C3.54247 10.8831 3.02294 11.2581 2.79638 11.723C2.15966 13.0277 3.44872 14.4886 4.80809 14.0003L4.9995 13.93V13.4222V12.9144L4.8745 13.0394C4.33544 13.5589 3.43309 13.1917 3.437 12.4534C3.44091 11.9652 3.80809 11.6019 4.29638 11.6019C4.46434 11.6019 4.7495 11.7269 4.88622 11.8597L4.98778 11.9574L5.01122 11.5941C5.02684 11.3949 5.04638 11.1839 5.062 11.1214C5.08544 11.0238 5.07372 11.0081 4.90966 10.9378C4.67919 10.8363 4.33544 10.7933 4.03466 10.8284Z" fill="#7356C0"/>
<path d="M15.5945 10.8285C15.4617 10.8442 15.2508 10.8989 15.1297 10.9535C14.9148 11.0551 14.9148 11.059 14.9422 11.184C14.9617 11.2504 14.9851 11.5121 14.9969 11.7582C15.0203 12.184 15.0242 12.1996 15.075 12.0824C15.1023 12.0121 15.1922 11.8949 15.2742 11.8207C15.9266 11.2309 16.95 11.9574 16.6023 12.766C16.4422 13.1332 16.157 13.3051 15.7391 13.2739C15.4695 13.2543 15.282 13.1371 15.1141 12.8832L15.0008 12.7153V13.2934V13.8715L15.1805 13.9496C15.9891 14.309 16.9305 13.9496 17.3172 13.1371C17.4344 12.8871 17.4422 12.8442 17.4422 12.4418C17.4422 12.0356 17.4344 11.9965 17.3172 11.7543C16.993 11.0981 16.3367 10.7426 15.5945 10.8285Z" fill="#7356C0"/>
<path d="M9.51145 10.8711C9.00755 11.0391 8.61302 11.4375 8.44114 11.9453C8.15989 12.7734 8.62864 13.7031 9.47239 14.0078C9.6013 14.0508 9.78098 14.0742 9.99973 14.0742C10.5505 14.0742 10.9997 13.8555 11.3122 13.4258C11.9333 12.5859 11.6208 11.3867 10.6716 10.9453C10.488 10.8594 10.3825 10.8398 10.0583 10.832C9.81223 10.8242 9.60911 10.8398 9.51145 10.8711ZM10.3943 11.7109C10.9568 12.0039 10.9997 12.7734 10.4763 13.1445C10.32 13.25 10.2771 13.2617 9.99973 13.2617C9.72239 13.2617 9.67942 13.25 9.52317 13.1445C9.15208 12.8828 9.04661 12.3867 9.28098 12.0039C9.42552 11.7695 9.7263 11.6016 9.99973 11.6016C10.1286 11.6016 10.2497 11.6367 10.3943 11.7109Z" fill="#7356C0"/>
</svg>
