<svg width="20" height="20" viewBox="0 0 20 20" fill="none" xmlns="http://www.w3.org/2000/svg">
<g clip-path="url(#clip0_4687_11049)">
<path d="M8.73133 0.0425606C6.46571 0.210529 4.48915 0.780842 3.16493 1.64412C2.93836 1.79256 2.6454 2.03475 2.42274 2.26131C2.10243 2.58162 2.0204 2.691 1.86805 3.0074C1.76649 3.21053 1.66493 3.48397 1.64149 3.61287C1.61024 3.78084 1.60243 5.61287 1.61024 9.941L1.62196 16.0347L1.7118 16.2652C2.32118 17.8707 4.62586 19.0699 7.87196 19.4722C9.8993 19.7262 12.3212 19.5777 14.1141 19.0972L14.4149 19.0152V18.6051C14.4149 18.1988 14.4149 18.1949 14.329 18.2183C12.9618 18.5972 11.9266 18.7457 10.3915 18.7769C8.94227 18.8082 7.78602 18.7105 6.61024 18.4566C5.02821 18.1129 3.7118 17.5035 2.98915 16.7769C2.66493 16.4527 2.48133 16.1285 2.42665 15.7808C2.38368 15.5152 2.36805 13.7496 2.40711 13.7496C2.41883 13.7496 2.52821 13.8394 2.6493 13.9488C3.52821 14.734 5.19227 15.4215 6.99305 15.7379C8.49305 16.0035 10.3837 16.066 11.8837 15.8941L12.3056 15.8472L12.6376 15.4137C12.8212 15.1715 12.9696 14.9644 12.9696 14.9527C12.9696 14.941 12.8329 14.9566 12.6688 14.984C11.6415 15.1637 9.95008 15.2418 8.82899 15.1597C6.19618 14.9683 4.03602 14.234 2.98133 13.1715C2.66102 12.8472 2.48133 12.5269 2.42274 12.1676C2.37977 11.9176 2.36805 9.76522 2.40711 9.76522C2.41883 9.76522 2.5204 9.84725 2.63368 9.94881C3.50477 10.7379 5.25086 11.4488 7.07118 11.7535C8.15711 11.9371 8.59852 11.9722 10.0009 11.9683C11.454 11.9683 11.997 11.9254 13.0477 11.734C14.9032 11.3902 16.5087 10.7301 17.3681 9.94881C17.4813 9.84725 17.5829 9.76522 17.5946 9.76522C17.6063 9.76522 17.6181 10.1637 17.6181 10.648V11.5347L18.0009 12.0347L18.3798 12.5387L18.3915 8.191C18.3993 5.15975 18.3915 3.77694 18.3602 3.61287C18.3368 3.48397 18.2352 3.21053 18.1337 3.0074C17.6493 2.01131 16.3095 1.1324 14.4423 0.589436C12.8056 0.112873 10.6141 -0.0980644 8.73133 0.0425606ZM10.9579 0.835529C13.3681 0.921467 15.8016 1.691 16.911 2.71834C17.3954 3.16756 17.5868 3.53475 17.5868 4.01912C17.5829 4.27303 17.5673 4.34725 17.4384 4.60506C16.8602 5.77694 14.7001 6.75741 11.954 7.08944C11.2431 7.17537 9.51649 7.21053 8.75086 7.15194C5.70008 6.92147 3.16493 5.87459 2.55555 4.59725C2.43836 4.34334 2.41883 4.26522 2.41493 4.01522C2.41493 3.53475 2.60633 3.16756 3.09071 2.71834C4.0204 1.85897 5.75086 1.21444 7.87586 0.937092C8.49696 0.855061 9.73133 0.784748 10.1766 0.808186C10.3056 0.812092 10.6571 0.827717 10.9579 0.835529ZM2.72743 6.02694C3.92665 6.99959 5.82508 7.65194 8.24305 7.91365C8.98133 7.99569 10.8837 8.0074 11.5829 7.93319C14.1415 7.67147 16.036 7.03475 17.2743 6.02694C17.4384 5.89022 17.5868 5.78084 17.5985 5.78084C17.6337 5.78084 17.6181 7.941 17.579 8.17928C17.5204 8.55428 17.3681 8.80819 16.997 9.18319C16.8134 9.36678 16.536 9.59725 16.3876 9.6949C13.2977 11.7027 6.66883 11.6871 3.57118 9.66756C3.44618 9.58162 3.18836 9.36678 3.00477 9.17928C2.63368 8.80819 2.48133 8.55428 2.42274 8.17928C2.38368 7.941 2.36805 5.78084 2.40321 5.78084C2.41493 5.78084 2.56336 5.89022 2.72743 6.02694Z" fill="#7356C0"/>
<path d="M14.8906 13.7656L13.1953 15.9961L14.1953 16.0078L15.1953 16.0156V18.0078V20H16.6016H18.0078V18.0078V16.0156H18.9883C19.8398 16.0156 19.9648 16.0078 19.9453 15.957C19.9219 15.8945 16.6484 11.5703 16.6094 11.5469C16.5938 11.5391 15.8203 12.5391 14.8906 13.7656ZM17.4805 13.9922C17.9531 14.6172 18.3477 15.1406 18.3516 15.1602C18.3594 15.1797 18.1016 15.1953 17.7773 15.1953H17.1875V17.207V19.2188H16.6016H16.0156V17.207V15.1953H15.4258C15.0898 15.1953 14.8438 15.1797 14.8516 15.1602C14.8711 15.1055 16.5781 12.8555 16.6016 12.8555C16.6133 12.8555 17.0078 13.3672 17.4805 13.9922Z" fill="#7356C0"/>
</g>
<defs>
<clipPath id="clip0_4687_11049">
<rect width="20" height="20" fill="white"/>
</clipPath>
</defs>
</svg>
