<svg width="220" height="48" viewBox="0 0 220 48" fill="none" xmlns="http://www.w3.org/2000/svg">
<path d="M153.567 47.2696C154.096 47.2696 154.508 47.1723 154.8 46.9752C155.092 46.778 155.237 46.4698 155.237 46.0526C155.237 45.672 155.095 45.3913 154.809 45.2134C154.523 45.0355 154.109 44.9456 153.567 44.9456H152.503V47.2696H153.567ZM153.408 44.3651C153.938 44.3651 154.315 44.2752 154.544 44.0945C154.769 43.9129 154.883 43.6516 154.883 43.3076C154.883 42.9711 154.765 42.728 154.523 42.5831C154.284 42.4355 153.927 42.3603 153.446 42.3603H152.503V44.3651H153.408ZM151.729 41.744H153.548C153.858 41.744 154.144 41.7724 154.403 41.8274C154.662 41.8843 154.883 41.9714 155.065 42.0906C155.249 42.2071 155.393 42.3621 155.495 42.5529C155.598 42.7436 155.649 42.9738 155.649 43.2425C155.649 43.5479 155.561 43.824 155.387 44.0716C155.213 44.3183 154.946 44.488 154.585 44.5815V44.6191C155.033 44.6879 155.382 44.8429 155.629 45.0859C155.879 45.3308 156.004 45.6646 156.004 46.0892C156.004 46.3901 155.947 46.6505 155.836 46.8743C155.723 47.1008 155.565 47.2888 155.36 47.4383C155.153 47.5887 154.908 47.7006 154.622 47.7749C154.335 47.8501 154.022 47.8877 153.679 47.8877H151.729V41.744Z" fill="#1C105A"/>
<path d="M158.619 41.744H159.396V47.8877H158.619V41.744ZM159.003 41.2001C158.854 41.2001 158.727 41.1515 158.626 41.0607C158.522 40.9662 158.471 40.8443 158.471 40.6929C158.471 40.5499 158.522 40.4316 158.626 40.3389C158.727 40.2454 158.854 40.1968 159.003 40.1968C159.153 40.1968 159.279 40.2454 159.381 40.3389C159.482 40.4316 159.535 40.5499 159.535 40.6929C159.535 40.8443 159.482 40.9662 159.381 41.0607C159.279 41.1515 159.153 41.2001 159.003 41.2001Z" fill="#1C105A"/>
<path d="M163.249 44.6567H164.276C164.756 44.6567 165.122 44.5595 165.377 44.3623C165.632 44.1651 165.76 43.868 165.76 43.4672C165.76 43.0609 165.632 42.7775 165.377 42.6143C165.122 42.4529 164.756 42.3713 164.276 42.3713H163.249V44.6567ZM165.835 47.8877L164.361 45.2923H163.249V47.8877H162.475V41.744H164.387C164.7 41.744 164.987 41.7733 165.251 41.8329C165.515 41.8916 165.743 41.9907 165.934 42.1282C166.122 42.2658 166.271 42.4428 166.376 42.6611C166.482 42.8803 166.535 43.1471 166.535 43.4672C166.535 43.9487 166.412 44.3321 166.162 44.62C165.912 44.9062 165.579 45.1033 165.164 45.2097L166.714 47.8877H165.835Z" fill="#1C105A"/>
<path d="M169.3 41.744H170.074V47.8877H169.3V41.744ZM169.683 41.2001C169.533 41.2001 169.406 41.1515 169.304 41.0607C169.201 40.9662 169.148 40.8443 169.148 40.6929C169.148 40.5499 169.201 40.4316 169.304 40.3389C169.406 40.2454 169.533 40.1968 169.683 40.1968C169.832 40.1968 169.957 40.2454 170.06 40.3389C170.163 40.4316 170.214 40.5499 170.214 40.6929C170.214 40.8443 170.163 40.9662 170.06 41.0607C169.957 41.1515 169.832 41.2001 169.683 41.2001Z" fill="#1C105A"/>
<path d="M173.152 41.744H173.955L176.168 45.6041L176.83 46.8761H176.868C176.849 46.5634 176.827 46.2396 176.807 45.9067C176.785 45.5738 176.775 45.2427 176.775 44.919V41.744H177.511V47.8877H176.709L174.487 44.0193L173.823 42.7555H173.786C173.811 43.0683 173.834 43.3838 173.857 43.7066C173.88 44.0276 173.891 44.3504 173.891 44.6741V47.8877H173.152V41.744Z" fill="#1C105A"/>
<path d="M180.236 44.8158C180.236 44.3224 180.305 43.8785 180.441 43.4869C180.577 43.0925 180.767 42.7578 181.01 42.4845C181.253 42.2075 181.542 41.9975 181.873 41.8517C182.207 41.704 182.569 41.6307 182.962 41.6307C183.337 41.6307 183.661 41.7077 183.941 41.8609C184.221 42.014 184.452 42.1901 184.633 42.39L184.195 42.8862C184.032 42.7119 183.853 42.5725 183.657 42.4689C183.461 42.3671 183.231 42.3148 182.971 42.3148C182.679 42.3148 182.414 42.3717 182.178 42.4872C181.941 42.6028 181.741 42.7688 181.571 42.9852C181.402 43.1998 181.272 43.4603 181.179 43.7657C181.086 44.072 181.039 44.4159 181.039 44.7965C181.039 45.1826 181.085 45.5311 181.174 45.8402C181.264 46.1511 181.392 46.4134 181.552 46.6335C181.714 46.8518 181.912 47.0196 182.146 47.1379C182.379 47.2571 182.641 47.3168 182.934 47.3168C183.231 47.3168 183.492 47.2571 183.713 47.1379C183.934 47.0196 184.144 46.8518 184.344 46.6335L184.783 47.1104C184.539 47.392 184.264 47.6093 183.961 47.7671C183.656 47.9211 183.306 48 182.915 48C182.53 48 182.173 47.9285 181.848 47.7836C181.52 47.6423 181.237 47.4332 180.996 47.1618C180.755 46.8903 180.57 46.5565 180.437 46.1603C180.302 45.7622 180.236 45.3147 180.236 44.8158Z" fill="#1C105A"/>
<path d="M187.323 41.744H188.097V47.8877H187.323V41.744ZM187.705 41.2001C187.556 41.2001 187.431 41.1515 187.326 41.0607C187.224 40.9662 187.172 40.8443 187.172 40.6929C187.172 40.5499 187.224 40.4316 187.326 40.3389C187.431 40.2454 187.556 40.1968 187.705 40.1968C187.855 40.1968 187.981 40.2454 188.081 40.3389C188.184 40.4316 188.237 40.5499 188.237 40.6929C188.237 40.8443 188.184 40.9662 188.081 41.0607C187.981 41.1515 187.855 41.2001 187.705 41.2001Z" fill="#1C105A"/>
<path d="M196.302 47.2696C196.829 47.2696 197.241 47.1723 197.535 46.9752C197.826 46.778 197.972 46.4698 197.972 46.0526C197.972 45.672 197.829 45.3913 197.543 45.2134C197.257 45.0355 196.843 44.9456 196.302 44.9456H195.237V47.2696H196.302ZM196.144 44.3651C196.672 44.3651 197.049 44.2752 197.277 44.0945C197.506 43.9129 197.619 43.6516 197.619 43.3076C197.619 42.9711 197.499 42.728 197.26 42.5831C197.018 42.4355 196.66 42.3603 196.179 42.3603H195.237V44.3651H196.144ZM194.463 41.744H196.283C196.594 41.744 196.879 41.7724 197.137 41.8274C197.396 41.8843 197.617 41.9714 197.8 42.0906C197.984 42.2071 198.127 42.3621 198.229 42.5529C198.332 42.7436 198.383 42.9738 198.383 43.2425C198.383 43.5479 198.295 43.824 198.122 44.0716C197.947 44.3183 197.68 44.488 197.318 44.5815V44.6191C197.768 44.6879 198.116 44.8429 198.366 45.0859C198.613 45.3308 198.739 45.6646 198.739 46.0892C198.739 46.3901 198.682 46.6505 198.57 46.8743C198.459 47.1008 198.3 47.2888 198.094 47.4383C197.888 47.5887 197.644 47.7006 197.357 47.7749C197.071 47.8501 196.756 47.8877 196.413 47.8877H194.463V41.744Z" fill="#1C105A"/>
<path d="M203.958 45.3876L203.669 44.4494C203.554 44.1055 203.447 43.7634 203.351 43.4241C203.249 43.0848 203.15 42.7354 203.052 42.3804H203.014C202.92 42.7354 202.824 43.0848 202.725 43.4241C202.624 43.7634 202.518 44.1055 202.407 44.4494L202.118 45.3876H203.958ZM204.152 46.014H201.922L201.332 47.8877H200.541L202.611 41.743H203.489L205.562 47.8877H204.732L204.152 46.014Z" fill="#1C105A"/>
<path d="M207.832 41.744H208.635L210.845 45.6041L211.51 46.8761H211.546C211.529 46.5634 211.508 46.2396 211.485 45.9067C211.463 45.5738 211.453 45.2427 211.453 44.919V41.744H212.192V47.8877H211.388L209.166 44.0193L208.504 42.7555H208.465C208.492 43.0683 208.515 43.3838 208.537 43.7066C208.557 44.0276 208.57 44.3504 208.57 44.6741V47.8877H207.832V41.744Z" fill="#1C105A"/>
<path d="M215.271 41.744H216.047V44.8255H216.075L218.623 41.744H219.501L217.588 44.0853L219.8 47.8877H218.93L217.102 44.6943L216.047 45.9388V47.8877H215.271V41.744Z" fill="#1C105A"/>
<path d="M0 39.1917V39.1963H39.0593V39.1899L19.5347 19.5903L0 39.1917Z" fill="#1C105A"/>
<path d="M0.00444486 -0.000526428H0V39.1904L19 19.5908L0.00444486 -0.000526428Z" fill="#1C105A"/>
<path d="M54.3602 19.3907L65.2266 30.8106V31.0674H59.9702L50.5251 21.0378V31.0674H46.2695V8.42388H50.5251V17.9985L59.1001 8.42388H64.3857V8.54769L54.3602 19.3907Z" fill="#1C105A"/>
<path d="M80.2677 31.0659H76.0935V29.7003H76.0341C75.1256 30.8852 73.5563 31.5547 72.0125 31.5547C67.661 31.5547 65.1777 27.5781 65.1777 23.5446C65.1777 19.5983 67.6903 15.685 71.9513 15.685C73.495 15.685 75.0643 16.3526 76.0935 17.566V16.1683H80.2677V31.0659ZM76.5167 23.6024C76.5167 21.6031 75.1576 19.4488 72.9823 19.4488C70.8052 19.4488 69.4726 21.6031 69.4726 23.6024C69.4726 25.6063 70.8052 27.7918 72.9823 27.7918C75.1576 27.7918 76.5167 25.6063 76.5167 23.6024Z" fill="#1C105A"/>
<path d="M88.3078 17.535C89.2757 16.3822 90.845 15.6825 92.4189 15.6825C96.6233 15.6825 99.1934 19.6297 99.1934 23.543C99.1934 27.6058 96.7138 31.5549 92.3266 31.5549C90.8204 31.5549 89.2163 30.8845 88.3663 29.6703H88.3078V39.0156H84.0742V16.1667H88.3078V17.535ZM94.8986 23.6017C94.8986 21.6024 93.5687 19.4472 91.3916 19.4472C89.2163 19.4472 87.8846 21.6024 87.8846 23.6017C87.8846 25.6056 89.2163 27.7911 91.3916 27.7911C93.5687 27.7911 94.8986 25.6056 94.8986 23.6017Z" fill="#1C105A"/>
<path d="M106.747 9.91957C106.747 11.3136 105.631 12.4389 104.235 12.4389C102.848 12.4389 101.729 11.3136 101.729 9.91957C101.729 8.55308 102.848 7.40027 104.235 7.40027C105.631 7.40027 106.747 8.55308 106.747 9.91957ZM106.353 31.0654H102.12V16.1669H106.353V31.0654Z" fill="#1C105A"/>
<path d="M115.063 31.0654H110.832V19.751H109.379V16.1679H110.832V11.1347H115.063V16.1679H117.667V19.751H115.063V31.0654Z" fill="#1C105A"/>
<path d="M133.387 31.0659H129.21V29.7003H129.15C128.245 30.8852 126.673 31.5547 125.132 31.5547C120.777 31.5547 118.297 27.5781 118.297 23.5446C118.297 19.5983 120.809 15.685 125.07 15.685C126.613 15.685 128.181 16.3526 129.21 17.566V16.1683H133.387V31.0659ZM129.636 23.6024C129.636 21.6031 128.274 19.4488 126.099 19.4488C123.922 19.4488 122.59 21.6031 122.59 23.6024C122.59 25.6063 123.922 27.7918 126.099 27.7918C128.274 27.7918 129.636 25.6063 129.636 23.6024Z" fill="#1C105A"/>
<path d="M141.426 31.0664H137.191V5.34233H141.426V31.0664Z" fill="#1C105A"/>
<path d="M184.385 31.0659H180.214V29.7003H180.153C179.245 30.8852 177.671 31.5547 176.132 31.5547C171.775 31.5547 169.297 27.5781 169.297 23.5446C169.297 19.5983 171.809 15.685 176.07 15.685C177.612 15.685 179.186 16.3526 180.214 17.566V16.1683H184.385V31.0659ZM180.634 23.6024C180.634 21.6031 179.274 19.4488 177.1 19.4488C174.922 19.4488 173.592 21.6031 173.592 23.6024C173.592 25.6063 174.922 27.7918 177.1 27.7918C179.274 27.7918 180.634 25.6063 180.634 23.6024Z" fill="#1C105A"/>
<path d="M192.425 17.5353H192.486C193.362 16.199 194.843 15.6827 196.355 15.6827C200.347 15.6827 201.495 18.5083 201.495 21.9658V31.0654H197.262V23.1764C197.262 21.3871 197.353 19.0843 194.966 19.0843C192.457 19.0843 192.425 21.9053 192.425 23.6964V31.0654H188.191V16.1669H192.425V17.5353Z" fill="#1C105A"/>
<path d="M209.511 21.631H209.57L214.016 16.1696H219.519L213.258 22.7242L220.001 31.0635H214.438L209.57 24.7271H209.511V31.0635H205.275V5.3394H209.511V21.631Z" fill="#1C105A"/>
<path d="M151.16 8.18807H158.537C162.766 8.18807 165.369 9.85905 165.369 14.4107C165.369 16.045 164.793 17.9296 163.374 18.8412C166.066 19.3246 167.271 22.053 167.271 24.5732C167.271 29.0625 164.13 31.0654 159.987 31.0654H151.16V8.18807ZM155.604 17.715H157.995C160.169 17.715 161.227 17.0804 161.227 14.7097C161.227 12.3765 159.896 11.7694 158.021 11.7694H155.604V17.715ZM155.604 27.4859H158.384C160.773 27.4859 162.832 27.1796 162.832 24.2073C162.832 21.2367 160.409 21.1157 158.173 21.1157H155.604V27.4859Z" fill="#1C105A"/>
<path d="M0.00390625 0.00219536V0.0086174L19.5313 19.6055L39.0605 0.00495148V0.00219536H0.00390625Z" fill="#1C105A"/>
</svg>
