<svg width="20" height="20" viewBox="0 0 20 20" fill="none" xmlns="http://www.w3.org/2000/svg">
<g clip-path="url(#clip0_4682_10916)">
<path d="M9.422 0.078125C8.99622 0.191406 8.69153 0.367188 8.3595 0.703125C8.01966 1.03906 7.84778 1.33984 7.7345 1.78125C7.59388 2.32422 7.65638 2.875 7.9181 3.39844C8.00013 3.55859 8.07044 3.70312 8.07825 3.71875C8.08607 3.73828 8.047 3.76562 7.98841 3.78906C7.78138 3.86719 7.3595 4.17578 7.12122 4.41797C6.75403 4.80078 6.5431 5.17188 6.37903 5.72266C6.33607 5.86328 6.31263 6.17969 6.30091 6.82031C6.28138 7.67969 6.28528 7.73047 6.36341 7.88281C6.4181 7.99219 6.50013 8.07422 6.60169 8.125C6.74622 8.19922 6.82825 8.20312 8.08607 8.20312H9.41419V9.66016V11.1133L9.21107 11.207C8.95716 11.3242 8.56263 11.7109 8.44153 11.9648C8.19153 12.4805 8.18372 13.0547 8.41419 13.5195C8.48841 13.6719 8.59778 13.5195 7.38685 14.9336L6.43372 16.043L6.23841 15.8984C6.13294 15.8164 5.94935 15.7031 5.83216 15.6445C5.71888 15.5859 5.62903 15.5234 5.63294 15.5117C5.64075 15.5 5.71107 15.3555 5.7931 15.1953C6.13685 14.5039 6.13294 13.7188 5.77357 13.0352C5.6095 12.7188 5.13294 12.2422 4.81653 12.0781C4.50403 11.9141 4.0431 11.7969 3.71107 11.7969C3.37903 11.7969 2.9181 11.9141 2.6056 12.0781C2.28919 12.2422 1.81263 12.7188 1.64857 13.0352C1.28919 13.7188 1.28529 14.5039 1.62904 15.1953C1.71107 15.3555 1.78138 15.5 1.78919 15.5156C1.797 15.5352 1.75794 15.5625 1.69935 15.5859C1.49232 15.6641 1.07044 15.9727 0.83216 16.2148C0.464973 16.5977 0.254035 16.9688 0.0899726 17.5195C0.0470039 17.6602 0.0235664 17.9766 0.0118476 18.6172C-0.00768364 19.4766 -0.00377739 19.5273 0.0743476 19.6797C0.129035 19.7891 0.211066 19.8711 0.312629 19.9219C0.461066 20 0.535285 20 3.71107 20C6.88685 20 6.96107 20 7.1095 19.9219C7.39075 19.7773 7.422 19.6602 7.422 18.75C7.422 17.9219 7.37513 17.5547 7.22278 17.1992C7.15638 17.0469 7.15247 17.0117 7.19935 16.957C7.2306 16.9219 7.7306 16.3398 8.31263 15.6602L9.37122 14.4219L9.59778 14.4766C9.72278 14.5078 9.90247 14.5312 10.0001 14.5312C10.0978 14.5312 10.2775 14.5078 10.4025 14.4766L10.629 14.4219L11.6876 15.6602C12.2697 16.3398 12.7697 16.9219 12.8009 16.957C12.8478 17.0117 12.8439 17.0469 12.7775 17.1992C12.6251 17.5547 12.5783 17.9219 12.5783 18.75C12.5783 19.6602 12.6095 19.7773 12.8908 19.9219C13.0392 20 13.1134 20 16.2892 20C19.465 20 19.5392 20 19.6876 19.9219C19.7892 19.8711 19.8712 19.7891 19.9259 19.6797C20.004 19.5273 20.0079 19.4766 19.9884 18.6172C19.9767 17.9766 19.9533 17.6602 19.9103 17.5195C19.6408 16.6133 19.1525 16.0391 18.215 15.5273C18.2072 15.5234 18.2736 15.3828 18.3595 15.2109C18.7189 14.5078 18.715 13.7266 18.3517 13.0352C18.1876 12.7188 17.7111 12.2422 17.3947 12.0781C17.0822 11.9141 16.6212 11.7969 16.2892 11.7969C15.9572 11.7969 15.4962 11.9141 15.1837 12.0781C14.8673 12.2422 14.3908 12.7188 14.2267 13.0352C13.8673 13.7188 13.8634 14.5039 14.2072 15.1953C14.2892 15.3555 14.3595 15.5 14.3673 15.5117C14.3751 15.5273 14.297 15.5781 14.1993 15.625C14.1017 15.6719 13.9181 15.7852 13.7931 15.8789L13.5665 16.0469L12.6134 14.9336C11.4025 13.5195 11.5118 13.6719 11.5861 13.5195C11.8204 13.0508 11.8087 12.4805 11.5587 11.9648C11.4298 11.707 11.0431 11.3242 10.7931 11.207L10.5861 11.1133V9.66016V8.20312H11.9142C13.172 8.20312 13.254 8.19922 13.3986 8.125C13.5001 8.07422 13.5822 7.99219 13.6368 7.88281C13.715 7.73047 13.7189 7.67969 13.6993 6.82031C13.6876 6.17969 13.6642 5.86328 13.6212 5.72266C13.3517 4.81641 12.8634 4.24219 11.9259 3.73047C11.9181 3.72656 11.9845 3.58594 12.0704 3.41406C12.4298 2.71094 12.4259 1.92969 12.0626 1.23828C11.8986 0.921875 11.422 0.445312 11.1056 0.28125C10.59 0.0117188 9.96888 -0.0625 9.422 0.078125ZM10.5236 1.30469C10.9337 1.50391 11.1525 1.86719 11.1525 2.34375C11.1525 2.67578 11.0704 2.89844 10.8634 3.13672C10.5431 3.49609 9.93763 3.60938 9.4845 3.38672C8.8595 3.07812 8.64466 2.30078 9.02357 1.70703C9.33607 1.21484 9.9845 1.04297 10.5236 1.30469ZM11.1408 4.73047C11.4806 4.80078 11.7579 4.95703 12.0118 5.21094C12.3986 5.59766 12.5392 5.98828 12.5392 6.66016V7.03125H10.0001H7.46107V6.66016C7.46107 5.98047 7.60169 5.59375 7.98841 5.21484C8.23841 4.96484 8.4845 4.82422 8.80872 4.74219C9.06263 4.67969 10.8517 4.67188 11.1408 4.73047ZM10.2736 12.2656C10.4493 12.3555 10.5861 12.5781 10.5861 12.7773C10.5861 13.0625 10.2892 13.3594 10.0001 13.3594C9.80482 13.3594 9.58216 13.2227 9.49232 13.0469C9.39466 12.8516 9.39466 12.6953 9.49232 12.5C9.63685 12.2148 9.97669 12.1133 10.2736 12.2656ZM4.2345 13.1016C4.64466 13.3008 4.86341 13.6641 4.86341 14.1406C4.86341 14.6211 4.64466 14.9766 4.22669 15.1836C4.0431 15.2734 3.95325 15.293 3.71107 15.293C3.46888 15.293 3.37903 15.2734 3.19544 15.1836C2.57044 14.875 2.3556 14.0977 2.7345 13.5039C3.047 13.0117 3.69544 12.8398 4.2345 13.1016ZM16.8126 13.1016C17.2228 13.3008 17.4415 13.6641 17.4415 14.1406C17.4415 14.6211 17.2228 14.9766 16.8048 15.1836C16.6212 15.2734 16.5314 15.293 16.2892 15.293C16.047 15.293 15.9572 15.2734 15.7736 15.1836C15.1486 14.875 14.9337 14.0977 15.3126 13.5039C15.6251 13.0117 16.2736 12.8398 16.8126 13.1016ZM4.85169 16.5273C5.19153 16.5977 5.46888 16.7539 5.72278 17.0078C6.1095 17.3945 6.25013 17.7852 6.25013 18.457V18.8281H3.71107H1.172V18.457C1.172 17.7773 1.31263 17.3906 1.69935 17.0117C1.94935 16.7617 2.19544 16.6211 2.51966 16.5391C2.77357 16.4766 4.56263 16.4688 4.85169 16.5273ZM17.4298 16.5273C17.7697 16.5977 18.047 16.7539 18.3009 17.0078C18.6876 17.3945 18.8283 17.7852 18.8283 18.457V18.8281H16.2892H13.7501V18.457C13.7501 17.7773 13.8908 17.3906 14.2775 17.0117C14.5275 16.7617 14.7736 16.6211 15.0978 16.5391C15.3517 16.4766 17.1408 16.4688 17.4298 16.5273Z" fill="#7356C0"/>
</g>
<defs>
<clipPath id="clip0_4682_10916">
<rect width="20" height="20" fill="white"/>
</clipPath>
</defs>
</svg>
