<svg width="67" height="15" viewBox="0 0 67 15" fill="none" xmlns="http://www.w3.org/2000/svg">
<path d="M2.06472 14.889C1.47033 14.889 0.975008 14.7008 0.578748 14.3245C0.192916 13.9377 0 13.4464 0 12.8506C0 12.2548 0.192916 11.7739 0.578748 11.4081C0.975008 11.0317 1.47033 10.8436 2.06472 10.8436C2.65911 10.8436 3.14922 11.0317 3.53505 11.4081C3.93131 11.7739 4.12944 12.2548 4.12944 12.8506C4.12944 13.4464 3.93131 13.9377 3.53505 14.3245C3.14922 14.7008 2.65911 14.889 2.06472 14.889Z" fill="#3F2B89"/>
<path d="M7.41215 14.7704L2.25035 0H5.37871L10.5405 14.7704H7.41215Z" fill="#3F2B89"/>
<path d="M13.0487 14.7704L7.88691 0H11.0153L16.1771 14.7704H13.0487Z" fill="#3F2B89"/>
<path d="M25.6947 6.29536V14.7311H23.3797V13.7276C23.0565 14.0935 22.6706 14.3757 22.2222 14.5743C21.7738 14.7625 21.2889 14.8566 20.7675 14.8566C19.6622 14.8566 18.7862 14.5377 18.1397 13.9001C17.4932 13.2624 17.1699 12.3164 17.1699 11.062V6.29536H19.61V10.7014C19.61 12.0603 20.1784 12.7398 21.315 12.7398C21.899 12.7398 22.3682 12.5516 22.7228 12.1753C23.0773 11.7885 23.2546 11.2188 23.2546 10.4662V6.29536H25.6947Z" fill="#3F2B89"/>
<path d="M30.286 7.40863C30.5779 7.00095 30.969 6.69258 31.4591 6.48352C31.9596 6.27445 32.5332 6.16992 33.1797 6.16992V8.42782C32.9086 8.40692 32.7261 8.39646 32.6322 8.39646C31.9336 8.39646 31.3861 8.59507 30.9898 8.9923C30.5936 9.37907 30.3955 9.96445 30.3955 10.7484V14.7311H27.9553V6.29536H30.286V7.40863Z" fill="#3F2B89"/>
<path d="M45.4078 6.16992C46.461 6.16992 47.2953 6.48352 47.9105 7.11071C48.5362 7.72745 48.849 8.65779 48.849 9.90173V14.7311H46.4089V10.278C46.4089 9.60904 46.2681 9.11251 45.9866 8.78846C45.7155 8.45395 45.3244 8.2867 44.8134 8.2867C44.2399 8.2867 43.7863 8.47486 43.4526 8.85118C43.1189 9.21704 42.9521 9.76584 42.9521 10.4976V14.7311H40.5119V10.278C40.5119 8.95048 39.9801 8.2867 38.9165 8.2867C38.3534 8.2867 37.905 8.47486 37.5713 8.85118C37.2376 9.21704 37.0707 9.76584 37.0707 10.4976V14.7311H34.6306V6.29536H36.9612V7.26751C37.2741 6.9121 37.6547 6.64032 38.1031 6.45216C38.5619 6.264 39.0625 6.16992 39.6047 6.16992C40.1991 6.16992 40.7361 6.29013 41.2158 6.53056C41.6955 6.76053 42.0813 7.10026 42.3733 7.54975C42.7174 7.11071 43.1502 6.77098 43.6716 6.53056C44.2034 6.29013 44.7822 6.16992 45.4078 6.16992Z" fill="#3F2B89"/>
<path d="M59.5141 6.29536V14.7311H57.1991V13.7276C56.8758 14.0935 56.49 14.3757 56.0416 14.5743C55.5932 14.7625 55.1083 14.8566 54.5869 14.8566C53.4815 14.8566 52.6056 14.5377 51.9591 13.9001C51.3125 13.2624 50.9893 12.3164 50.9893 11.062V6.29536H53.4294V10.7014C53.4294 12.0603 53.9977 12.7398 55.1344 12.7398C55.7183 12.7398 56.1876 12.5516 56.5421 12.1753C56.8967 11.7885 57.0739 11.2188 57.0739 10.4662V6.29536H59.5141Z" fill="#3F2B89"/>
<path d="M64.1053 7.40863C64.3973 7.00095 64.7883 6.69258 65.2785 6.48352C65.779 6.27445 66.3525 6.16992 66.9991 6.16992V8.42782C66.7279 8.40692 66.5454 8.39646 66.4516 8.39646C65.7529 8.39646 65.2055 8.59507 64.8092 8.9923C64.4129 9.37907 64.2148 9.96445 64.2148 10.7484V14.7311H61.7747V6.29536H64.1053V7.40863Z" fill="#3F2B89"/>
</svg>
