<svg width="168" height="48" viewBox="0 0 168 48" fill="none" xmlns="http://www.w3.org/2000/svg">
<path d="M88.8989 12.7876C88.6671 13.0685 88.536 13.3822 88.536 13.9276V28.9244H88.4529C88.4529 28.9244 80.2447 14.2905 79.8479 13.614C79.567 13.1341 79.2534 12.804 78.8402 12.5559C78.427 12.3253 77.9975 12.1767 77.1723 12.1767H74.464C73.8354 12.1767 73.4398 12.3909 73.1589 12.7221C72.9272 13.0018 72.7949 13.3167 72.7949 13.8609V35.1183C72.7949 35.6637 72.9272 35.9774 73.1589 36.2583C73.4398 36.5884 73.8354 36.8026 74.464 36.8026H75.9996C76.6269 36.8026 77.0237 36.5884 77.3046 36.2583C77.5352 35.9774 77.6674 35.6637 77.6674 35.1183V19.7576H77.7505C77.7505 19.7576 86.2724 34.8538 86.6201 35.4156C87.0988 36.208 87.9075 36.8026 89.0639 36.8026H91.6904C92.3177 36.8026 92.7145 36.5884 92.9954 36.2583C93.226 35.9774 93.3582 35.6637 93.3582 35.1183V15.942H127.861C128.209 15.942 128.472 15.8436 128.671 15.6786C128.885 15.4796 128.985 15.2151 128.985 14.8195V13.3658C128.985 12.9691 128.885 12.7045 128.671 12.5067C128.472 12.3417 128.209 12.2422 127.861 12.2422H90.2039C89.5766 12.2422 89.1798 12.4576 88.8989 12.7876ZM103.962 18.4689C98.2307 18.4689 95.0097 22.9458 95.0097 27.6697C95.0097 32.7072 98.4625 37.1338 103.995 37.1338C106.754 37.1338 109.462 36.0933 111.014 34.2592C111.692 33.4668 112.237 32.3596 112.237 31.6831C112.237 31.4513 112.187 31.2535 112.056 31.1049C111.924 30.9399 111.725 30.8404 111.378 30.8404H108.719C108.19 30.8404 107.827 31.0382 107.563 31.435C106.787 32.575 105.663 33.1695 104.011 33.1695C101.534 33.1695 99.9325 31.2863 99.8167 29.2217H111.313C111.824 29.2217 112.187 29.1058 112.435 28.8588C112.716 28.5943 112.848 28.2139 112.848 27.5035C112.848 25.3405 112.171 23.0945 110.751 21.3763C109.297 19.6417 107.084 18.4689 103.962 18.4689ZM121.684 18.4689C117.159 18.4689 114.186 20.6167 114.186 24.0519C114.186 25.2738 114.632 26.2652 115.359 27.0412C116.202 27.9506 117.407 28.5779 119.158 29.0239L122.94 29.9813C123.98 30.2458 124.905 30.5595 124.905 31.4677C124.905 32.8722 123.418 33.351 121.834 33.351C121.056 33.351 120.248 33.2023 119.586 32.8722C119.124 32.6405 118.728 32.3104 118.448 31.8645C118.199 31.4841 118.118 31.2032 117.737 30.989C117.505 30.8568 117.224 30.8404 116.845 30.8404H114.797C114.351 30.8404 114.137 30.9726 113.988 31.1541C113.84 31.3355 113.789 31.6 113.789 31.8645C113.789 32.5246 114.021 33.351 114.566 34.0942C115.821 35.7784 118.448 37.1338 121.8 37.1338C125.104 37.1338 129.679 35.762 129.679 31.3355C129.679 30.1966 129.348 29.2217 128.737 28.4293C127.961 27.4215 126.855 26.7275 124.972 26.2488L121.223 25.2902C119.67 24.8946 118.943 24.6137 118.943 23.6551C118.943 22.7305 119.769 21.9872 121.684 21.9872C122.807 21.9872 123.832 22.2354 124.493 22.9294C125.037 23.5076 124.939 23.8049 125.368 24.0355C125.632 24.1677 125.929 24.1677 126.392 24.1677H128.258C128.555 24.1677 128.771 24.1186 128.935 23.936C129.068 23.7874 129.15 23.5568 129.15 23.1764C129.15 22.3173 128.588 21.2112 127.598 20.3685C126.277 19.2285 124.196 18.4689 121.684 18.4689ZM131.974 19.0974H131.05C130.703 19.0974 130.439 19.1958 130.241 19.3608C130.025 19.5598 129.926 19.8243 129.926 20.2199V21.3599C129.926 21.7567 130.025 22.02 130.241 22.219C130.439 22.384 130.703 22.4835 131.05 22.4835H131.974V30.7245C131.974 32.8383 132.552 34.1597 133.626 35.2178C134.617 36.1916 135.906 36.8026 138.152 36.8026H139.555C139.903 36.8026 140.166 36.7042 140.365 36.5392C140.579 36.3402 140.712 36.0757 140.712 35.6801V34.2428C140.712 33.846 140.579 33.5827 140.365 33.3837C140.166 33.2187 139.903 33.1192 139.555 33.1192H139.357C138.465 33.1192 137.855 32.8886 137.441 32.4919C136.946 32.0295 136.698 31.3191 136.698 30.3944V22.4835H139.705C140.051 22.4835 140.316 22.384 140.514 22.219C140.728 22.02 140.827 21.7567 140.827 21.3599V20.2199C140.827 19.8243 140.728 19.5598 140.514 19.3608C140.316 19.1958 140.051 19.0974 139.705 19.0974H136.715V13.7123C136.715 13.2827 136.582 12.9691 136.384 12.7221C136.136 12.4248 135.79 12.2422 135.278 12.2422H133.412C132.899 12.2422 132.552 12.4248 132.304 12.7221C132.107 12.9691 131.974 13.2827 131.974 13.7123V19.0974ZM142.083 35.3325C142.083 35.762 142.214 36.0757 142.413 36.3238C142.66 36.6211 143.008 36.8026 143.519 36.8026H145.485C145.997 36.8026 146.344 36.6211 146.592 36.3238C146.79 36.0757 146.922 35.762 146.922 35.3325V13.7135C146.922 13.2839 146.79 12.9702 146.592 12.7221C146.344 12.4248 145.997 12.2422 145.485 12.2422H143.519C143.008 12.2422 142.66 12.4248 142.413 12.7221C142.214 12.9702 142.083 13.2839 142.083 13.7135V35.3325ZM99.8494 25.7034C100.064 23.6715 101.617 22.1523 103.979 22.1523C106.291 22.1523 107.893 23.6715 108.108 25.7034H99.8494ZM164.81 15.942C165.156 15.942 165.421 15.8436 165.618 15.6786C165.834 15.4796 165.933 15.2151 165.933 14.8195V13.2827C165.933 12.6882 165.817 12.3909 165.618 12.1767C165.437 11.9777 165.14 11.863 164.81 11.863C164.545 11.863 164.282 11.8958 163.836 11.9449L150.654 13.25C150.275 13.2827 150.094 13.3986 149.961 13.5473C149.813 13.7123 149.746 13.9276 149.746 14.2249V15.0829C149.746 15.4141 149.813 15.5627 149.929 15.695C150.076 15.86 150.292 15.942 150.589 15.942H164.81ZM157.526 18.4689C151.794 18.4689 148.573 22.9458 148.573 27.6697C148.573 32.7072 152.026 37.1338 157.559 37.1338C160.317 37.1338 163.026 36.0933 164.578 34.2592C165.255 33.4668 165.801 32.3596 165.801 31.6831C165.801 31.4513 165.751 31.2535 165.618 31.1049C165.487 30.9399 165.288 30.8404 164.942 30.8404H162.283C161.754 30.8404 161.391 31.0382 161.126 31.435C160.35 32.575 159.227 33.1695 157.575 33.1695C155.097 33.1695 153.495 31.2863 153.38 29.2217H164.909C165.421 29.2217 165.785 29.1058 166.031 28.8588C166.312 28.5943 166.445 28.2139 166.445 27.5035C166.445 25.3405 165.767 23.0945 164.347 21.3763C162.894 19.6417 160.647 18.4689 157.526 18.4689ZM153.413 25.7034C153.628 23.6715 155.18 22.1523 157.542 22.1523C159.855 22.1523 161.456 23.6715 161.672 25.7034H153.413Z" fill="#1C105A"/>
<path d="M54.1665 16.1402C49.8909 9.7625 46.1338 7.61359 45.0769 6.60233C43.9158 5.48691 43.031 4.22285 42.468 3.61423C41.2157 2.24599 39.5946 0.557056 36.9284 0.557056C34.3546 0.557056 32.6539 2.23429 32.1015 3.68328C31.9412 4.09644 31.8147 4.60207 31.7 4.78583C31.4472 5.20016 30.3096 7.1419 29.8379 7.91204H31.9646L30.9299 9.86549C32.1366 9.60098 32.9981 9.40552 34.1474 9.40552C35.1704 9.40552 35.9054 9.6478 36.2273 10.2904C36.8254 11.4865 36.8254 15.1055 37.8366 17.8303C38.7788 20.3912 41.0775 22.8971 43.663 24.8166C43.697 24.8388 43.7321 24.8505 43.7777 24.8505C43.9041 24.8505 43.9849 24.7592 43.9849 24.6668C43.9849 24.5977 43.9615 24.5521 43.9041 24.4947C41.7435 22.3341 39.9855 19.9441 39.0433 17.3247C38.1117 14.7731 38.2615 11.1869 37.4457 9.58927C36.905 8.53237 35.7568 8.25732 34.6987 8.25732C33.849 8.25732 33.0554 8.42938 32.6879 8.50897L33.6184 6.93474H32.0442C32.3777 6.34952 32.7218 5.80878 32.8951 5.48692C33.0437 5.21069 33.1022 4.86659 33.286 4.39607C33.8829 2.88973 35.2043 1.93583 36.9284 1.93583C39.089 1.93583 40.353 3.3263 41.6054 4.71677C42.1801 5.36051 43.1223 6.70533 44.2143 7.70488C44.961 8.39426 46.3866 9.16441 48.5812 11.4292C49.8452 12.7389 51.3165 14.4395 52.8673 16.7149C58.4186 24.8388 62.061 31.9983 64.0952 37.5836L64.0613 37.6071C58.2349 33.6533 53.1892 29.9185 49.1219 25.3105C46.2368 22.0356 43.7321 18.2434 41.5481 13.4049C41.3982 13.083 41.273 12.7845 41.1349 12.4744C41.0775 12.348 41.0202 12.3129 40.9277 12.3129C40.813 12.3129 40.7323 12.3936 40.7323 12.5083C40.7323 12.6347 40.7896 12.911 40.916 13.4622C42.0771 18.4728 45.2946 22.9661 48.731 26.701C52.1557 30.4136 56.0275 33.6077 59.211 35.9298L61.6935 43.0308C61.7509 43.2041 61.8199 43.3878 61.8199 43.5599C61.8199 43.6863 61.7848 43.7893 61.7052 43.8583C61.6362 43.9274 61.5449 43.9625 61.3377 43.9625H60.591C60.2691 43.9625 60.1415 43.9157 60.0268 43.8244C59.9121 43.7319 59.8325 43.5938 59.774 43.4335C59.5563 42.7663 58.2454 39.0315 57.9938 38.273C57.947 38.1361 57.8662 38.0893 57.7749 38.0893C57.6602 38.0893 57.5794 38.1817 57.5794 38.2847C57.5794 38.3772 57.6134 38.4802 57.6719 38.8021C58.0043 40.5027 58.3952 42.4105 58.5556 43.135C58.6258 43.4674 58.7054 43.7787 58.7054 44.0081C58.7054 44.2141 58.6598 44.33 58.4877 44.5021L57.7176 45.2839C57.5338 45.4677 57.4296 45.5133 57.281 45.5133C57.0972 45.5133 56.9474 45.3869 56.8784 45.065C56.0052 40.9849 54.6838 35.9298 54.3385 34.5265C54.2578 34.2175 54.2004 34.0443 54.0167 34.0443C53.8563 34.0443 53.799 34.159 53.799 34.2971C53.799 34.4001 53.8212 34.5265 53.8329 34.6189C54.0401 36.0668 54.8793 41.3419 55.7863 46.1571C55.9479 46.9845 56.258 47.4434 56.9708 47.4434C57.2927 47.4434 57.6017 47.317 57.8896 47.0419C58.3613 46.5702 58.4982 46.4438 59.0624 45.8925C59.4638 45.5016 59.7401 45.3413 60.4294 45.3413H62.1301C62.5327 45.3413 62.7504 45.2383 62.9459 45.0533C63.1296 44.8813 63.2443 44.6402 63.2443 44.2949C63.2443 43.9391 63.153 43.6523 63.0266 43.2954C62.5901 42.1237 61.1879 38.1583 60.7736 37.0441L60.8087 37.0207C62.2448 38.1127 64.3363 39.5032 65.2563 39.5032C65.5431 39.5032 65.7163 39.3767 65.7163 38.9285C65.7163 36.8147 62.1991 28.1149 54.1665 16.1402Z" fill="#1C105A"/>
<path d="M14.7153 2.7868C14.9565 2.25776 15.4855 1.89025 16.1175 1.89025C16.979 1.89025 17.6683 2.55739 17.6683 3.44224C17.6683 3.9584 17.4272 4.40784 17.048 4.6829C17.1288 4.98253 17.1861 5.24587 17.1861 5.49869C17.1861 6.46429 16.6114 7.14197 15.5545 7.49895C15.4164 8.08417 15.1636 8.6132 14.7493 9.00413C14.0599 9.6701 13.3588 9.6701 13.3588 9.94632C13.3588 10.0961 13.463 10.1874 13.7497 10.1874C15.0255 10.1874 16.2779 9.47581 16.4277 8.29134C17.6461 7.87817 18.3811 6.64805 18.3811 5.67191C18.3811 5.41793 18.3577 5.20023 18.2547 4.99423C18.5883 4.67119 18.9792 4.11992 18.9792 3.30413C18.9792 2.59134 18.6679 1.86801 18.1166 1.33897C17.6344 0.86729 16.9555 0.557127 16.1632 0.557127C15.0138 0.557127 14.2671 1.17863 13.8422 1.78725C12.5887 1.78725 10.9688 3.17772 10.9688 5.16628H10.7967C10.6809 4.4769 9.96925 4.01575 9.37116 3.98181C8.88894 2.53398 7.79693 1.29333 6.00383 1.29333C5.79783 1.29333 5.54502 1.30503 5.32615 1.33897C4.79828 0.855585 4.2119 0.557127 3.39611 0.557127C1.83241 0.557127 0.556641 1.81066 0.556641 3.39542C0.556641 4.38444 1.00492 5.06212 1.85582 5.66021C1.85582 5.66021 1.84412 5.78661 1.84412 5.84396C1.84412 7.10803 3.22288 9.08489 5.2688 9.08489C5.2688 9.40559 5.67142 9.84333 6.1197 9.92292V10.0844H5.94648C3.13159 10.0844 1.93658 11.441 1.93658 12.348C1.09738 12.6933 0.556641 13.6238 0.556641 14.4853C0.556641 16.1976 1.81017 17.416 3.46516 17.416C4.01643 17.416 4.57941 17.1983 4.97034 16.8987C5.25709 17.0017 5.62461 17.059 6.00383 17.059C6.79738 17.059 7.68222 16.784 8.30255 15.8757C8.39502 15.8874 8.47461 15.8874 8.56707 15.8874C9.57832 15.8874 10.4515 15.2203 10.9114 14.3471C11.0261 14.1294 11.0718 13.9574 11.0718 13.8298C11.0718 13.7046 11.0144 13.6004 10.888 13.6004C10.7277 13.6004 10.7043 13.7502 10.4175 14.0147C9.77378 14.6011 8.78477 14.8188 7.77352 14.8188C7.2796 15.5433 6.67097 15.9225 5.96988 15.9225C5.45255 15.9225 5.0511 15.7844 4.63676 15.5082C4.30319 15.8757 3.89003 16.0255 3.4874 16.0255C2.58032 16.0255 1.93658 15.3935 1.93658 14.4736C1.93658 13.8298 2.34974 13.2563 2.92442 13.0374C3.02742 11.8998 4.24584 11.1296 5.76272 11.1296C5.95818 11.1296 6.15364 11.1413 6.36081 11.1647C6.59021 10.7972 7.14149 10.4063 7.92333 10.3021C8.08485 10.2799 8.21009 10.2682 8.30255 10.2225C8.39502 10.1757 8.44066 10.0844 8.44066 9.98027C8.44066 9.88897 8.40555 9.80821 8.31426 9.75086C8.2335 9.70522 8.09539 9.68298 7.93504 9.64786C7.21054 9.50975 6.3491 9.06148 5.91253 7.96947C4.17678 7.96947 2.90101 6.57899 2.90101 5.01647V4.91347C2.32633 4.6829 1.93658 4.13162 1.93658 3.47618C1.93658 2.61474 2.61426 1.92536 3.4757 1.92536C3.99303 1.92536 4.4413 2.17817 4.72923 2.55739C4.97034 2.48834 5.24539 2.46493 5.50991 2.46493C6.79738 2.46493 8.17615 3.28072 8.44066 4.86665C10.0957 5.01647 10.4866 6.41864 10.5896 7.00503C10.6469 7.30349 10.6926 7.5563 10.888 7.5563C11.0952 7.5563 11.1408 7.32573 11.2099 7.01556C11.3363 6.43035 11.5552 5.95867 11.9918 5.59115C11.9918 4.08481 13.1177 2.7868 14.7153 2.7868Z" fill="#1C105A"/>
<path d="M18.0589 11.7959C17.5182 12.5661 17.1285 12.9453 15.8983 14.3931C14.2785 16.3126 13.4276 17.8646 12.0137 21.3115C12.2442 21.2881 12.5778 21.2659 12.9453 21.2659C13.1291 21.2659 13.2777 21.2659 13.52 21.2764L13.6921 20.9089C14.4856 19.2083 15.5531 16.9095 17.0477 15.1398L17.565 14.5312C19.1041 12.7276 20.058 11.6578 20.6561 9.19873C20.8633 8.32559 21.0354 7.54491 21.6217 6.98076C22.1496 6.47514 22.8168 6.25744 23.4944 6.25744C24.0691 6.25744 24.4951 6.39555 25.1155 6.65889C25.6785 6.9 25.8845 6.94682 26.4825 6.94682C26.6897 6.94682 26.8384 6.93512 26.9765 6.92341L26.1724 8.00372L27.2644 8.77386C25.8962 9.17532 25.1728 10.4979 24.9305 11.1065C24.8849 11.2329 24.8627 11.3137 24.8627 11.3945C24.8627 11.4869 24.9083 11.5782 25.0464 11.5782C25.1951 11.5782 25.3098 11.4635 25.5052 11.2329C26.1724 10.4289 26.7014 9.87641 29.1593 9.10744L27.4247 7.79655L28.7345 5.87822H27.5055C26.7237 5.87822 26.2063 5.86651 25.5286 5.55635C24.6087 5.13148 24.1382 4.94772 23.3224 4.94772C22.3228 4.94772 21.4146 5.30354 20.6678 5.99292C19.8052 6.7853 19.5407 7.84337 19.2317 9.00444C18.9894 9.89982 18.7027 10.8888 18.0589 11.7959Z" fill="#1C105A"/>
<path d="M20.7023 19.6214C20.0469 20.5063 19.1503 21.6662 18.4609 22.8963C18.6798 23.0005 19.4043 23.3914 19.6571 23.5283C20.4495 22.3333 21.5532 20.8632 22.2765 19.7478C22.932 18.7366 23.1965 18.3 23.2421 16.9435C23.2539 16.7141 23.2539 16.4952 23.2761 16.2775C23.3334 15.5764 23.5184 14.8636 24.1843 14.2093C24.6783 13.7143 25.3911 13.4626 26.1039 13.4626C26.7932 13.4626 27.1947 13.6569 27.7928 13.6569C28.2177 13.6569 28.5278 13.5539 28.804 13.4509L29.0229 13.3701L28.4939 14.6354L29.7345 15.1398C28.9421 15.6338 27.2064 17.7604 27.2064 20.2769C27.2064 21.1851 27.3445 22.0231 27.54 22.7699C27.5634 22.8506 27.609 22.9314 27.7354 22.9314C27.8501 22.9314 27.9309 22.8623 27.9426 22.7359L27.9543 22.4714C27.9882 21.7013 28.0456 20.484 28.3558 19.392C28.8731 17.5533 30.2636 15.8292 31.654 15.0017L29.6772 14.1403L30.5281 12.0604L29.5976 12.2559C29.0346 12.3706 28.6203 12.4736 28.1264 12.4736C27.8045 12.4736 27.437 12.428 27.0004 12.3238C26.6668 12.2442 26.3098 12.1751 25.8054 12.1751C24.8971 12.1751 23.9198 12.5192 23.2539 13.163C22.0354 14.324 21.9664 15.5764 21.8856 16.6918C21.7826 18.1736 21.5064 18.5411 20.7023 19.6214Z" fill="#1C105A"/>
<path d="M50.1905 20.3223C50.1097 20.2193 50.0406 20.1725 49.9494 20.1725C49.8112 20.1725 49.7422 20.2649 49.7422 20.3679C49.7422 20.5294 49.8569 20.7249 50.1448 21.2083C51.018 22.69 52.0983 24.1835 53.4314 25.5869C54.8675 27.1143 56.5564 28.5387 58.3612 29.8145L58.9242 30.2054C59.005 30.2639 59.0623 30.2979 59.1314 30.2979C59.2461 30.2979 59.3268 30.1831 59.3268 30.0907C59.3268 30.0333 59.3034 29.9748 59.2344 29.9175C57.5572 28.39 55.7524 26.5279 54.0634 24.736C52.7408 23.3221 51.3855 21.8286 50.1905 20.3223Z" fill="#1C105A"/>
<path d="M13.2105 15.1172C13.3825 14.8304 13.8999 14.1293 14.107 13.9105C13.2222 12.1185 11.7743 10.4062 11.1423 9.72735L10.6133 10.2447C11.2231 11.1295 12.2449 12.8419 13.2105 15.1172Z" fill="#1C105A"/>
<path d="M4.78656 4.74038C4.68239 4.64791 4.66016 4.59056 4.66016 4.52151C4.66016 4.44192 4.71751 4.34945 4.84391 4.34945C4.88956 4.34945 4.93521 4.36116 4.99373 4.38457C5.84346 4.72867 6.56796 5.1313 7.2117 5.62522C7.75127 6.03838 8.2803 6.54518 8.79646 7.15381L8.31424 7.70508C7.71732 7.20999 5.78611 5.59128 4.78656 4.74038Z" fill="#1C105A"/>
<path d="M12.9348 8.58984L12.3145 8.21062C12.7159 7.25672 13.211 6.38358 13.7962 5.72814C14.2106 5.25763 14.6015 4.87724 15.038 4.49919C15.141 4.41843 15.1984 4.34937 15.3014 4.34937C15.4173 4.34937 15.498 4.44184 15.498 4.53313C15.498 4.57878 15.4746 4.63613 15.429 4.70518C14.7279 5.79719 13.3596 7.95781 12.9348 8.58984Z" fill="#1C105A"/>
<path d="M5.14354 13.9222C4.99373 13.9795 4.92467 14.0146 4.84508 14.0146C4.71868 14.0146 4.66016 13.9105 4.66016 13.8297C4.66016 13.7501 4.69527 13.7045 4.77603 13.6343C6.18874 12.5317 7.43057 12.0951 9.14291 11.8072L9.3489 12.4978L5.14354 13.9222Z" fill="#1C105A"/>
<path d="M34.6191 5.00497C34.6191 4.60234 34.8263 3.87784 35.573 3.87784C35.8259 3.87784 36.067 3.93519 36.2624 4.02766C36.5386 4.15406 36.7224 4.33782 36.7224 4.53328C36.7224 4.74045 36.5152 4.94762 36.2051 5.20043C35.8832 5.46378 35.47 5.70605 35.1365 5.70605C34.735 5.70605 34.6191 5.32566 34.6191 5.00497Z" fill="#1C105A"/>
<path d="M22.9551 8.35992C22.9551 7.866 23.2535 7.32526 23.8282 7.32526C24.081 7.32526 24.3795 7.42825 24.5984 7.63659C24.7248 7.75129 24.7821 7.87653 24.7821 8.00411C24.7821 8.28033 24.5176 8.54368 24.2074 8.72743C23.9663 8.86554 23.7135 8.95801 23.4958 8.95801C23.1388 8.95801 22.9551 8.73797 22.9551 8.35992Z" fill="#1C105A"/>
<path d="M25.6562 15.4503C25.6562 15.3356 25.668 15.1975 25.7136 15.0594C25.8061 14.7609 26.0004 14.473 26.4837 14.473C26.7026 14.473 26.9426 14.5303 27.138 14.6696C27.3112 14.7843 27.3803 14.9329 27.3803 15.0828C27.3803 15.5767 26.5528 16.1514 26.1385 16.1514C25.84 16.1514 25.6562 15.8634 25.6562 15.4503Z" fill="#1C105A"/>
<path d="M21.1281 29.9531C19.5773 29.9531 18.8867 29.2181 18.8867 28.2876C18.8867 26.6548 21.7484 25.0584 24.3222 24.0694L24.9893 24.932C23.4034 25.5628 20.2093 26.9205 20.2093 28.0921C20.2093 28.5053 20.4504 28.8049 21.4148 28.8049C23.0932 28.8049 24.8981 27.988 26.5636 27.1722C26.69 27.1148 26.8398 27.0575 26.9779 27.0575C27.1956 27.0575 27.3337 27.1265 27.4941 27.3559L27.7703 27.7352C25.8285 28.8049 23.4034 29.9531 21.1281 29.9531Z" fill="#1C105A"/>
<path d="M25.4023 30.3906C23.8854 31.2403 22.3111 31.8044 20.9207 31.8044C19.3687 31.8044 17.9899 31.1373 16.8406 29.4015C16.3583 28.6665 15.9791 27.7477 15.5191 26.9319C14.9679 25.9663 14.3698 25.449 13.3246 25.449C12.3707 25.449 11.439 25.8399 10.4512 26.2648L10.4968 26.4837C10.5776 26.8395 10.7157 27.0923 11.0481 27.0923C11.1979 27.0923 11.3477 27.0244 11.4285 27.001C11.9798 26.8278 12.3812 26.678 12.9454 26.678C13.8068 26.678 14.22 27.1848 14.8063 28.4254L15.0252 28.8854C14.4271 29.0926 13.0249 29.1956 11.9798 29.1956H11.4858L11.5666 29.6895C11.6005 29.8966 11.6813 30.0687 11.8533 30.1495C12.0593 30.2525 12.359 30.2642 12.8763 30.2642C14.186 30.2642 15.1399 30.1038 15.6912 29.9645C17.1051 32.069 19.0468 32.873 20.9207 32.873C22.5171 32.873 24.1382 32.2867 25.6902 31.4369L25.4023 30.3906Z" fill="#1C105A"/>
<path d="M26.9645 30.9073L26.6895 29.8493C29.0561 28.5747 31.2167 27.5517 34.6648 27.2181C34.7338 28.5395 34.6414 30.2062 35.6187 30.2062C36.5141 30.2062 38.4675 27.8958 40.7206 25.0002C40.9277 25.1956 41.2601 25.4028 41.5598 25.6322L40.9851 26.3789C38.7894 29.2067 36.9167 31.6201 35.3764 31.6201C33.9403 31.6201 33.3995 29.93 33.3773 28.6659C31.1827 28.8848 29.1134 29.6198 26.9645 30.9073Z" fill="#1C105A"/>
<path d="M57.3729 7.8433C56.4763 7.8433 56.2235 7.34821 56.2235 6.64829C56.2235 5.20047 57.1317 3.12061 57.7064 1.93614H56.3148C55.5915 3.33831 52.7415 7.8316 51.2012 9.69375L52.086 10.6465C52.9135 9.7277 53.8218 8.16517 54.8096 6.62488H54.9934C54.9934 6.70564 54.9828 6.79694 54.9828 6.8777C54.9828 8.17687 55.6488 9.14131 57.2921 9.14131C58.3033 9.14131 59.8893 8.63568 61.3839 8.13006C62.6246 7.70519 63.7622 7.26862 64.3252 7.10827V5.7295C63.6815 5.92379 62.3718 6.42942 61.0152 6.9011C59.5908 7.39503 58.1886 7.8433 57.3729 7.8433Z" fill="#1C105A"/>
<path d="M60.4418 12.0139C61.8205 11.4287 64.2913 10.4397 65.7169 9.92234V8.52017C62.8552 9.57824 57.8329 11.6581 54.4082 13.5202C54.5007 13.6338 55.0988 14.473 55.1666 14.5771C56.6145 13.9791 57.9136 13.5881 59.0852 13.5881C60.7297 13.5881 62.0734 13.5881 64.3264 13.0591V12.0022C63.0624 12.2328 61.7175 12.5078 60.8444 12.5078C60.3271 12.5078 60.1773 12.4388 60.1773 12.2667C60.1773 12.1637 60.2463 12.0947 60.4418 12.0139Z" fill="#1C105A"/>
<path d="M30.9997 18.4722L30.4473 19.5303H36.3205L35.8839 18.4722H30.9997Z" fill="#1C105A"/>
<path d="M9.84167 24.7821C10.462 24.7821 10.9676 24.5749 11.451 24.3806C11.9098 24.1957 12.3698 24.0119 12.9901 24.0119C14.4614 24.0119 16.2767 24.7247 17.8743 25.4024C17.9668 25.4375 18.0698 25.4597 18.1728 25.4597C18.4268 25.4597 18.6222 25.345 18.7475 25.1039L18.9546 24.7247C17.1967 23.7018 14.3923 22.6097 12.9328 22.6097C12.2668 22.6097 11.7834 22.783 11.3246 22.9656C10.8073 23.1739 10.359 23.3916 9.88732 23.3916C8.72742 23.3916 5.75101 22.2422 5.75101 21.128C5.75101 19.8183 10.4854 19.3126 11.0027 19.3126L11.4733 18.2429C8.03804 18.2429 3.94621 19.4496 3.94621 21.0472C3.94621 21.5072 4.21073 21.7366 4.21073 22.1615C4.21073 22.7362 3.94621 23.1271 3.94621 23.7708C3.94621 24.1957 4.19902 24.7364 4.49748 25.2081C4.81935 25.702 5.19857 26.0227 5.19857 26.4371C5.19857 26.7472 4.99257 27.1147 4.99257 27.8392C4.99257 29.3901 5.87742 30.3334 7.6003 32.1827L7.94557 32.5502C6.52116 33.1027 3.86545 34.252 3.24512 34.5154C1.09621 35.4119 0.556641 36.5039 0.556641 38.228C0.556641 38.894 0.556641 39.6524 0.602287 40.3301H1.01545C1.87806 40.3301 1.98106 39.8139 1.98106 39.32C1.98106 38.9864 1.96935 38.6072 1.96935 38.1929C1.98106 37.2401 2.01617 36.3892 3.55529 35.6999C4.17678 35.4236 7.22108 34.183 9.48586 33.2174C10.1518 32.9294 10.7722 32.6883 11.4615 32.6883C12.2317 32.6883 13.1165 33.0219 14.2203 33.6773C15.1507 34.2286 16.1281 34.9754 16.8982 35.8368L17.8743 35.0901C17.0351 34.1022 15.8752 33.2174 14.7142 32.528C13.5531 31.8386 12.5196 31.436 11.6465 31.436C11.2673 31.436 10.9571 31.505 10.6926 31.5741C10.3824 31.6548 10.0945 31.7461 9.72697 31.7461C9.3021 31.7461 8.94512 31.6431 8.42779 31.045C8.23233 30.8273 6.99167 29.4135 6.72715 29.0003C6.60075 28.8048 6.37134 28.4139 6.37134 27.9539C6.37134 27.7585 6.40529 27.5291 6.52116 27.3219C7.58859 28.1494 8.91118 28.655 10.5194 28.8505L10.3017 27.7585C7.99122 27.1499 5.53214 25.1156 5.53214 23.8059C5.53214 23.5297 5.6012 23.3342 5.70537 23.0931C6.60075 23.9206 8.70401 24.7821 9.84167 24.7821Z" fill="#1C105A"/>
<path d="M26.3789 24.9889C27.8267 23.966 29.3202 23.8513 30.5269 23.8513C31.2514 23.8513 32.1011 23.9543 32.9977 24.069C33.7222 24.1614 34.3765 24.2305 35.1583 24.2305C36.7325 24.2305 38.3185 23.6558 39.0079 23.3562C39.2033 23.5984 39.5369 23.9203 39.8014 24.1497C39.4678 24.3569 37.354 25.5051 35.1934 25.5051C34.2395 25.5051 33.3313 25.3915 32.5494 25.2874C31.86 25.1961 31.1133 25.1153 30.3888 25.1153C29.5964 25.1153 27.9988 25.3447 27.0109 25.8164L26.3789 24.9889Z" fill="#1C105A"/>
<path d="M47.7199 29.0916C45.9959 32.7234 43.3753 35.3663 40.6868 36.8949C39.411 37.6182 38.2617 38.0899 35.7803 38.0899H30.4128C28.4944 38.0899 27.2877 38.3427 26.3455 38.5838C25.3331 38.8483 24.6905 39.1117 23.6676 39.1117C22.1507 39.1117 20.7485 38.3649 20.0708 37.6533L21.3349 36.6538L20.7029 35.8134C20.3353 36.0791 15.8421 39.3996 14.8987 40.1463L14.8413 40.1124C14.8647 39.883 14.8647 39.6758 14.8647 39.4686C14.8647 36.9405 13.692 36.3307 11.9117 35.6191L10.705 36.3307C13.1524 37.1477 13.761 37.8019 13.761 39.629C13.761 41.078 13.2437 41.6515 12.497 42.0892C11.7268 42.5375 10.7729 42.7435 9.93488 42.7435C9.5779 42.7435 9.41756 42.8126 9.29115 42.939C9.15304 43.0771 9.08398 43.2842 9.08398 43.571V43.9736H9.37191C10.911 43.9736 12.3366 43.7325 13.8991 42.5024L18.9905 38.5264C19.7138 39.3539 21.5421 40.5033 23.7015 40.5033C24.9199 40.5033 25.7018 40.2037 26.8277 39.9169C27.7009 39.698 28.5518 39.5026 30.4128 39.5026H35.8026C38.5613 39.5026 39.8944 38.9279 41.3645 38.1016C44.5598 36.3085 47.2833 33.2747 48.8236 29.7915C48.421 29.5399 48.0418 29.3093 47.7199 29.0916Z" fill="#1C105A"/>
<path d="M39.0648 33.4122C40.4553 31.1825 41.6959 29.2057 44.7414 27.5975C44.4195 27.402 43.9607 27.1036 43.7184 26.942C42.5351 27.4594 41.3635 28.4929 40.364 29.5392C38.0653 31.9293 38.2713 33.308 35.8473 34.2397C35.2375 34.4691 34.4908 34.7219 33.5369 34.9408C32.9739 33.205 31.5612 31.481 30.0665 31.481C29.0319 31.481 27.8369 32.0205 26.4581 32.6303C24.8382 33.3431 23.3553 34.1589 22.8848 34.4691L23.5168 35.32C23.999 35.0543 25.3895 34.3649 26.78 33.768C27.9867 33.2507 29.0787 32.8258 29.8137 32.8258C30.997 32.8258 31.7672 34.1706 32.1932 35.2498C30.6412 35.6185 28.0897 35.7097 27.3207 35.7097C26.9637 35.7097 26.8373 35.7671 26.7109 35.8713C26.5962 35.9743 26.5037 36.158 26.4464 36.4108L26.3551 36.8018H27.1814C31.4804 36.8018 35.5371 36.1241 38.1448 34.5381C38.5135 34.6423 38.8354 34.7102 39.2486 34.7102C40.742 34.7102 42.2823 33.8944 43.2479 33.1477C43.592 32.8832 43.6728 32.6409 43.6728 32.3775C43.6728 32.2511 43.6611 32.1364 43.6494 32.0205L43.6037 31.5734C42.225 32.6643 41.0756 33.4812 39.6512 33.4812C39.3984 33.4812 39.2146 33.4578 39.0648 33.4122Z" fill="#1C105A"/>
</svg>
