<svg width="110" height="48" viewBox="0 0 110 48" fill="none" xmlns="http://www.w3.org/2000/svg">
<g clip-path="url(#clip0_4698_10973)">
<path d="M43.5767 47.9757C39.8235 47.7733 37.0229 46.2244 35.385 43.4455C34.2861 41.58 33.9517 39.1266 34.4544 36.6196C35.0115 33.8418 36.903 31.3387 39.8059 29.5383C41.474 28.5029 42.9018 27.8603 45.8091 26.8355C46.5401 26.5779 47.1709 26.3407 47.2116 26.3076C47.2699 26.2613 47.2782 26.0969 47.249 25.5635C47.1654 24.0461 47.4179 21.682 47.8452 19.9759C48.5641 17.1049 49.9473 14.7887 51.7832 13.3838C53.101 12.3744 54.8286 11.6154 56.5484 11.29C57.4983 11.1107 59.0889 11.1113 59.9826 11.2916C63.8123 12.065 65.9617 15.0254 65.1152 18.3608C64.937 19.0641 64.3738 20.2169 63.897 20.8546C62.6754 22.4884 60.8379 23.9413 58.243 25.3236C57.9168 25.4979 56.8487 26.0241 55.8703 26.494C54.8918 26.9634 54.0608 27.3788 54.0223 27.4174C53.9678 27.472 53.9816 27.6314 54.0872 28.1676C54.5739 30.6464 55.3923 32.7408 56.7899 35.0829C57.3454 36.015 58.1137 37.1905 58.2012 37.2451C58.3277 37.3234 58.8447 36.4856 59.1818 35.6565C59.5987 34.6306 59.8374 33.2736 59.7197 32.5996C59.635 32.117 59.3721 31.6073 59.0366 31.278C58.8826 31.1257 58.755 30.9818 58.7545 30.9581C58.7539 30.9349 60.0563 30.9217 61.6497 30.9299L64.5465 30.9448L64.53 31.3133C64.5075 31.8169 64.321 32.8908 64.1247 33.6553C63.5708 35.8049 62.5269 37.6433 60.7224 39.6511C60.5095 39.8878 60.3352 40.12 60.3352 40.1674C60.3352 40.2149 60.6344 40.5442 60.9996 40.8994C63.2804 43.1168 67.3207 45.674 70.6103 46.9818C70.9298 47.1092 71.1905 47.2388 71.1894 47.2697C71.1883 47.3072 69.2892 47.3315 65.6394 47.3414L60.091 47.3558L59.7753 47.1776C59.1307 46.8141 57.7034 45.6574 56.3323 44.3865C56.0419 44.1174 55.7669 43.8973 55.7212 43.8973C55.6756 43.8973 55.3527 44.0854 55.0051 44.3154C53.2237 45.4936 51.0946 46.5521 49.2939 47.1544C47.2457 47.8401 45.555 48.0828 43.5767 47.9763V47.9757ZM48.2484 43.1548C49.0789 43.0065 50.0991 42.7042 51.0374 42.3286C51.9807 41.9513 53.15 41.3743 53.1918 41.2651C53.2083 41.2221 52.9921 40.8597 52.7122 40.4592C51.4213 38.6147 50.0425 36.0206 49.1157 33.694C48.7742 32.8362 48.1362 30.9365 48.0141 30.4158C47.9756 30.2498 47.9057 30.0992 47.859 30.081C47.7297 30.0314 46.6699 30.5979 45.7541 31.2068C42.4992 33.3707 40.9389 36.0123 41.2854 38.7724C41.4394 39.9992 41.8266 40.8933 42.5311 41.6484C43.8335 43.044 45.8696 43.5807 48.2484 43.1548ZM53.7731 23.9617C54.9776 23.2545 56.8883 21.5374 57.957 20.2026C59.3248 18.4943 60.0519 16.9002 60.0525 15.6073C60.0525 14.8682 59.948 14.5372 59.607 14.1952C59.2676 13.8554 58.8848 13.7148 58.3002 13.7142C56.5655 13.7142 54.6894 15.7794 53.8721 18.5892C53.4596 20.0057 53.3595 20.768 53.3568 22.4983C53.3546 23.8199 53.376 24.1139 53.475 24.1139C53.4965 24.1139 53.6307 24.0455 53.7731 23.9617ZM82.4628 47.9426C79.6044 47.6542 77.7207 47.2256 75.5955 46.3816C72.7036 45.2321 70.8979 43.8085 69.3728 41.4758C68.9163 40.7775 68.1837 39.3114 67.8878 38.5011C66.565 34.8909 66.2746 30.3458 67.0628 25.6043C67.8608 20.8055 69.6786 16.1804 72.1866 12.5653C73.8135 10.221 76.234 7.75208 78.7327 5.8877C82.8588 2.80982 87.608 0.917865 92.8842 0.252646C94.4847 0.0507635 95.3812 -0.00108605 97.2715 1.7129e-05C100.131 0.0016719 102.309 0.220102 105.185 0.793205C107.02 1.15946 109.942 1.95044 109.999 2.09661C110.027 2.17053 108.175 8.12275 108.099 8.20273C108.075 8.22755 107.791 8.03725 107.468 7.778C104.867 5.6985 102.171 4.4326 99.4457 4.01174C98.575 3.87715 96.9388 3.8755 96.0852 4.00843C92.2638 4.60194 88.7207 7.05045 85.5752 11.2718C84.5533 12.643 83.4275 14.4809 82.5519 16.2063C81.3655 18.5451 80.5499 20.6124 79.7249 23.377C77.097 32.1727 76.9639 38.3179 79.3289 41.6446C80.3029 43.0153 81.7269 43.8885 83.5336 44.2222C84.5709 44.4141 87.0888 44.2977 87.3396 44.0468C87.3798 44.007 88.609 40.1498 90.0709 35.475C92.4733 27.7963 92.7329 26.9303 92.7604 26.4951C92.7967 25.9105 92.6884 25.3881 92.426 24.885C92.1879 24.4278 91.5587 23.8072 91.04 23.5188C90.8162 23.3941 90.6325 23.2727 90.6319 23.2496C90.6314 23.2264 94.6618 23.2071 99.5892 23.2071C104.516 23.2071 108.548 23.2264 108.547 23.2496C108.547 23.2727 108.329 23.3924 108.062 23.5143C106.667 24.1542 105.656 25.1129 105.055 26.3672C104.925 26.6385 103.797 30.1511 102.104 35.56L99.3632 44.3137L98.5712 44.6943C95.3454 46.2471 91.3992 47.3651 87.4628 47.8423C86.7396 47.9305 83.0683 48.0039 82.4633 47.9426H82.4628ZM0.00182468 47.3028C-0.0163253 47.2741 0.103025 47.1732 0.266375 47.0789C1.23987 46.5168 2.33272 45.3507 2.79582 44.3788C2.93002 44.0975 15.2187 4.8463 15.4898 3.83192C15.5377 3.65431 15.5778 3.27923 15.5784 2.99902C15.5822 2.14295 15.3171 1.52572 14.6929 0.933309C14.5224 0.771693 14.3832 0.615593 14.3832 0.586358C14.3832 0.508584 35.8415 0.515203 36.8254 0.593529C38.9561 0.762867 41.089 1.33101 42.7203 2.16281C45.5055 3.58315 47.1731 5.73877 47.6857 8.58112C47.8287 9.3721 47.8562 11.1317 47.7391 11.9833C47.2617 15.455 45.6931 19.1375 43.5574 21.8017C40.0979 26.1173 34.4401 28.8769 27.4963 29.6359C25.2952 29.8764 22.5216 29.9371 20.5575 29.787C19.9899 29.7435 19.5136 29.7197 19.4993 29.7341C19.4295 29.8047 14.9992 44.0606 14.9486 44.3788C14.7924 45.3601 15.2962 46.4633 16.1647 47.0413C16.3363 47.1555 16.4617 47.273 16.4441 47.3017C16.4001 47.3729 0.0452747 47.3734 0.00127468 47.3022L0.00182468 47.3028ZM24.3591 26.1289C25.9723 25.8421 27.3957 25.243 28.769 24.2739C29.4362 23.8034 30.8068 22.4305 31.3722 21.6665C32.7868 19.7563 33.8274 17.5026 34.6667 14.5339C35.2013 12.6419 35.429 11.2006 35.4284 9.71519C35.4284 8.57009 35.325 7.88611 35.0379 7.11885C34.6117 5.98037 33.7438 5.08072 32.641 4.63393C31.6939 4.25003 30.8854 4.14908 28.9406 4.1717L27.4743 4.18825L24.066 15.0722C22.1921 21.0587 20.6686 25.9855 20.6813 26.0208C20.6945 26.0561 20.9299 26.1156 21.2038 26.1532C21.4788 26.1907 21.7411 26.2304 21.7879 26.242C22.0013 26.2944 23.901 26.2111 24.3591 26.1294V26.1289Z" fill="#1C105A"/>
</g>
<defs>
<clipPath id="clip0_4698_10973">
<rect width="110" height="48" fill="white"/>
</clipPath>
</defs>
</svg>
