<svg width="20" height="20" viewBox="0 0 20 20" fill="none" xmlns="http://www.w3.org/2000/svg">
<path d="M5.89844 1.20703C5.82812 1.21484 5.10156 1.95703 3.32031 3.83203C1.95703 5.26953 0.683594 6.60938 0.496094 6.8125L0.152344 7.18359L4.79297 13.1523C7.34375 16.4336 9.48828 19.207 9.5625 19.3125C9.63281 19.418 9.75781 19.5742 9.84375 19.6602L10 19.8125L10.168 19.6406C10.2578 19.5508 10.375 19.4062 10.4219 19.3242C10.4688 19.2461 12.6094 16.4766 15.1797 13.1797L19.8516 7.17578L19.6562 6.97656C19.5508 6.86719 18.3945 5.65234 17.0898 4.27734C13.9766 1 14.1836 1.21094 14.0859 1.21094C11.332 1.19922 5.96875 1.19531 5.89844 1.20703ZM9.01953 2.06641C8.91016 2.21875 5.52734 5.84375 5.51562 5.82031C5.50781 5.80078 6.20703 2.50391 6.30859 2.07812L6.32812 1.99219H7.69922C9.04297 1.99219 9.07031 1.99219 9.01953 2.06641ZM13.6875 2.05859C13.7461 2.26172 14.4922 5.79297 14.4805 5.80859C14.4648 5.82422 11.0195 2.13672 10.9648 2.04297C10.9375 2 11.1797 1.99219 12.3008 1.99219C13.5664 1.99219 13.668 1.99609 13.6875 2.05859ZM12.1523 4.5L14.2656 6.77734L12.1367 6.78906C10.9648 6.79297 9.04297 6.79297 7.86328 6.78906L5.71875 6.77734L7.84375 4.5C9.00781 3.25 9.98047 2.22656 10 2.22656C10.0195 2.22656 10.9883 3.25 12.1523 4.5ZM4.89062 4.87109L4.47656 6.79688H3.05469H1.63281L1.82422 6.58594C2.08594 6.28906 5.28906 2.93359 5.29688 2.94141C5.30078 2.94531 5.11719 3.81641 4.89062 4.87109ZM16.7383 5.05859L18.3672 6.77734L16.9492 6.78906C16.1719 6.79297 15.5273 6.79297 15.5195 6.78516C15.5156 6.77734 15.332 5.9375 15.1172 4.91797C14.8984 3.89844 14.7148 3.03125 14.7031 2.98828C14.6719 2.88281 14.8281 3.03906 16.7383 5.05859ZM6.34766 11.7656C8.54688 16.8438 8.375 16.4375 8.30859 16.3672C8.27734 16.3359 6.75391 14.375 4.92188 12.0117C3.08984 9.64844 1.57422 7.69141 1.55469 7.66406C1.52344 7.62891 1.82422 7.61719 3.03125 7.61719H4.55078L6.34766 11.7656ZM14.5547 7.68359C14.4766 7.89844 10.0156 18.1641 10 18.1641C9.98438 18.1641 5.51953 7.89844 5.44531 7.68359C5.42188 7.62109 5.65625 7.61719 10 7.61719C14.3438 7.61719 14.5781 7.62109 14.5547 7.68359ZM18.4453 7.66406C18.4258 7.69141 16.9102 9.64844 15.0781 12.0117C13.2461 14.375 11.7227 16.3359 11.6914 16.3672C11.6602 16.4023 11.6758 16.3359 11.7266 16.2109C11.7773 16.0938 12.6367 14.1094 13.6328 11.8047L15.4414 7.61719H16.9648C18.1758 7.61719 18.4766 7.62891 18.4453 7.66406Z" fill="#7356C0"/>
</svg>
