<svg width="175" height="48" viewBox="0 0 175 48" fill="none" xmlns="http://www.w3.org/2000/svg">
<g clip-path="url(#clip0_4698_11027)">
<path fill-rule="evenodd" clip-rule="evenodd" d="M39.8178 0.000360489C43.0478 0.000360489 45.6822 0.944546 45.6822 2.10025C45.6822 3.25749 43.0478 4.19861 39.8178 4.19861C36.5878 4.19861 33.9534 3.25749 33.9534 2.10025C33.9534 0.944546 36.5893 0.000360489 39.8178 0.000360489ZM48.7172 5.0217V6.15902C46.1857 6.15902 44.9407 7.34078 44.9407 8.81377V27.3373C44.9407 28.7198 46.3346 29.9583 48.7172 29.9583V31.1309H39.8193H30.9199V29.9583C33.304 29.9583 34.6949 28.7183 34.6949 27.3373V8.81377C34.6949 7.34231 33.453 6.15902 30.9199 6.15902V5.0217H39.8193H48.7172Z" fill="#1C105A"/>
<path fill-rule="evenodd" clip-rule="evenodd" d="M90.5789 29.9181C88.7075 29.9181 86.2789 28.6183 85.9718 26.8526C85.7385 25.5037 86.0578 23.7594 85.6325 22.8505C84.343 20.1023 81.2389 18.6078 76.836 18.0836C82.1676 17.9564 86.8346 15.1392 86.8346 11.6797C86.8346 9.50777 85.5328 7.86464 82.9414 6.74265C80.3377 5.61761 76.5305 5.05355 71.4951 5.05355H51.5977V6.18473C54.0616 6.18473 55.0748 7.45846 55.0748 8.84561V27.363C55.0748 28.7179 53.9511 29.9442 51.5977 29.9442V31.1627H69.3689V29.9089C67.0646 29.9089 65.1364 29.5119 65.1456 27.3614L65.1732 18.6124C65.4496 18.5986 65.7535 18.5863 66.0652 18.5802C66.3768 18.5756 66.8358 18.5756 67.4238 18.5756C70.4742 18.5756 72.5436 18.899 73.6367 19.5443C74.7282 20.1942 75.3852 21.5936 75.5833 23.7456C75.8964 26.4801 74.7604 31.1934 79.8987 31.1934C83.8302 31.1934 87.5853 31.1275 90.5804 31.1275V29.9181H90.5789ZM74.0097 15.6097C71.7146 16.9371 67.9688 16.8237 65.1732 16.8237V6.82389C66.8067 6.82389 68.7794 6.78404 70.5755 7.01855C74.5347 7.28679 76.3985 9.08166 76.3985 11.7793C76.3985 13.5742 75.5234 14.8127 74.0097 15.6097Z" fill="#1C105A"/>
<path fill-rule="evenodd" clip-rule="evenodd" d="M0 30.9469L0.00614073 20.4628H0.91036C1.40162 22.8922 2.81245 25.8735 6.18523 27.6484C12.3582 30.9025 19.0024 28.565 19.0869 23.5789C19.1682 18.74 15.2412 17.4938 9.09286 15.9764C5.09525 14.9893 0.707717 13.337 0.809039 10.2239C0.858164 8.72182 1.81151 7.20745 3.63991 6.01955C8.48646 2.87585 17.1664 3.2805 22.6116 5.43557C24.3495 6.12379 25.9015 5.91533 26.6215 3.93193H27.3645L27.3584 11.9299H26.4557C25.6927 8.1547 22.237 6.27246 18.8274 6.03335C15.1967 5.77584 11.4401 7.51707 11.2667 10.5336C11.107 13.2879 13.0275 14.8468 18.5096 16.0484C24.437 17.3452 29.8408 19.0527 29.9498 23.631C30.0219 26.6506 27.3814 29.6563 21.953 30.6572C20.1185 30.9975 18.1289 31.1309 16.1838 31.1309C11.5553 31.1309 9.72381 30.1759 5.72007 29.1061C3.84869 28.6079 2.12776 28.6846 0.743026 30.9485H0V30.9469Z" fill="#1C105A"/>
<path fill-rule="evenodd" clip-rule="evenodd" d="M132.652 31.1782V29.9734C135.692 29.9734 136.822 29.394 136.822 26.9217V9.2734C136.822 6.77958 135.741 6.2002 132.652 6.2002V5.06902H152.175C156.887 5.06902 160.484 5.61008 162.984 6.67996C165.481 7.74983 166.799 9.28719 166.729 11.3028C166.592 15.1975 161.168 16.1662 157.071 16.4774C161.317 16.6659 164.002 17.3633 166.396 18.5635C171.518 21.1293 171.15 27.1899 165.577 29.4155C162.637 30.5926 158.34 31.1797 152.68 31.1797H132.652V31.1782ZM153.093 29.184C155.279 29.066 155.976 28.6721 157.192 27.9854C158.208 27.4122 158.873 26.5768 159.18 25.4747C159.364 24.9352 159.521 24.3252 159.521 23.6293C159.521 22.7694 159.237 21.3286 158.721 20.5377C158.276 19.8541 157.617 19.2962 156.775 18.8624C156.015 18.4715 155.046 18.1926 153.885 18.0316C152.729 17.8691 152.516 17.7833 149.714 17.7833H148.907C148.365 17.7833 147.957 17.7833 147.682 17.7879C147.438 17.7956 147.203 17.814 146.985 17.8446H146.84V29.4139C148.739 29.4139 151.007 29.4584 153.093 29.184ZM147.035 15.7263C147.307 15.7447 147.585 15.7616 147.88 15.7723C148.211 15.7846 148.647 15.7892 149.18 15.7892C154.056 15.7892 156.573 14.9646 156.573 11.8285C156.573 11.594 156.564 11.3503 156.537 11.102C156.498 9.91716 156.07 9.06034 155.393 8.4411C154.547 7.59808 153.202 6.99724 151.239 6.90527C150.64 6.87922 150.012 6.83783 149.412 6.85163C148.515 6.82864 147.637 6.83783 146.839 6.83783V15.7279H147.035V15.7263Z" fill="#1C105A"/>
<path d="M132.707 22.2943C132.712 22.2805 132.715 22.2668 132.718 22.253C130.779 22.8645 127.234 22.1043 123.126 21.0267L114.383 3.98545H112.091H108.858H104.233L106.442 8.69258L101.678 17.9765C93.9442 19.7745 91.7734 26.3071 91.7734 26.3071C93.4729 22.8354 96.6814 21.6398 100.051 21.1478L96.7228 27.636C96.0857 28.876 94.899 29.8172 92.9417 29.9045V31.1445H104.477L104.343 29.9045C101.84 29.7911 100.334 29.0784 101.195 27.2007L104.204 20.7892C107.469 20.642 110.088 21.2766 112.698 22.0169L115.131 27.2007C115.992 29.0784 114.486 29.7896 111.982 29.9045L111.847 31.1445H130.3V29.9045C128.343 29.8172 127.156 28.876 126.519 27.636L124.609 23.9145C125.407 23.8746 126.243 23.8011 127.125 23.68C129.212 23.3964 131.068 22.9044 132.707 22.2943ZM109.294 17.7757C109.281 17.7742 109.267 17.7711 109.253 17.7696C109.066 17.7436 108.875 17.7206 108.685 17.6991C108.634 17.693 108.584 17.6868 108.533 17.6807C108.313 17.6562 108.091 17.6347 107.865 17.6148C107.819 17.6102 107.775 17.6071 107.728 17.6041C107.55 17.5887 107.371 17.5765 107.19 17.5658C107.099 17.5596 107.007 17.555 106.918 17.5504C106.855 17.5474 106.792 17.5443 106.729 17.5412C106.391 17.5274 106.061 17.5228 105.737 17.5244L108.163 12.3559L110.823 18.0256C110.324 17.9336 109.819 17.8478 109.294 17.7757Z" fill="#1C105A"/>
<path fill-rule="evenodd" clip-rule="evenodd" d="M171.266 1.57987C172.118 1.57987 172.846 1.84811 173.451 2.38917C174.055 2.93024 174.358 3.58473 174.358 4.34805C174.358 4.73124 174.281 5.08531 174.128 5.41485C173.899 5.9222 173.515 6.33451 172.979 6.65026C172.445 6.96908 171.874 7.12695 171.264 7.12695C170.437 7.12695 169.718 6.84952 169.107 6.29773C168.496 5.7444 168.189 5.09604 168.189 4.34805C168.189 3.80085 168.368 3.28891 168.722 2.80915C169.078 2.32786 169.536 1.98606 170.099 1.7776C170.462 1.64578 170.85 1.57987 171.266 1.57987ZM173.911 4.38024C173.911 3.68896 173.662 3.11571 173.166 2.65894C172.671 2.20371 172.04 1.97533 171.274 1.97533C170.535 1.97533 169.923 2.19604 169.433 2.64361C168.899 3.13103 168.63 3.69969 168.63 4.34652C168.63 4.99641 168.888 5.55433 169.404 6.02183C169.918 6.48779 170.534 6.72077 171.249 6.72077C171.992 6.72077 172.622 6.49699 173.137 6.05248C173.653 5.60645 173.911 5.05006 173.911 4.38024ZM170.024 2.71259H171.352C172.325 2.71259 172.813 3.00841 172.813 3.59546C172.813 4.05836 172.555 4.34345 172.037 4.44768L172.813 5.88081H172.041L171.337 4.54884H170.718V5.88081H170.024V2.71259ZM171.232 3.1387H170.718V4.13499H171.249C171.823 4.13499 172.112 3.97712 172.112 3.66443C172.112 3.31496 171.819 3.1387 171.232 3.1387Z" fill="#1C105A"/>
<path fill-rule="evenodd" clip-rule="evenodd" d="M95.7773 47.439C96.2502 47.4221 96.5572 47.1907 96.7015 46.7416C96.8397 46.3017 96.9195 45.8128 96.9441 45.2794C96.9441 45.1736 96.9456 45.0694 96.9548 44.9697C96.9548 44.8716 96.9548 44.772 96.9548 44.6693C96.9548 44.654 96.9548 44.6341 96.9548 44.6049C96.9548 44.5896 96.9548 44.5728 96.9548 44.559C96.9548 44.4287 96.9548 44.3244 96.9548 44.2463C96.9548 44.165 96.9579 44.0961 96.9655 44.0424C96.9655 44.0179 96.9655 43.9949 96.9655 43.9719C96.9655 43.9566 96.9655 43.9367 96.9655 43.9121C96.9655 43.8784 96.9655 43.8447 96.9655 43.8125C96.9655 43.7818 96.9655 43.7466 96.9655 43.7083C96.9655 43.6684 96.9655 43.6332 96.9655 43.5964C96.9655 43.5642 96.9655 43.5381 96.9655 43.5152C96.9655 43.4906 96.9655 43.4692 96.9655 43.4446C96.9655 43.4217 96.9655 43.3941 96.9655 43.3695C96.9579 43.3144 96.9548 43.2485 96.9548 43.1703C96.9548 43.0967 96.9548 43.0047 96.9548 42.8944C96.9548 42.8515 96.9548 42.8147 96.9548 42.784C96.9548 42.7518 96.9502 42.7258 96.9441 42.7028C96.9441 42.6783 96.9441 42.6522 96.9441 42.6277C96.9441 42.6108 96.9441 42.5909 96.9441 42.5679C96.9441 42.4821 96.9395 42.384 96.9318 42.2706C96.9241 42.1571 96.9118 42.0008 96.8965 41.8031C96.8888 41.7004 96.8811 41.59 96.8719 41.4689C96.8535 41.3555 96.8366 41.2375 96.8197 41.1179C96.7644 40.8328 96.6662 40.5646 96.5219 40.3148C96.376 40.0772 96.1273 39.9515 95.7773 39.9362C95.5701 39.9438 95.4058 39.9944 95.2861 40.0879C95.1556 40.186 95.0589 40.2856 94.9974 40.3883C94.9514 40.4619 94.9145 40.5293 94.89 40.5952C94.8639 40.6596 94.8439 40.7148 94.827 40.7608C94.7257 41.1118 94.6643 41.5394 94.6397 42.0437C94.606 42.5464 94.5876 43.1013 94.5876 43.7113C94.5876 43.7497 94.5876 43.7849 94.5876 43.8156C94.5876 43.8478 94.5876 43.8815 94.5876 43.9152C94.5876 43.9397 94.5876 43.9597 94.5876 43.975C94.5876 43.9964 94.5922 44.021 94.5998 44.0455C94.5998 44.0991 94.5998 44.1666 94.5998 44.2493C94.5998 44.3275 94.5998 44.4317 94.5998 44.562C94.5998 44.5758 94.5998 44.5927 94.5998 44.608C94.5998 44.6356 94.5998 44.6555 94.5998 44.6724C94.5998 44.7751 94.606 44.8747 94.6183 44.9728C94.6183 45.0724 94.6183 45.1721 94.6183 45.2702C94.6397 45.8051 94.7242 46.2925 94.87 46.7324C95.0005 47.1784 95.3029 47.4145 95.7773 47.439ZM95.742 48C94.7411 47.9923 93.9551 47.5601 93.3794 46.7064C92.7929 45.8526 92.5012 44.8456 92.5012 43.6884C92.5012 42.4698 92.7499 41.5226 93.2458 40.8436C93.7432 40.1645 94.2897 39.7216 94.8931 39.5147C95.0266 39.4671 95.1648 39.4319 95.3091 39.4089C95.4473 39.3828 95.5793 39.369 95.7082 39.369H95.8264C96.6432 39.369 97.3877 39.743 98.0601 40.488C98.7249 41.2375 99.0565 42.3043 99.0565 43.6884C99.0565 44.8395 98.7709 45.8419 98.1968 46.6972C97.6165 47.5586 96.8397 47.9893 95.8633 47.9893L95.742 48ZM87.1941 41.1057L86.9777 42.6921C87.3645 42.4346 87.7268 42.2859 88.0615 42.2476C88.3977 42.2092 88.6157 42.1893 88.7186 42.1893C88.7186 42.1893 88.7216 42.1893 88.7293 42.1893H88.8521C89.7087 42.1893 90.3382 42.3993 90.7465 42.8208C91.1564 43.253 91.4281 43.7251 91.5663 44.2371C91.6124 44.421 91.6477 44.6034 91.6707 44.7889C91.6861 44.9713 91.6937 45.1429 91.6937 45.3023C91.6937 46.0335 91.3913 46.6604 90.7849 47.1876C90.1754 47.721 89.4432 47.9877 88.5881 47.9877L88.4637 48C88.3117 47.9923 88.1398 47.9755 87.9479 47.954C87.7575 47.9295 87.561 47.8881 87.3615 47.8299C87.1788 47.7839 86.9991 47.7164 86.8226 47.6275C86.6461 47.5402 86.4864 47.4283 86.3421 47.2919C86.1962 47.1616 86.078 47.0267 85.9859 46.8842C85.8954 46.7431 85.8247 46.5991 85.7741 46.455C85.7418 46.3737 85.7219 46.2894 85.7142 46.2036C85.6988 46.1147 85.6927 46.0304 85.6927 45.9522C85.6927 45.592 85.7986 45.3161 86.0105 45.123C86.2239 44.9299 86.4526 44.8303 86.6982 44.8226C86.7059 44.8226 86.7136 44.8226 86.7213 44.8226C86.7213 44.8226 86.7259 44.8226 86.7336 44.8226H86.8579C87.1465 44.8226 87.3599 44.8885 87.5027 45.0157C87.647 45.1521 87.7452 45.3023 87.7959 45.4618C87.8189 45.5246 87.8358 45.5874 87.8435 45.6533C87.8512 45.7162 87.8542 45.7744 87.8542 45.8296C87.8542 45.8863 87.8466 45.9461 87.8312 45.9998C87.8066 46.0534 87.7759 46.1116 87.7422 46.1699C87.7191 46.2174 87.6946 46.2557 87.6716 46.2879C87.6485 46.3262 87.6194 46.3584 87.5902 46.3814C87.558 46.4243 87.5242 46.4565 87.4858 46.4795C87.4505 46.5025 87.4198 46.527 87.3952 46.5515C87.3875 46.5515 87.3829 46.5515 87.3829 46.5515C87.3753 46.5577 87.3676 46.5653 87.3599 46.573C87.3139 46.6129 87.2663 46.6527 87.2141 46.6972C87.168 46.7431 87.1435 46.7907 87.1435 46.8382C87.1435 46.8688 87.1557 46.9071 87.1803 46.9516C87.2018 46.9976 87.2402 47.0405 87.2893 47.0773C87.3599 47.1508 87.4674 47.2214 87.6117 47.2827C87.7575 47.3455 87.9387 47.3823 88.1521 47.393C88.1981 47.393 88.2472 47.3884 88.2964 47.3792C88.344 47.3685 88.3931 47.3608 88.4407 47.3532C88.7446 47.2827 89.0271 47.088 89.2835 46.7677C89.5291 46.455 89.6535 45.9476 89.6535 45.2456C89.6535 44.493 89.546 43.952 89.3311 43.6255C89.1116 43.3082 88.8751 43.1059 88.6203 43.0155C88.5374 42.9833 88.4622 42.9618 88.3916 42.9465C88.3102 42.9373 88.2334 42.9342 88.1643 42.9342C88.1413 42.9342 88.1214 42.9342 88.106 42.9342C88.0814 42.9419 88.0584 42.9465 88.0339 42.9465C87.7836 42.9772 87.5518 43.0584 87.3384 43.1856C87.1112 43.3174 86.9592 43.4891 86.8809 43.7006C86.8733 43.7083 86.864 43.7221 86.8594 43.7466C86.8441 43.7788 86.8241 43.8094 86.7996 43.8401C86.7658 43.8723 86.7274 43.9045 86.689 43.9397C86.6491 43.9719 86.5985 43.9857 86.5355 43.9857H86.4142C86.2914 43.9857 86.2039 43.9535 86.1502 43.8891C86.0965 43.8263 86.0688 43.7389 86.0688 43.6362C86.0688 43.5964 86.0765 43.5565 86.0919 43.5182C86.0995 43.486 86.1118 43.4554 86.1256 43.4247C86.1333 43.4171 86.141 43.4079 86.1487 43.4002C86.1487 43.3895 86.1487 43.3803 86.1487 43.3726C86.1563 43.3496 86.164 43.3297 86.1732 43.3128C86.1809 43.299 86.1886 43.2791 86.1947 43.2546C86.2116 43.2224 86.2223 43.1887 86.2316 43.1488C86.2392 43.1074 86.2469 43.0599 86.2546 43.0155L86.7351 39.5162H86.8564H87.3031C87.4367 39.6511 87.6071 39.7553 87.8189 39.8258C88.0262 39.9086 88.2411 39.9653 88.4637 39.9959C88.5466 40.0036 88.6249 40.0113 88.7032 40.0189C88.7846 40.0266 88.8613 40.0312 88.9335 40.0312C89.0624 40.0312 89.2052 40.0159 89.3664 39.9837C89.5184 39.9622 89.6765 39.9086 89.8362 39.8258C89.9359 39.7722 90.0434 39.7047 90.1585 39.6219C90.2629 39.5438 90.3658 39.4472 90.4687 39.3338H90.593H91.2593C90.9968 40.1492 90.5899 40.6612 90.0403 40.8681C89.4785 41.0781 88.8828 41.1838 88.2595 41.1838H88.1413C88.0262 41.1838 87.9064 41.1792 87.7806 41.1716C87.6516 41.1639 87.5226 41.1501 87.3845 41.1317C87.3538 41.1317 87.3231 41.1271 87.2908 41.1195C87.2601 41.1179 87.2263 41.1133 87.1941 41.1057ZM82.7114 41.9732C82.7114 41.9257 82.7114 41.8766 82.7114 41.8261C82.7114 41.7877 82.7114 41.7479 82.7114 41.7096C82.7114 41.7019 82.7114 41.6896 82.7114 41.6743C82.7114 41.6666 82.7114 41.659 82.7114 41.6513C82.7114 41.6406 82.7114 41.6268 82.7114 41.6115C82.7114 41.6038 82.7114 41.5946 82.7114 41.5869C82.6761 41.0765 82.5778 40.6979 82.4182 40.4527C82.2508 40.2029 82.0743 40.0389 81.8916 39.9607C81.8348 39.9377 81.7857 39.9162 81.7381 39.9009C81.6797 39.8917 81.6275 39.8856 81.58 39.8856C81.1378 39.9116 80.8507 40.1293 80.7172 40.5355C80.5729 40.9447 80.5007 41.3923 80.5007 41.8751C80.5007 41.8843 80.5007 41.8874 80.5007 41.8874C80.5007 41.8981 80.5007 41.9073 80.5007 41.915C80.5007 42.4499 80.5621 42.9327 80.688 43.3619C80.8078 43.8033 81.1025 44.0348 81.5661 44.0577C81.8808 44.044 82.1157 43.9198 82.2769 43.6899C82.4289 43.4646 82.5364 43.2132 82.5993 42.9358C82.6469 42.7518 82.6776 42.5725 82.6914 42.3947C82.7037 42.2123 82.7114 42.0728 82.7114 41.9732ZM82.693 44.0194C82.4473 44.2938 82.1863 44.4808 81.9116 44.585C81.6352 44.6877 81.3451 44.7383 81.0411 44.7383H80.9167C80.2612 44.7383 79.6855 44.4992 79.1881 44.0194C78.6923 43.5397 78.4436 42.8806 78.4436 42.0422C78.4436 41.964 78.4482 41.8797 78.4574 41.7923C78.4666 41.705 78.485 41.6207 78.5065 41.5379C78.6324 40.9953 78.9486 40.4956 79.4568 40.0404C79.9496 39.5913 80.6082 39.3675 81.4326 39.3675H81.5569C82.4934 39.3675 83.2119 39.6373 83.7077 40.1737C84.1913 40.7179 84.5091 41.308 84.6611 41.9487C84.6964 42.0912 84.7271 42.2292 84.7486 42.364C84.7639 42.5081 84.7762 42.6476 84.7839 42.7856C84.7839 42.8162 84.7839 42.8438 84.7839 42.8683C84.7839 42.902 84.7839 42.9327 84.7839 42.9557C84.7839 43.0093 84.7839 43.0615 84.7839 43.1074C84.7839 43.1657 84.7839 43.2239 84.7839 43.2776C84.744 44.5498 84.5075 45.5215 84.0731 46.1929C83.6325 46.8719 83.1504 47.3486 82.6316 47.6275C82.3782 47.7548 82.1295 47.8498 81.887 47.9065C81.6475 47.9601 81.4295 47.9877 81.2284 47.9877L81.1056 48C81.058 47.9923 81.0119 47.9847 80.9628 47.9755C80.9121 47.9755 80.8615 47.9755 80.8047 47.9755C80.3318 47.9218 79.9005 47.7502 79.5075 47.4605C79.1129 47.1723 78.9164 46.7999 78.9164 46.3446C78.9164 46.0442 79.0008 45.802 79.1682 45.6135C79.3278 45.4296 79.5305 45.3376 79.7715 45.3376H79.8882C80.1783 45.3376 80.3902 45.405 80.5283 45.543C80.665 45.6871 80.7479 45.8465 80.7801 46.0227C80.7863 46.0595 80.7939 46.0963 80.8016 46.1285C80.8016 46.1714 80.8016 46.2128 80.8016 46.2511C80.8016 46.3048 80.7893 46.363 80.7678 46.4213C80.7448 46.4749 80.7141 46.527 80.6803 46.573C80.6327 46.6558 80.5898 46.7171 80.5514 46.7554C80.513 46.7952 80.4854 46.8336 80.4685 46.8734C80.4608 46.8811 80.4577 46.8887 80.4577 46.901C80.4516 46.9163 80.447 46.9332 80.447 46.9485C80.447 46.97 80.4501 46.9945 80.4577 47.019C80.4654 47.042 80.4731 47.0696 80.4808 47.1003C80.5207 47.1738 80.5928 47.2413 80.6988 47.3041C80.7909 47.3716 80.9229 47.4084 81.0902 47.416C81.7319 47.3884 82.1541 47.0696 82.3629 46.4565C82.5609 45.8388 82.6684 45.1644 82.6853 44.4317C82.6853 44.3566 82.6853 44.2861 82.6853 44.2156C82.693 44.1466 82.693 44.0823 82.693 44.0194ZM72.0234 41.1057V40.5677C72.1217 40.5523 72.2015 40.5401 72.2629 40.5324C72.3228 40.5324 72.375 40.5324 72.421 40.5324C72.4364 40.5247 72.4533 40.5201 72.4686 40.5201C72.484 40.5201 72.4993 40.5201 72.5147 40.5201C72.5961 40.5125 72.6805 40.5002 72.7665 40.4864C72.857 40.4788 72.9399 40.4665 73.0182 40.4512C73.4373 40.3761 73.8319 40.2519 74.2095 40.0756C74.5749 39.9024 74.8482 39.6649 75.0232 39.369H75.146H75.5912V46.6972C75.5912 46.8964 75.6419 47.0267 75.7432 47.088C75.8491 47.1631 76.0011 47.1999 76.2022 47.1999H77.1648V47.7609H77.0404H72.0465V47.1999H73.006C73.2147 47.1999 73.3713 47.1616 73.4757 47.088C73.574 47.0267 73.6216 46.8964 73.6216 46.6972V41.5655C73.6216 41.334 73.577 41.1992 73.488 41.1593C73.402 41.1256 73.2946 41.1072 73.1656 41.1072C73.1564 41.1072 73.1487 41.1072 73.141 41.1072C73.1257 41.1072 73.1134 41.1072 73.1057 41.1072H72.0234V41.1057Z" fill="#1C105A"/>
<path fill-rule="evenodd" clip-rule="evenodd" d="M102.45 43.5138L107.747 41.5228L141.943 43.5138L107.747 45.5049L102.45 43.5138ZM68.1729 43.5138L62.8781 41.5228L28.0664 43.5138L62.8781 45.5049L68.1729 43.5138Z" fill="#1C105A"/>
</g>
<defs>
<clipPath id="clip0_4698_11027">
<rect width="174.358" height="48" fill="white"/>
</clipPath>
</defs>
</svg>
