<svg width="20" height="20" viewBox="0 0 20 20" fill="none" xmlns="http://www.w3.org/2000/svg">
<path d="M7.32422 0.828417C6.98438 0.863573 6.50781 1.09014 6.23828 1.34795C5.81641 1.7581 5.61719 2.22295 5.61719 2.79326C5.61719 3.59404 6.01953 4.23467 6.73828 4.59014C7.9375 5.18389 9.38281 4.40654 9.57812 3.05889C9.65625 2.50029 9.45312 1.85576 9.06641 1.45342C8.58984 0.957323 8.03125 0.758104 7.32422 0.828417ZM8.14062 1.73467C8.375 1.84795 8.54297 2.01982 8.67969 2.27764C8.75391 2.41435 8.76953 2.5042 8.76953 2.79326C8.76953 3.09795 8.75391 3.17217 8.66406 3.34404C8.36328 3.91826 7.67188 4.14873 7.08984 3.87529C6.83984 3.7542 6.65625 3.57451 6.51562 3.30889C6.44531 3.17607 6.42578 3.07842 6.42578 2.81279C6.42578 2.52764 6.44141 2.44951 6.53516 2.2581C6.82031 1.67607 7.54297 1.4417 8.14062 1.73467Z" fill="#7356C0"/>
<path d="M11.5156 0.80846C11.3984 0.827991 11.2109 1.0233 11.2109 1.12487C11.2109 1.16784 11.1172 1.23424 10.9648 1.30846C10.7773 1.3983 10.6953 1.46862 10.5977 1.61315C10.3945 1.91393 10.3828 2.00768 10.3984 3.29284C10.4102 4.41784 10.4141 4.48033 10.4961 4.63268C10.6797 4.97643 10.9648 5.16002 11.3594 5.18737L11.6055 5.20299L11.5938 5.73815L11.582 6.2694L11.4727 6.28112C11.4102 6.28893 11.0391 6.50768 10.6523 6.76549C10.2617 7.0233 9.85156 7.29283 9.74219 7.36315L9.54688 7.48815L8.70703 6.90612C7.125 5.80065 6.01172 5.07408 5.78906 4.99205C5.47266 4.87877 4.82812 4.85143 4.49609 4.94127C3.99609 5.07018 3.55078 5.35924 3.25 5.75377C3.13281 5.90612 2.83594 6.50768 2.25781 7.78112C1.80469 8.77721 1.39062 9.70299 1.33203 9.84362L1.23047 10.0975V14.3358V18.5741L1.31641 18.7616C1.44531 19.0389 1.75781 19.3475 2.04297 19.4764C2.24219 19.5663 2.33984 19.5858 2.59766 19.5858C2.86719 19.5897 2.94531 19.5702 3.16406 19.4686C3.47266 19.3202 3.71094 19.0897 3.85547 18.7967L3.96484 18.5741L3.98438 16.2928L4.00391 14.0155L4.78516 14.7069C5.26172 15.1327 5.57031 15.4335 5.57812 15.4842C5.58203 15.5311 5.64453 16.2342 5.71875 17.0506C5.83594 18.3866 5.85938 18.5546 5.94531 18.7499C6.08984 19.0624 6.32812 19.3124 6.62891 19.4608C6.85156 19.5702 6.92578 19.5858 7.20312 19.5858C7.47656 19.5897 7.55469 19.5741 7.77344 19.4686C8.27734 19.2303 8.55469 18.828 8.58594 18.3006C8.59766 18.0233 8.39453 14.9178 8.33594 14.5116C8.30469 14.3124 8.19922 14.0624 8.07031 13.8944C8.01562 13.8202 7.43359 13.3085 6.77734 12.7499C6.12109 12.1952 5.58594 11.7264 5.58594 11.7069C5.58594 11.6796 6.66797 9.29674 6.89844 8.81627C6.9375 8.73815 6.98047 8.67174 6.99609 8.67174C7.01562 8.67174 7.47266 8.94518 8.01562 9.28112C9.10938 9.9569 9.37109 10.0663 9.80859 10.0272C10.0742 10.0038 10.1172 9.98424 10.8867 9.48033C11.2266 9.25768 11.5273 9.06237 11.5547 9.04674C11.5898 9.0233 11.6016 9.12877 11.6016 9.50768C11.6016 9.93346 11.5938 9.99987 11.5391 9.99987C11.5039 9.99987 11.4141 10.0624 11.3398 10.1366C11.2148 10.2616 11.2031 10.2889 11.2227 10.4413C11.2461 10.6131 11.3906 10.7811 11.5117 10.7811C11.5586 10.7811 11.5664 10.8085 11.5508 10.8866C11.5391 10.9491 11 12.8475 10.3555 15.1092C9.22266 19.0702 9.17969 19.2264 9.23438 19.3514C9.34766 19.621 9.63281 19.6913 9.84375 19.5038C9.95312 19.4022 10.0195 19.1913 10.7812 16.5428L11.5977 13.6913V16.5155L11.6016 19.3436L11.7344 19.4764C11.8203 19.5624 11.9062 19.6092 11.9688 19.6092C12.1055 19.6092 12.293 19.5116 12.3438 19.4178C12.3672 19.3671 12.3828 18.3749 12.3828 16.5155C12.3828 14.9608 12.3984 13.7186 12.418 13.7499C12.4336 13.7811 12.8047 15.0663 13.2422 16.6014C14.1211 19.6796 14.0938 19.6092 14.3945 19.6092C14.5078 19.6092 14.5703 19.578 14.6758 19.4725C14.7969 19.3514 14.8125 19.3163 14.793 19.1874C14.7812 19.1092 14.2461 17.1913 13.5977 14.9335C12.9492 12.6717 12.4219 10.8124 12.4219 10.8006C12.4219 10.7889 12.457 10.7811 12.4961 10.7811C12.5391 10.7811 12.6172 10.7264 12.6719 10.66C12.8672 10.4296 12.7695 10.0897 12.4844 10.0155L12.3828 9.99205V9.23815V8.48815L12.5977 8.34362C13.375 7.82799 13.3477 6.73033 12.5508 6.3319L12.3828 6.24987V5.72252V5.19518H12.5898C12.9805 5.19518 13.3516 4.92174 13.4766 4.54674L13.5234 4.41393H14.0781H14.6367L14.8047 4.57408C14.8945 4.66002 15.0117 4.74987 15.0664 4.7694C15.1211 4.78893 15.9688 4.80455 17.0234 4.80455C18.8008 4.80455 18.8906 4.80065 19.0117 4.72643C19.207 4.60924 19.2227 4.48424 19.2109 3.11315C19.1992 2.01159 19.1914 1.87877 19.1289 1.78502C19.0898 1.72252 19.0156 1.66002 18.9609 1.64049C18.9023 1.61705 18.0859 1.60143 16.9883 1.60143C14.9258 1.60143 15.0195 1.58971 14.7695 1.85143L14.6328 1.99205H14.0781H13.5273L13.4609 1.82409C13.375 1.59752 13.1992 1.39049 13.0078 1.29674C12.8945 1.24205 12.8203 1.16784 12.7617 1.04674C12.6992 0.921741 12.6406 0.867054 12.5391 0.831898C12.4102 0.788929 11.75 0.773304 11.5156 0.80846ZM12.75 2.07799C12.8047 2.15221 12.8125 2.32799 12.8125 3.2108C12.8125 4.2069 12.8086 4.26158 12.7344 4.3358C12.6641 4.40612 12.6055 4.41393 12.0078 4.41393C11.6367 4.41393 11.3281 4.3983 11.2852 4.37487C11.2148 4.3358 11.2109 4.28112 11.2109 3.20299C11.2109 2.16784 11.2148 2.07018 11.2812 2.03502C11.3164 2.01159 11.6367 1.99205 12.0195 1.99205C12.668 1.99205 12.6914 1.99596 12.75 2.07799ZM16.4102 2.67565C16.4375 3.00768 16.4609 3.07409 16.6055 3.1444C16.7539 3.22252 16.8711 3.21862 17.0195 3.12487C17.1602 3.03893 17.1836 2.98034 17.1953 2.63659L17.207 2.40221L17.8047 2.39049L18.3984 2.37877V3.18346V3.98424H16.8672C15.5 3.98424 15.332 3.97643 15.2656 3.91783C15.2031 3.86315 15.1953 3.78502 15.1953 3.19909V2.54284L15.3008 2.4608C15.3945 2.38659 15.4453 2.38268 15.8945 2.39049L16.3867 2.40221L16.4102 2.67565ZM14.4141 3.20299V3.59362H14.0039H13.5938V3.20299V2.81237H14.0039H14.4141V3.20299ZM5.42969 5.72643C5.65234 5.79283 6.5625 6.38658 8.37891 7.65221C9.25 8.25768 9.41406 8.35924 9.53906 8.35924C9.66406 8.35924 9.84375 8.25377 10.7461 7.65612C11.332 7.2694 11.8477 6.94127 11.9023 6.92955C12.0352 6.8944 12.2227 6.98815 12.3086 7.12487C12.4883 7.41783 12.418 7.50377 11.4648 8.13658C10.0625 9.07408 9.76562 9.25768 9.63281 9.25768C9.55469 9.25768 9.40625 9.19518 9.23828 9.08971C7.12109 7.78502 6.93359 7.67565 6.78906 7.67565C6.68359 7.67565 6.61328 7.7069 6.54297 7.7733C6.41406 7.90612 4.6875 11.6756 4.6875 11.828C4.6875 11.8944 4.69922 11.9725 4.71094 12.0077C4.72266 12.0389 5.34375 12.5858 6.08984 13.2186C6.85156 13.8631 7.46875 14.4217 7.49609 14.4803C7.52734 14.5467 7.60156 15.3202 7.68359 16.453C7.82031 18.3202 7.82031 18.3202 7.74609 18.4647C7.52734 18.8905 6.94922 18.9022 6.70703 18.4842C6.64453 18.3788 6.60938 18.0975 6.49609 16.7655C6.42188 15.8905 6.34375 15.1288 6.32422 15.0741C6.30078 15.0194 5.46484 14.2421 4.43359 13.3241C3.41797 12.4178 2.51172 11.5975 2.42188 11.4999C2.33203 11.4022 2.20312 11.2069 2.13672 11.0624C2.03125 10.8436 2.01172 10.7538 2.01172 10.5272C2.01172 10.2538 2.01562 10.2499 2.90234 8.29674C3.39844 7.2069 3.84375 6.28112 3.91016 6.19908C4.26953 5.76549 4.89844 5.56627 5.42969 5.72643ZM2.94141 13.0624L3.20312 13.2967V15.8006V18.3046L3.11328 18.4764C2.89844 18.8944 2.30469 18.8983 2.08203 18.4764L1.99219 18.3085V15.2616V12.2186L2.33594 12.5272C2.52344 12.6952 2.79688 12.9374 2.94141 13.0624Z" fill="#7356C0"/>
</svg>
