<svg width="122" height="33" viewBox="0 0 122 33" fill="none" xmlns="http://www.w3.org/2000/svg">
<path d="M16.6998 0.0645716C21.3235 0.406667 25.0708 3.94997 25.6709 8.54735C26.271 13.1447 23.5587 17.5312 19.1777 19.0486L28.9765 32.189H0.0322266V0H15.2388C15.7716 0 16.2558 0.0242144 16.6998 0.0645716Z" fill="#157EFF"/>
<path d="M18.8708 32.1887H0V0L28.7748 32.1887H18.8708Z" fill="#157EFF"/>
<path d="M28.9768 32.189H0L14.3911 9.71045L28.9768 32.189Z" fill="#00BDFF"/>
<path d="M0 18.6287V0H8.08747L20.1704 18.6205L0 18.6287Z" fill="#1560FA"/>
<path d="M8.68457 18.6289L14.3911 9.71045L20.1786 18.6289H8.68457Z" fill="#00EFE9"/>
<path d="M28.9764 32.189H18.2086L14.3906 9.71045L28.9764 32.189Z" fill="#157EFF" fill-opacity="0.5"/>
<path d="M43.0288 10.9932V14.5608H45.1112C46.7255 14.5608 47.4681 13.7537 47.4439 12.7528C47.4196 11.7519 46.6367 10.9932 45.1112 10.9932H43.0288ZM45.1677 8.32157C48.2429 8.32157 50.2608 10.178 50.2608 12.7528C50.2608 15.3276 48.8725 16.724 47.2986 17.0468L50.5272 22.8825H47.2986L44.3121 17.4181H43.0288V22.8825H40.123V8.35386L45.1677 8.32157ZM54.7647 16.8531H59.2362C59.1375 15.6917 58.166 14.7994 57.0005 14.7994C55.8349 14.7994 54.8634 15.6917 54.7647 16.8531ZM61.9644 17.7894C61.9662 18.0941 61.95 18.3986 61.916 18.7015H54.7566C54.9086 19.9885 56.047 20.9277 57.3395 20.8323C58.2754 20.8107 59.1757 20.4689 59.89 19.8637L61.5043 21.6153C60.3199 22.6582 58.7791 23.2046 57.2022 23.1408C55.7831 23.2169 54.3989 22.6841 53.3971 21.6761C52.3953 20.6681 51.871 19.2807 51.9558 17.862C51.9558 14.6899 54.0382 12.5268 57.065 12.5268C60.0918 12.5268 61.9644 14.6819 61.9725 17.8217L61.9644 17.7894ZM66.9203 17.8378C66.8432 18.8152 67.321 19.7533 68.157 20.2656C68.9929 20.778 70.0456 20.778 70.8816 20.2656C71.7176 19.7533 72.1954 18.8152 72.1183 17.8378C72.1954 16.8604 71.7176 15.9223 70.8816 15.41C70.0456 14.8977 68.9929 14.8977 68.157 15.41C67.321 15.9223 66.8432 16.8604 66.9203 17.8378ZM74.911 17.8378C74.911 20.8646 72.8044 23.1408 70.0197 23.1408C68.8726 23.1936 67.7661 22.7105 67.0252 21.8332V27.0473H64.3455V12.8174H67.0252V13.9312C67.7517 13.018 68.8698 12.5055 70.0359 12.551C72.8286 12.551 74.9352 14.8272 74.9352 17.854L74.911 17.8378ZM86.5339 18.5885C86.5339 21.7686 84.282 23.1488 81.7637 23.1488C79.2454 23.1488 76.9773 21.7767 76.9773 18.5885V12.8174H79.6974V18.3625C79.6974 19.9768 80.5852 20.6305 81.7637 20.6305C82.9421 20.6305 83.83 19.9768 83.83 18.3625V12.8174H86.542L86.5339 18.5885ZM91.8046 17.8378C91.7275 18.8152 92.2053 19.7533 93.0412 20.2656C93.8772 20.778 94.9299 20.778 95.7659 20.2656C96.6018 19.7533 97.0797 18.8152 97.0026 17.8378C97.0797 16.8604 96.6018 15.9223 95.7659 15.41C94.9299 14.8977 93.8772 14.8977 93.0412 15.41C92.2053 15.9223 91.7275 16.8604 91.8046 17.8378ZM99.7953 17.8378C99.7953 20.8646 97.6887 23.1408 94.904 23.1408C93.7345 23.1895 92.6113 22.6803 91.8772 21.7686V22.8825H89.2217V7.90186H91.9337V13.8505C92.6598 12.9703 93.7558 12.4805 94.8959 12.5268C97.6886 12.5268 99.7953 14.8029 99.7953 17.8297" fill="black"/>
<path d="M102.015 22.8826H104.735V7.90186H102.015V22.8826Z" fill="black"/>
<path d="M107.592 22.8827H110.313V12.8176H107.592V22.8827ZM110.676 9.50019C110.667 10.4554 109.888 11.2238 108.932 11.2194C107.977 11.2149 107.205 10.4393 107.205 9.48408C107.205 8.52882 107.977 7.75317 108.932 7.74869C109.397 7.7443 109.845 7.92768 110.173 8.25735C110.501 8.58701 110.682 9.03509 110.676 9.50019ZM121.96 14.4319L119.998 16.0461C119.468 15.4239 118.693 15.0642 117.875 15.0614C117.163 15.0704 116.486 15.3741 116.006 15.9002C115.526 16.4263 115.285 17.1279 115.341 17.838C115.28 18.5479 115.518 19.251 115.998 19.778C116.477 20.305 117.155 20.6082 117.867 20.6146C118.711 20.6046 119.51 20.2345 120.063 19.5976L122 21.2119C121.029 22.4447 119.533 23.1476 117.964 23.1087C116.53 23.1822 115.131 22.6496 114.109 21.6411C113.086 20.6325 112.535 19.2408 112.589 17.8057C112.537 16.3713 113.089 14.9811 114.111 13.9731C115.133 12.9651 116.531 12.4318 117.964 12.5028C119.536 12.4592 121.035 13.1666 122 14.4076" fill="black"/>
</svg>
