<svg width="96" height="96" viewBox="0 0 96 96" fill="none" xmlns="http://www.w3.org/2000/svg">
<path opacity="0.4" d="M26.921 78.8C30.201 75.2801 35.2009 75.56 38.0809 79.4L42.121 84.8C45.361 89.08 50.6009 89.08 53.8409 84.8L57.881 79.4C60.761 75.56 65.761 75.2801 69.041 78.8C76.161 86.4 81.9609 83.88 81.9609 73.24V28.2C81.9609 12.08 78.2009 8.04004 63.0809 8.04004H32.8409C17.7209 8.04004 13.9609 12.08 13.9609 28.2V73.24C14.0009 83.88 19.841 86.36 26.921 78.8Z" fill="#7356C0"/>
<path d="M59.3598 39.96L57.3598 42H57.3197L45.1997 54.12C44.6797 54.64 43.5998 55.2 42.8398 55.28L37.4397 56.08C35.4797 56.36 34.1198 54.96 34.3998 53.04L35.1598 47.6C35.2798 46.84 35.7997 45.8 36.3197 45.24L48.4798 33.12L50.4798 31.08C51.7998 29.76 53.2798 28.8 54.8798 28.8C56.2398 28.8 57.7198 29.44 59.3598 31.08C62.9598 34.68 61.7998 37.52 59.3598 39.96Z" fill="#7356C0"/>
</svg>
