<svg width="80" height="80" viewBox="0 0 80 80" fill="none" xmlns="http://www.w3.org/2000/svg">
<rect opacity="0.4" width="80" height="80" rx="14.4" fill="#7356C0"/>
<path d="M22.4987 61.5C20.7718 61.5 19.3327 60.9566 18.1815 59.8698C17.0605 58.7528 16.5 57.3339 16.5 55.6131C16.5 53.8923 17.0605 52.5036 18.1815 51.4469C19.3327 50.3601 20.7718 49.8167 22.4987 49.8167C24.2256 49.8167 25.6496 50.3601 26.7706 51.4469C27.9218 52.5036 28.4975 53.8923 28.4975 55.6131C28.4975 57.3339 27.9218 58.7528 26.7706 59.8698C25.6496 60.9566 24.2256 61.5 22.4987 61.5Z" fill="#7356C0"/>
<path d="M38.0349 61.1576L23.038 18.5H32.127L47.1238 61.1576H38.0349Z" fill="#7356C0"/>
<path d="M54.411 61.1576L39.4142 18.5H48.5032L63.5 61.1576H54.411Z" fill="#7356C0"/>
</svg>
