<svg width="148" height="16" viewBox="0 0 148 16" fill="none" xmlns="http://www.w3.org/2000/svg">
<path d="M4.864 12.144C7.088 12.144 8.816 10.944 8.816 8.832C8.816 6.496 6.832 6.032 5.072 5.6C3.632 5.264 2.336 4.944 2.336 3.728C2.336 2.656 3.36 2.016 4.72 2.016C6.08 2.016 7.104 2.736 7.104 3.984H8.496C8.496 1.952 7.072 0.672 4.752 0.672C2.432 0.672 0.944 1.84 0.944 3.776C0.944 6.016 2.848 6.48 4.576 6.88C6.032 7.232 7.36 7.536 7.36 8.848C7.36 10.032 6.256 10.768 4.848 10.768C3.296 10.768 2.16 9.952 2.16 8.56H0.72C0.72 10.768 2.4 12.144 4.864 12.144ZM16.1309 12.192C18.4829 12.192 19.9709 10.688 19.9709 8.368V3.36H18.6109V8.144C18.6109 9.824 17.6829 10.88 16.1309 10.88C14.6109 10.88 13.6669 9.84 13.6669 8.144V3.36H12.3069V8.368C12.3069 10.688 13.8109 12.192 16.1309 12.192ZM28.0562 3.328C26.8082 3.328 25.9122 3.792 25.2882 4.688L25.0802 3.36H24.1042V12H25.4642V7.312C25.4642 5.632 26.3602 4.608 27.9442 4.608H28.8242V3.328H28.0562ZM37.9161 3.36L35.0521 10.24L32.1081 3.36H30.7001L34.4281 12H35.6761L39.3081 3.36H37.9161ZM50.3504 7.728C50.3504 5.2 48.6224 3.184 45.9984 3.184C43.4864 3.184 41.5984 5.12 41.5984 7.68C41.5984 10.256 43.4864 12.192 45.9984 12.192C47.8704 12.192 49.3904 11.152 50.1264 9.376H48.6864C48.1584 10.304 47.1984 10.864 45.9984 10.864C44.3664 10.864 43.1664 9.808 42.9584 8.208H50.3184C50.3344 8.048 50.3504 7.888 50.3504 7.728ZM45.9984 4.464C47.5344 4.464 48.7024 5.424 48.9904 6.96H42.9904C43.2624 5.456 44.4304 4.464 45.9984 4.464ZM59.9938 3.36L57.0978 9.904L54.0258 3.36H52.5538L56.3938 11.424L56.0898 12.064C55.3858 13.504 54.9858 13.856 53.8178 13.856H53.1298V15.088H53.9458C55.5778 15.088 56.3938 14.416 57.3218 12.368L61.4498 3.36H59.9938ZM76.5904 12H78.1744L75.4864 7.456C76.9584 7.04 77.9664 5.808 77.9664 4.224C77.9664 2.24 76.4144 0.799999 74.3184 0.799999H70.0624V12H71.4704V7.632H74.0144L76.5904 12ZM71.4704 2.144H74.2384C75.6144 2.144 76.5264 3.024 76.5264 4.224C76.5264 5.424 75.6144 6.288 74.2384 6.288H71.4704V2.144ZM89.6514 7.728C89.6514 5.2 87.9234 3.184 85.2994 3.184C82.7874 3.184 80.8994 5.12 80.8994 7.68C80.8994 10.256 82.7874 12.192 85.2994 12.192C87.1714 12.192 88.6914 11.152 89.4274 9.376H87.9874C87.4594 10.304 86.4994 10.864 85.2994 10.864C83.6674 10.864 82.4674 9.808 82.2594 8.208H89.6194C89.6354 8.048 89.6514 7.888 89.6514 7.728ZM85.2994 4.464C86.8354 4.464 88.0034 5.424 88.2914 6.96H82.2914C82.5634 5.456 83.7314 4.464 85.2994 4.464ZM103.628 3.36L101.436 9.792L98.7637 3.504H98.2677L95.6277 9.728L93.4677 3.36H92.0597L94.9717 12H96.0757L98.5237 6.128L100.956 12H102.06L105.004 3.36H103.628ZM115.473 3.36L115.297 4.688C114.497 3.744 113.297 3.184 111.889 3.184C109.329 3.184 107.409 5.104 107.409 7.696C107.409 10.256 109.329 12.192 111.889 12.192C113.297 12.192 114.481 11.632 115.281 10.704L115.425 12H116.545V3.36H115.473ZM111.985 10.88C110.161 10.88 108.801 9.504 108.801 7.68C108.801 5.872 110.161 4.496 111.985 4.496C113.825 4.496 115.153 5.856 115.153 7.68C115.153 9.52 113.825 10.88 111.985 10.88ZM124.78 3.328C123.532 3.328 122.636 3.792 122.012 4.688L121.804 3.36H120.828V12H122.188V7.312C122.188 5.632 123.084 4.608 124.668 4.608H125.548V3.328H124.78ZM135.255 0.287999V4.464C134.455 3.664 133.335 3.184 132.055 3.184C129.463 3.184 127.591 5.104 127.591 7.696C127.591 10.256 129.463 12.192 132.055 12.192C133.415 12.192 134.583 11.664 135.383 10.784L135.559 12.016H136.615V0.287999H135.255ZM132.151 10.88C130.327 10.88 128.983 9.52 128.983 7.696C128.983 5.856 130.327 4.496 132.151 4.496C133.991 4.496 135.335 5.872 135.335 7.696C135.335 9.504 133.991 10.88 132.151 10.88ZM143.637 12.192C145.685 12.192 147.061 11.152 147.061 9.536C147.061 7.424 145.301 7.136 143.813 6.896C142.661 6.72 141.669 6.544 141.669 5.632C141.669 4.88 142.405 4.4 143.573 4.4C144.789 4.4 145.525 4.912 145.573 5.856H146.853C146.805 4.224 145.557 3.184 143.605 3.184C141.653 3.184 140.341 4.192 140.341 5.68C140.341 7.632 142.005 7.936 143.477 8.192C144.645 8.384 145.717 8.576 145.717 9.6C145.717 10.432 144.869 10.944 143.685 10.944C142.469 10.944 141.589 10.384 141.525 9.36H140.181C140.261 11.104 141.589 12.192 143.637 12.192Z" fill="#3F2B89"/>
</svg>
