<svg width="96" height="96" viewBox="0 0 96 96" fill="none" xmlns="http://www.w3.org/2000/svg">
<path d="M70.9998 28.1999C70.0398 28.0399 69.0398 27.9999 67.9998 27.9999H27.9998C26.8798 27.9999 25.7998 28.0799 24.7598 28.2399C25.3198 27.1199 26.1198 26.08 27.0798 25.12L40.0798 12.08C45.5598 6.64 54.4398 6.64 59.9198 12.08L66.9198 19.1598C69.4798 21.6798 70.8398 24.8799 70.9998 28.1999Z" fill="#7356C0"/>
<path d="M20 60C11.16 60 4 67.16 4 76C4 79 4.84 81.84 6.32 84.24C9.08 88.88 14.16 92 20 92C25.84 92 30.92 88.88 33.68 84.24C35.16 81.84 36 79 36 76C36 67.16 28.84 60 20 60ZM25.96 78.9199H23V82.04C23 83.68 21.64 85.04 20 85.04C18.36 85.04 17 83.68 17 82.04V78.9199H14.04C12.4 78.9199 11.04 77.5599 11.04 75.9199C11.04 74.2799 12.4 72.9199 14.04 72.9199H17V70.0801C17 68.4401 18.36 67.0801 20 67.0801C21.64 67.0801 23 68.4401 23 70.0801V72.9199H25.96C27.6 72.9199 28.96 74.2799 28.96 75.9199C28.96 77.5599 27.64 78.9199 25.96 78.9199Z" fill="#7356C0"/>
<path opacity="0.4" d="M88 48V68C88 80 80 88 68 88H30.52C31.76 86.96 32.84 85.68 33.68 84.24C35.16 81.84 36 79 36 76C36 67.16 28.84 60 20 60C15.2 60 10.92 62.1199 8 65.4399V48C8 37.12 14.56 29.52 24.76 28.24C25.8 28.08 26.88 28 28 28H68C69.04 28 70.04 28.04 71 28.2C81.32 29.4 88 37.04 88 48Z" fill="#7356C0"/>
<path d="M88 50H76C71.6 50 68 53.6 68 58C68 62.4 71.6 66 76 66H88" fill="#7356C0"/>
</svg>
