<svg width="96" height="96" viewBox="0 0 96 96" fill="none" xmlns="http://www.w3.org/2000/svg">
<path opacity="0.4" d="M26.92 78.8C30.2 75.28 35.2 75.56 38.08 79.4L42.12 84.8C45.36 89.08 50.6 89.08 53.84 84.8L57.88 79.4C60.76 75.56 65.76 75.28 69.04 78.8C76.16 86.4 81.96 83.88 81.96 73.24V28.16C82 12.04 78.24 8 63.12 8H32.88C17.76 8 14 12.04 14 28.16V73.2C14 83.88 19.84 86.36 26.92 78.8Z" fill="#7356C0"/>
<path d="M64.9199 47H42.9199C41.2799 47 39.9199 45.64 39.9199 44C39.9199 42.36 41.2799 41 42.9199 41H64.9199C66.5599 41 67.9199 42.36 67.9199 44C67.9199 45.64 66.5599 47 64.9199 47Z" fill="#7356C0"/>
<path d="M64.9199 31H42.9199C41.2799 31 39.9199 29.64 39.9199 28C39.9199 26.36 41.2799 25 42.9199 25H64.9199C66.5599 25 67.9199 26.36 67.9199 28C67.9199 29.64 66.5599 31 64.9199 31Z" fill="#7356C0"/>
<path d="M31.1191 32C28.9191 32 27.1191 30.2 27.1191 28C27.1191 25.8 28.9191 24 31.1191 24C33.3191 24 35.1191 25.8 35.1191 28C35.1191 30.2 33.3191 32 31.1191 32Z" fill="#7356C0"/>
<path d="M31.1191 48C28.9191 48 27.1191 46.2 27.1191 44C27.1191 41.8 28.9191 40 31.1191 40C33.3191 40 35.1191 41.8 35.1191 44C35.1191 46.2 33.3191 48 31.1191 48Z" fill="#7356C0"/>
</svg>
