<svg width="56" height="56" viewBox="0 0 56 56" fill="none" xmlns="http://www.w3.org/2000/svg">
<rect width="56" height="56" rx="12" fill="#EADFFC"/>
<path opacity="0.4" d="M28 38C33.5228 38 38 33.5228 38 28C38 22.4772 33.5228 18 28 18C22.4772 18 18 22.4772 18 28C18 33.5228 22.4772 38 28 38Z" fill="#3F2B89"/>
<path d="M31.7106 31.93C31.5806 31.93 31.4506 31.9 31.3306 31.82L28.2306 29.97C27.4606 29.51 26.8906 28.5 26.8906 27.61V23.51C26.8906 23.1 27.2306 22.76 27.6406 22.76C28.0506 22.76 28.3906 23.1 28.3906 23.51V27.61C28.3906 27.97 28.6906 28.5 29.0006 28.68L32.1006 30.53C32.4606 30.74 32.5706 31.2 32.3606 31.56C32.2106 31.8 31.9606 31.93 31.7106 31.93Z" fill="#3F2B89"/>
</svg>
