<svg width="20" height="20" viewBox="0 0 20 20" fill="none" xmlns="http://www.w3.org/2000/svg">
<path opacity="0.4" d="M14.19 0H5.81C2.17 0 0 2.17 0 5.81V14.18C0 17.83 2.17 20 5.81 20H14.18C17.82 20 19.99 17.83 19.99 14.19V5.81C20 2.17 17.83 0 14.19 0Z" fill="#3F2B89"/>
<path d="M4.88086 16.9C4.47086 16.9 4.13086 16.56 4.13086 16.15V14.08C4.13086 13.67 4.47086 13.33 4.88086 13.33C5.29086 13.33 5.63086 13.67 5.63086 14.08V16.15C5.63086 16.57 5.29086 16.9 4.88086 16.9Z" fill="#3F2B89"/>
<path d="M10 16.9C9.59 16.9 9.25 16.56 9.25 16.15V12C9.25 11.59 9.59 11.25 10 11.25C10.41 11.25 10.75 11.59 10.75 12V16.15C10.75 16.57 10.41 16.9 10 16.9Z" fill="#3F2B89"/>
<path d="M15.1191 16.9C14.7091 16.9 14.3691 16.56 14.3691 16.15V9.92999C14.3691 9.51999 14.7091 9.17999 15.1191 9.17999C15.5291 9.17999 15.8691 9.51999 15.8691 9.92999V16.15C15.8691 16.57 15.5391 16.9 15.1191 16.9Z" fill="#3F2B89"/>
<path d="M15.871 3.81998C15.871 3.76998 15.851 3.70998 15.841 3.65998C15.831 3.61998 15.821 3.56998 15.811 3.52998C15.791 3.48998 15.761 3.45998 15.741 3.41998C15.711 3.37998 15.681 3.32998 15.641 3.29998C15.631 3.28998 15.631 3.27998 15.621 3.27998C15.591 3.25998 15.561 3.24998 15.531 3.22998C15.491 3.19998 15.441 3.16998 15.391 3.14998C15.341 3.12998 15.291 3.12998 15.241 3.11998C15.201 3.10998 15.171 3.09998 15.131 3.09998H12.201C11.791 3.09998 11.451 3.43998 11.451 3.84998C11.451 4.25998 11.791 4.59998 12.201 4.59998H13.451C11.071 7.09998 8.07096 8.85998 4.70096 9.70998C4.30096 9.80998 4.05096 10.22 4.15096 10.62C4.23096 10.96 4.54096 11.19 4.88096 11.19C4.94096 11.19 5.00096 11.18 5.06096 11.17C8.63096 10.28 11.821 8.42998 14.371 5.80998V6.77998C14.371 7.18998 14.711 7.52998 15.121 7.52998C15.531 7.52998 15.871 7.18998 15.871 6.77998V3.84998C15.871 3.83998 15.871 3.82998 15.871 3.81998Z" fill="#3F2B89"/>
</svg>
