<svg width="56" height="56" viewBox="0 0 56 56" fill="none" xmlns="http://www.w3.org/2000/svg">
<rect width="56" height="56" rx="12" fill="#EADFFC"/>
<path opacity="0.4" d="M32.19 18H23.81C20.17 18 18 20.17 18 23.81V32.18C18 35.83 20.17 38 23.81 38H32.18C35.82 38 37.99 35.83 37.99 32.19V23.81C38 20.17 35.83 18 32.19 18Z" fill="#3F2B89"/>
<path d="M22.8809 34.9C22.4709 34.9 22.1309 34.56 22.1309 34.15V32.08C22.1309 31.67 22.4709 31.33 22.8809 31.33C23.2909 31.33 23.6309 31.67 23.6309 32.08V34.15C23.6309 34.57 23.2909 34.9 22.8809 34.9Z" fill="#3F2B89"/>
<path d="M28 34.9C27.59 34.9 27.25 34.56 27.25 34.15V30C27.25 29.59 27.59 29.25 28 29.25C28.41 29.25 28.75 29.59 28.75 30V34.15C28.75 34.57 28.41 34.9 28 34.9Z" fill="#3F2B89"/>
<path d="M33.1191 34.9C32.7091 34.9 32.3691 34.56 32.3691 34.15V27.93C32.3691 27.52 32.7091 27.18 33.1191 27.18C33.5291 27.18 33.8691 27.52 33.8691 27.93V34.15C33.8691 34.57 33.5391 34.9 33.1191 34.9Z" fill="#3F2B89"/>
<path d="M33.871 21.82C33.871 21.77 33.851 21.71 33.841 21.66C33.831 21.62 33.821 21.57 33.811 21.53C33.791 21.49 33.761 21.46 33.741 21.42C33.711 21.38 33.681 21.33 33.641 21.3C33.631 21.29 33.631 21.28 33.621 21.28C33.591 21.26 33.561 21.25 33.531 21.23C33.491 21.2 33.441 21.17 33.391 21.15C33.341 21.13 33.291 21.13 33.241 21.12C33.201 21.11 33.171 21.1 33.131 21.1H30.201C29.791 21.1 29.451 21.44 29.451 21.85C29.451 22.26 29.791 22.6 30.201 22.6H31.451C29.071 25.1 26.071 26.86 22.701 27.71C22.301 27.81 22.051 28.22 22.151 28.62C22.231 28.96 22.541 29.19 22.881 29.19C22.941 29.19 23.001 29.18 23.061 29.17C26.631 28.28 29.821 26.43 32.371 23.81V24.78C32.371 25.19 32.711 25.53 33.121 25.53C33.531 25.53 33.871 25.19 33.871 24.78V21.85C33.871 21.84 33.871 21.83 33.871 21.82Z" fill="#3F2B89"/>
</svg>
