<svg width="56" height="56" viewBox="0 0 56 56" fill="none" xmlns="http://www.w3.org/2000/svg">
<rect width="56" height="56" rx="12" fill="#EADFFC"/>
<path opacity="0.4" d="M33.5291 23.77C33.4591 23.76 33.3891 23.76 33.3191 23.77C31.7691 23.72 30.5391 22.45 30.5391 20.89C30.5391 19.3 31.8291 18 33.4291 18C35.0191 18 36.3191 19.29 36.3191 20.89C36.3091 22.45 35.0791 23.72 33.5291 23.77Z" fill="#3F2B89"/>
<path opacity="0.4" d="M36.7896 30.7C35.6696 31.45 34.0996 31.73 32.6496 31.54C33.0296 30.72 33.2296 29.81 33.2396 28.85C33.2396 27.85 33.0196 26.9 32.5996 26.07C34.0796 25.87 35.6496 26.15 36.7796 26.9C38.3596 27.94 38.3596 29.65 36.7896 30.7Z" fill="#3F2B89"/>
<path opacity="0.4" d="M22.4404 23.77C22.5104 23.76 22.5804 23.76 22.6504 23.77C24.2004 23.72 25.4304 22.45 25.4304 20.89C25.4304 19.3 24.1404 18 22.5404 18C20.9504 18 19.6504 19.29 19.6504 20.89C19.6604 22.45 20.8904 23.72 22.4404 23.77Z" fill="#3F2B89"/>
<path opacity="0.4" d="M22.5491 28.85C22.5491 29.82 22.7591 30.74 23.1391 31.57C21.7291 31.72 20.2591 31.42 19.1791 30.71C17.5991 29.66 17.5991 27.95 19.1791 26.9C20.2491 26.18 21.7591 25.89 23.1791 26.05C22.7691 26.89 22.5491 27.84 22.5491 28.85Z" fill="#3F2B89"/>
<path d="M28.1208 31.87C28.0408 31.86 27.9508 31.86 27.8608 31.87C26.0208 31.81 24.5508 30.3 24.5508 28.44C24.5508 26.54 26.0808 25 27.9908 25C29.8908 25 31.4308 26.54 31.4308 28.44C31.4308 30.3 29.9708 31.81 28.1208 31.87Z" fill="#3F2B89"/>
<path d="M24.8708 33.94C23.3608 34.95 23.3608 36.61 24.8708 37.61C26.5908 38.76 29.4108 38.76 31.1308 37.61C32.6408 36.6 32.6408 34.94 31.1308 33.94C29.4208 32.79 26.6008 32.79 24.8708 33.94Z" fill="#3F2B89"/>
</svg>
