<svg width="150" height="30" viewBox="0 0 150 30" fill="none" xmlns="http://www.w3.org/2000/svg">
<g clip-path="url(#clip0_1421_4552)">
<path d="M11.7495 4.58214C9.99062 4.58214 9.46294 5.35606 9.46294 7.0798V9.92924H14.1768L13.7195 14.5728H9.46294V28.6089H3.79925V14.5728H0V9.96441H3.79925V7.18533C3.79925 2.47145 5.69887 0.00897217 10.9404 0.00897217C12.031 0.00897217 13.1567 0.0793286 14.2472 0.220042V4.58214" fill="#1C105A"/>
<path d="M14.5645 18.6886C14.5645 13.4823 17.027 9.5423 22.2333 9.5423C25.0476 9.5423 26.7713 10.9846 27.6156 12.8139V9.96444H33.0331V28.6441H27.5804V25.8298C26.8065 27.6239 25.0124 29.031 22.1982 29.031C17.027 29.031 14.5293 25.1263 14.5293 19.8847L14.5645 18.6886ZM20.2282 19.9551C20.2282 22.7341 21.2484 24.5986 23.8867 24.5986C26.2085 24.5986 27.3694 22.91 27.3694 20.2365V18.3369C27.3694 15.6633 26.1733 13.9748 23.8867 13.9748C21.2484 13.9748 20.2282 15.804 20.2282 18.6183V19.9551Z" fill="#1C105A"/>
<path d="M44.7814 9.5423C46.9624 9.5423 49.0731 9.99961 50.1988 10.8087L48.9324 14.819C47.7715 14.2562 46.4699 13.9748 45.1683 13.9748C42.1078 13.9748 40.7711 15.7337 40.7711 18.759V19.8495C40.7711 22.8748 42.1078 24.6338 45.1683 24.6338C46.4699 24.6338 47.7715 24.3172 48.9324 23.7543L50.1988 27.7646C49.0731 28.5385 46.9976 29.031 44.7814 29.031C38.1327 29.031 35.1426 25.478 35.1426 19.744V18.8645C35.1426 13.1305 38.1327 9.5423 44.7814 9.5423Z" fill="#1C105A"/>
<path d="M50.9375 19.9902V18.3369C50.9375 13.0249 53.9628 9.5423 60.119 9.5423C65.9234 9.5423 68.4914 13.0601 68.4914 18.2665V21.2567H56.6012C56.7067 23.8247 57.8676 24.9504 60.9985 24.9504C63.0388 24.9504 65.0791 24.5634 67.0139 23.8247L68.0341 27.6943C66.5566 28.4682 63.4961 29.0662 60.7874 29.0662C53.611 29.031 50.9375 25.478 50.9375 19.9902ZM56.6012 17.5278H63.4258V17.0704C63.4258 15.0301 62.6166 13.4119 60.119 13.4119C57.5862 13.4119 56.6012 15.0301 56.6012 17.5278Z" fill="#1C105A"/>
<path d="M89.4589 19.8847C89.4589 25.0911 86.9612 29.031 81.7549 29.031C78.9406 29.031 76.9706 27.6239 76.1967 25.8298V28.6441H70.8496V0.571841L76.5133 0.0793457V12.5676C77.3224 10.9142 79.1517 9.57747 81.79 9.57747C86.9612 9.57747 89.4941 13.4823 89.4941 18.7238L89.4589 19.8847ZM83.7952 18.5831C83.7952 15.9447 82.775 13.9747 80.0663 13.9747C77.7445 13.9747 76.5133 15.6281 76.5133 18.3017V20.2717C76.5133 22.9452 77.7797 24.5986 80.0663 24.5986C82.775 24.5986 83.7952 22.6286 83.7952 19.9902V18.5831Z" fill="#1C105A"/>
<path d="M91.3223 19.744V18.7942C91.3223 13.4119 94.3828 9.5423 100.609 9.5423C106.836 9.5423 109.897 13.4119 109.897 18.7942V19.744C109.897 25.1263 106.836 28.9959 100.609 28.9959C94.3828 28.9959 91.3223 25.1614 91.3223 19.744ZM104.268 18.4072C104.268 15.9447 103.248 13.9748 100.609 13.9748C97.971 13.9748 96.9508 15.9447 96.9508 18.4072V20.1661C96.9508 22.6286 97.971 24.5986 100.609 24.5986C103.248 24.5986 104.268 22.6286 104.268 20.1661V18.4072Z" fill="#1C105A"/>
<path d="M111.832 19.744V18.7942C111.832 13.4119 114.893 9.5423 121.119 9.5423C127.346 9.5423 130.406 13.4119 130.406 18.7942V19.744C130.406 25.1263 127.346 28.9959 121.119 28.9959C114.893 28.9959 111.832 25.1614 111.832 19.744ZM124.778 18.4072C124.778 15.9447 123.757 13.9748 121.119 13.9748C118.481 13.9748 117.461 15.9447 117.461 18.4072V20.1661C117.461 22.6286 118.481 24.5986 121.119 24.5986C123.757 24.5986 124.778 22.6286 124.778 20.1661V18.4072Z" fill="#1C105A"/>
<path d="M138.179 18.8645L143.773 9.92921H149.753L143.913 19.1811L149.999 28.644H143.984L138.179 19.4977V28.644H132.551V0.571802L138.179 0.0441284" fill="#1C105A"/>
</g>
<defs>
<clipPath id="clip0_1421_4552">
<rect width="150" height="29.04" fill="white"/>
</clipPath>
</defs>
</svg>
