<svg width="56" height="56" viewBox="0 0 56 56" fill="none" xmlns="http://www.w3.org/2000/svg">
<rect width="56" height="56" rx="12" fill="#EADFFC"/>
<path d="M26.6 20.15V22H25.12C23.51 22 22.7 22.81 22.7 24.42V34H20.15C18.72 34 18 33.28 18 31.85V20.15C18 18.72 18.72 18 20.15 18H24.45C25.88 18 26.6 18.72 26.6 20.15Z" fill="#3F2B89"/>
<path opacity="0.4" d="M33.3692 24.42V35.58C33.3692 37.19 32.5692 38 30.9592 38H25.1192C23.5092 38 22.6992 37.19 22.6992 35.58V24.42C22.6992 22.81 23.5092 22 25.1192 22H30.9592C32.5692 22 33.3692 22.81 33.3692 24.42Z" fill="#3F2B89"/>
<path d="M38.0004 20.15V31.85C38.0004 33.28 37.2803 34 35.8503 34H33.3704V24.42C33.3704 22.81 32.5704 22 30.9604 22H29.4004V20.15C29.4004 18.72 30.1204 18 31.5504 18H35.8503C37.2803 18 38.0004 18.72 38.0004 20.15Z" fill="#3F2B89"/>
<path d="M30 27.75H26C25.59 27.75 25.25 27.41 25.25 27C25.25 26.59 25.59 26.25 26 26.25H30C30.41 26.25 30.75 26.59 30.75 27C30.75 27.41 30.41 27.75 30 27.75Z" fill="#3F2B89"/>
<path d="M30 30.75H26C25.59 30.75 25.25 30.41 25.25 30C25.25 29.59 25.59 29.25 26 29.25H30C30.41 29.25 30.75 29.59 30.75 30C30.75 30.41 30.41 30.75 30 30.75Z" fill="#3F2B89"/>
<path d="M28.75 35V38H27.25V35C27.25 34.59 27.59 34.25 28 34.25C28.41 34.25 28.75 34.59 28.75 35Z" fill="#3F2B89"/>
</svg>
