<svg width="20" height="20" viewBox="0 0 20 20" fill="none" xmlns="http://www.w3.org/2000/svg">
<path fill-rule="evenodd" clip-rule="evenodd" d="M16.25 0C18.3197 0 20 1.68038 20 3.75V16.25C20 18.3196 18.3196 20 16.25 20H3.75C1.68038 20 0 18.3196 0 16.25V3.75C0 1.68038 1.68025 0 3.75 0H16.25ZM2.964 17.0427H5.933V7.498H2.964V17.0427ZM17.0432 17.0427V11.8081C17.0432 9.2375 16.4882 7.26075 13.4854 7.26075C12.042 7.26075 11.0736 8.0525 10.6781 8.803H10.6375V7.498H7.7935V17.0427H10.7564V12.322C10.7564 11.0764 10.992 9.87025 12.5359 9.87025C14.0581 9.87025 14.0776 11.2942 14.0776 12.4009V17.0427H17.0432ZM4.449 6.1935C5.39787 6.1935 6.1685 5.4235 6.1685 4.4735C6.1685 3.524 5.39787 2.75337 4.449 2.75337C3.49625 2.75337 2.72788 3.524 2.72788 4.4735C2.72788 5.4235 3.49625 6.1935 4.449 6.1935Z" fill="white"/>
</svg>
