<svg width="144" height="32" viewBox="0 0 144 32" fill="none" xmlns="http://www.w3.org/2000/svg">
<path d="M4.43758 32C3.1601 32 2.09553 31.5956 1.24387 30.7868C0.414623 29.9555 0 28.8996 0 27.619C0 26.3384 0.414623 25.305 1.24387 24.5186C2.09553 23.7099 3.1601 23.3055 4.43758 23.3055C5.71507 23.3055 6.76843 23.7099 7.59768 24.5186C8.44934 25.305 8.87516 26.3384 8.87516 27.619C8.87516 28.8996 8.44934 29.9555 7.59768 30.7868C6.76843 31.5956 5.71507 32 4.43758 32Z" fill="#3F2B89"/>
<path d="M15.9305 31.7452L4.83653 0H11.5601L22.6541 31.7452H15.9305Z" fill="#3F2B89"/>
<path d="M28.0448 31.7452L16.9508 0H23.6745L34.7684 31.7452H28.0448Z" fill="#3F2B89"/>
<path d="M55.2261 13.5323V31.6628H50.2507V29.506C49.5559 30.2923 48.7266 30.8989 47.7629 31.3258C46.7992 31.7302 45.757 31.9324 44.6364 31.9324C42.2608 31.9324 40.3782 31.2471 38.9886 29.8767C37.5991 28.5062 36.9043 26.473 36.9043 23.777V13.5323H42.1487V23.0019C42.1487 25.9226 43.3702 27.3829 45.8131 27.3829C47.0682 27.3829 48.0767 26.9785 48.8387 26.1697C49.6007 25.3385 49.9817 24.114 49.9817 22.4964V13.5323H55.2261Z" fill="#3F2B89"/>
<path d="M65.0938 15.925C65.7214 15.0488 66.5618 14.386 67.6152 13.9367C68.691 13.4874 69.9236 13.2627 71.3132 13.2627V18.1155C70.7304 18.0705 70.3382 18.0481 70.1365 18.0481C68.6349 18.0481 67.4583 18.4749 66.6066 19.3287C65.755 20.1599 65.3291 21.418 65.3291 23.103V31.6628H60.0847V13.5323H65.0938V15.925Z" fill="#3F2B89"/>
<path d="M97.5943 13.2627C99.8579 13.2627 101.651 13.9367 102.973 15.2847C104.318 16.6102 104.99 18.6097 104.99 21.2832V31.6628H99.7459V22.092C99.7459 20.6542 99.4433 19.587 98.8382 18.8906C98.2555 18.1716 97.415 17.8122 96.3168 17.8122C95.0842 17.8122 94.1093 18.2166 93.3921 19.0254C92.6749 19.8117 92.3163 20.9912 92.3163 22.5638V31.6628H87.0719V22.092C87.0719 19.2388 85.9289 17.8122 83.6428 17.8122C82.4326 17.8122 81.4689 18.2166 80.7517 19.0254C80.0345 19.8117 79.6759 20.9912 79.6759 22.5638V31.6628H74.4315V13.5323H79.4406V15.6217C80.1129 14.8578 80.931 14.2737 81.8947 13.8693C82.8808 13.4649 83.9566 13.2627 85.122 13.2627C86.3995 13.2627 87.5537 13.5211 88.5847 14.0378C89.6157 14.5321 90.4449 15.2622 91.0724 16.2283C91.812 15.2847 92.7421 14.5545 93.8627 14.0378C95.0057 13.5211 96.2496 13.2627 97.5943 13.2627Z" fill="#3F2B89"/>
<path d="M127.912 13.5323V31.6628H122.937V29.506C122.242 30.2923 121.413 30.8989 120.449 31.3258C119.485 31.7302 118.443 31.9324 117.322 31.9324C114.947 31.9324 113.064 31.2471 111.675 29.8767C110.285 28.5062 109.59 26.473 109.59 23.777V13.5323H114.835V23.0019C114.835 25.9226 116.056 27.3829 118.499 27.3829C119.754 27.3829 120.763 26.9785 121.525 26.1697C122.287 25.3385 122.668 24.114 122.668 22.4964V13.5323H127.912Z" fill="#3F2B89"/>
<path d="M137.78 15.925C138.407 15.0488 139.248 14.386 140.301 13.9367C141.377 13.4874 142.61 13.2627 143.999 13.2627V18.1155C143.416 18.0705 143.024 18.0481 142.822 18.0481C141.321 18.0481 140.144 18.4749 139.293 19.3287C138.441 20.1599 138.015 21.418 138.015 23.103V31.6628H132.771V13.5323H137.78V15.925Z" fill="#3F2B89"/>
</svg>
