<svg width="129" height="33" viewBox="0 0 129 33" fill="none" xmlns="http://www.w3.org/2000/svg">
<path d="M41.5741 25.3906L43.1665 21.6969C44.8859 22.98 47.1663 23.646 49.4216 23.646C51.0919 23.646 52.1384 23.005 52.1384 22.0292C52.1133 19.3151 42.164 21.441 42.091 14.6217C42.0659 11.1625 45.1412 8.49226 49.4996 8.49226C52.0894 8.49226 54.678 9.13443 56.5257 10.5994L55.0377 14.3671C53.3472 13.2885 51.2441 12.5196 49.2442 12.5196C47.8833 12.5196 46.989 13.1618 46.989 13.9795C47.0141 16.6448 57.0364 15.1849 57.1395 21.6969C57.1395 25.2338 54.1434 27.7222 49.8341 27.7222C46.6795 27.7222 43.7803 26.9785 41.5741 25.3893V25.3906ZM102.578 20.3636C102.081 21.2474 101.304 21.9417 100.368 22.3374C99.4328 22.7331 98.392 22.8079 97.4093 22.55C96.4266 22.2921 95.5576 21.7161 94.9387 20.9125C94.3198 20.1088 93.9859 19.123 93.9896 18.1097C93.988 17.5076 94.1055 16.9111 94.3354 16.3543C94.5653 15.7975 94.9031 15.2914 95.3294 14.865C95.7558 14.4386 96.2623 14.1002 96.82 13.8693C97.3777 13.6384 97.9755 13.5194 98.5794 13.5192C100.294 13.5192 101.783 14.47 102.579 15.8521L106.961 13.4164C105.32 10.4965 102.165 8.49226 98.5794 8.49226C93.2677 8.49226 88.9634 12.8043 88.9634 18.1097C88.9634 23.4152 93.2677 27.7222 98.5794 27.7222C100.291 27.7259 101.972 27.2708 103.447 26.4045C104.921 25.5382 106.135 24.2926 106.961 22.7981L102.578 20.3649V20.3636ZM59.3457 0.520328H64.8348V27.3648H59.3457V0.521581V0.520328ZM109.119 0.520328V27.3648H114.601V19.3151L121.117 27.3648H128.143L119.859 17.8012L127.528 8.87982H120.807L114.601 16.2873V0.521581H109.117L109.119 0.520328ZM81.1411 20.4175C80.3462 21.7257 78.7047 22.6952 76.857 22.6952C76.2536 22.6949 75.6563 22.576 75.0991 22.3453C74.5419 22.1146 74.0357 21.7767 73.6096 21.3508C73.1834 20.925 72.8457 20.4195 72.6155 19.8634C72.3854 19.3073 72.2675 18.7114 72.2685 18.1097C72.2673 17.5079 72.3851 16.9116 72.6151 16.3552C72.8451 15.7987 73.1828 15.2928 73.6089 14.8665C74.035 14.4402 74.5412 14.1018 75.0985 13.8706C75.6558 13.6395 76.2534 13.5201 76.857 13.5192C78.7047 13.5192 80.3462 14.5427 81.1411 15.876V20.4175ZM81.1411 8.87857V11.0609C80.243 9.54582 78.0117 8.49226 75.6784 8.49226C70.8585 8.49226 67.0649 12.7504 67.0649 18.0809C67.0649 23.4164 70.8585 27.7222 75.6784 27.7222C78.0117 27.7222 80.243 26.6687 81.1411 25.1598V27.3409H86.6302V8.87857H81.1411ZM7.65339 20.3874C7.65339 22.26 6.14025 23.7739 4.26736 23.7739C3.82201 23.7736 3.38109 23.6857 2.96984 23.5152C2.55859 23.3448 2.18508 23.0951 1.8707 22.7806C1.55631 22.4661 1.30721 22.0928 1.13766 21.6821C0.968108 21.2715 0.881431 20.8315 0.882589 20.3874C0.881762 19.9437 0.96871 19.5042 1.13846 19.0941C1.3082 18.684 1.55741 18.3112 1.87182 17.9972C2.18622 17.6833 2.55964 17.4342 2.97071 17.2643C3.38177 17.0945 3.8224 17.0071 4.26736 17.0073H7.65339V20.3887V20.3874ZM9.34264 20.3874C9.34181 19.9436 9.4288 19.504 9.59862 19.0938C9.76845 18.6836 10.0178 18.3108 10.3323 17.9968C10.6468 17.6828 11.0204 17.4338 11.4316 17.264C11.8428 17.0942 12.2836 17.0069 12.7287 17.0073C13.1737 17.0071 13.6145 17.0945 14.0256 17.2645C14.4368 17.4344 14.8102 17.6836 15.1247 17.9977C15.4391 18.3118 15.6883 18.6847 15.8579 19.095C16.0276 19.5053 16.1144 19.9449 16.1134 20.3887V28.8498C16.1144 29.2938 16.0276 29.7336 15.858 30.1441C15.6884 30.5546 15.4393 30.9277 15.1249 31.2421C14.8105 31.5565 14.4371 31.8061 14.0259 31.9764C13.6147 32.1468 13.1739 32.2346 12.7287 32.235C12.2832 32.2348 11.8422 32.147 11.4308 31.9767C11.0194 31.8063 10.6457 31.5567 10.3312 31.2421C10.0167 30.9276 9.76746 30.5542 9.59783 30.1435C9.4282 29.7328 9.34148 29.2927 9.34264 28.8485V20.3887V20.3874ZM12.7287 6.8028C12.2832 6.80264 11.8422 6.71486 11.4308 6.5445C11.0194 6.37413 10.6457 6.12452 10.3312 5.80996C10.0167 5.4954 9.76746 5.12207 9.59783 4.71134C9.4282 4.30061 9.34148 3.86056 9.34264 3.41636C9.34181 2.97256 9.4288 2.53295 9.59862 2.12272C9.76845 1.71249 10.0178 1.33971 10.3323 1.02571C10.6468 0.71172 11.0204 0.462693 11.4316 0.292895C11.8428 0.123096 12.2836 0.0358641 12.7287 0.0361948C13.1736 0.0360291 13.6143 0.123381 14.0253 0.293254C14.4364 0.463126 14.8098 0.712182 15.1242 1.02616C15.4386 1.34013 15.6878 1.71287 15.8576 2.12301C16.0273 2.53316 16.1143 2.97266 16.1134 3.41636V6.8028H12.7287ZM12.7287 8.52236C13.1736 8.5222 13.6143 8.60955 14.0253 8.77942C14.4364 8.94929 14.8098 9.19835 15.1242 9.51233C15.4386 9.8263 15.6878 10.199 15.8576 10.6092C16.0273 11.0193 16.1143 11.4588 16.1134 11.9025C16.1134 13.7739 14.6003 15.289 12.7287 15.289H4.24346C3.798 15.2888 3.35695 15.201 2.94555 15.0307C2.53416 14.8603 2.16051 14.6107 1.84598 14.2961C1.53146 13.9816 1.28225 13.6082 1.11262 13.1975C0.942993 12.7868 0.856275 12.3467 0.857433 11.9025C0.856606 11.4587 0.943595 11.0191 1.11342 10.6089C1.28324 10.1987 1.53257 9.82587 1.8471 9.51188C2.16164 9.19789 2.53521 8.94886 2.94642 8.77906C3.35763 8.60926 3.79839 8.52203 4.24346 8.52236H12.7287ZM26.2942 11.9025C26.2933 11.4588 26.3803 11.0193 26.55 10.6092C26.7198 10.199 26.969 9.8263 27.2834 9.51233C27.5978 9.19835 27.9712 8.94929 28.3823 8.77942C28.7934 8.60955 29.234 8.5222 29.679 8.52236C30.124 8.52203 30.5648 8.60926 30.976 8.77906C31.3872 8.94886 31.7608 9.19789 32.0753 9.51188C32.3898 9.82587 32.6392 10.1987 32.809 10.6089C32.9788 11.0191 33.0658 11.4587 33.065 11.9025C33.065 13.7739 31.5518 15.289 29.679 15.289H26.2942V11.9025ZM24.6037 11.9025C24.6037 13.7739 23.0905 15.289 21.2189 15.289C20.7734 15.2888 20.3324 15.201 19.921 15.0307C19.5096 14.8603 19.1359 14.6107 18.8214 14.2961C18.5069 13.9816 18.2577 13.6082 18.0881 13.1975C17.9184 12.7868 17.8317 12.3467 17.8329 11.9025V3.41636C17.832 2.97256 17.919 2.53295 18.0889 2.12272C18.2587 1.71249 18.508 1.33971 18.8225 1.02571C19.1371 0.71172 19.5107 0.462693 19.9219 0.292895C20.3331 0.123096 20.7738 0.0358641 21.2189 0.0361948C21.6639 0.0360291 22.1045 0.123381 22.5156 0.293254C22.9266 0.463126 23.3 0.712182 23.6144 1.02616C23.9289 1.34013 24.1781 1.71287 24.3478 2.12301C24.5176 2.53316 24.6045 2.97266 24.6037 3.41636V11.9025ZM21.2189 25.4684C21.664 25.4682 22.1047 25.5556 22.5158 25.7255C22.927 25.8955 23.3005 26.1447 23.6149 26.4588C23.9293 26.7729 24.1785 27.1458 24.3482 27.556C24.5178 27.9663 24.6047 28.406 24.6037 28.8498C24.6047 29.2938 24.5179 29.7336 24.3482 30.1441C24.1786 30.5546 23.9295 30.9277 23.6151 31.2421C23.3008 31.5565 22.9273 31.8061 22.5161 31.9764C22.105 32.1468 21.6642 32.2346 21.2189 32.235C20.7734 32.2348 20.3324 32.147 19.921 31.9767C19.5096 31.8063 19.1359 31.5567 18.8214 31.2421C18.5069 30.9276 18.2577 30.5542 18.0881 30.1435C17.9184 29.7328 17.8317 29.2927 17.8329 28.8485V25.4684H21.2189ZM21.2189 23.7739C20.7734 23.7737 20.3324 23.686 19.921 23.5156C19.5096 23.3452 19.1359 23.0956 18.8214 22.781C18.5069 22.4665 18.2577 22.0932 18.0881 21.6824C17.9184 21.2717 17.8317 20.8316 17.8329 20.3874C17.832 19.9436 17.919 19.504 18.0889 19.0938C18.2587 18.6836 18.508 18.3108 18.8225 17.9968C19.1371 17.6828 19.5107 17.4338 19.9219 17.264C20.3331 17.0942 20.7738 17.0069 21.2189 17.0073H29.7041C30.1492 17.0071 30.5899 17.0945 31.0011 17.2645C31.4122 17.4344 31.7857 17.6836 32.1001 17.9977C32.4145 18.3118 32.6637 18.6847 32.8334 19.095C33.003 19.5053 33.0899 19.9449 33.0889 20.3887C33.0899 20.8327 33.0031 21.2725 32.8334 21.683C32.6638 22.0935 32.4147 22.4666 32.1003 22.781C31.786 23.0955 31.4125 23.345 31.0013 23.5153C30.5902 23.6857 30.1494 23.7736 29.7041 23.7739H21.2189Z" fill="#1C105A"/>
</svg>
