<svg width="20" height="20" viewBox="0 0 20 20" fill="none" xmlns="http://www.w3.org/2000/svg">
<mask id="path-1-inside-1_1821_3984" fill="white">
<path d="M14.166 17.7082H5.83268C2.79102 17.7082 1.04102 15.9582 1.04102 12.9165V7.08317C1.04102 4.0415 2.79102 2.2915 5.83268 2.2915H14.166C17.2077 2.2915 18.9577 4.0415 18.9577 7.08317V12.9165C18.9577 15.9582 17.2077 17.7082 14.166 17.7082ZM5.83268 3.5415C3.44935 3.5415 2.29102 4.69984 2.29102 7.08317V12.9165C2.29102 15.2998 3.44935 16.4582 5.83268 16.4582H14.166C16.5493 16.4582 17.7077 15.2998 17.7077 12.9165V7.08317C17.7077 4.69984 16.5493 3.5415 14.166 3.5415H5.83268Z"/>
</mask>
<path d="M14.166 16.2082H5.83268V19.2082H14.166V16.2082ZM5.83268 16.2082C4.59658 16.2082 3.82231 15.8577 3.35688 15.3923C2.89146 14.9269 2.54102 14.1526 2.54102 12.9165H-0.458984C-0.458984 14.7221 0.0655703 16.3436 1.23556 17.5136C2.40556 18.6836 4.02712 19.2082 5.83268 19.2082V16.2082ZM2.54102 12.9165V7.08317H-0.458984V12.9165H2.54102ZM2.54102 7.08317C2.54102 5.84707 2.89146 5.0728 3.35688 4.60737C3.82231 4.14195 4.59658 3.7915 5.83268 3.7915V0.791504C4.02712 0.791504 2.40556 1.31606 1.23556 2.48605C0.0655703 3.65605 -0.458984 5.27761 -0.458984 7.08317H2.54102ZM5.83268 3.7915H14.166V0.791504H5.83268V3.7915ZM14.166 3.7915C15.4021 3.7915 16.1764 4.14195 16.6418 4.60737C17.1072 5.0728 17.4577 5.84707 17.4577 7.08317H20.4577C20.4577 5.27761 19.9331 3.65605 18.7631 2.48605C17.5931 1.31606 15.9716 0.791504 14.166 0.791504V3.7915ZM17.4577 7.08317V12.9165H20.4577V7.08317H17.4577ZM17.4577 12.9165C17.4577 14.1526 17.1072 14.9269 16.6418 15.3923C16.1764 15.8577 15.4021 16.2082 14.166 16.2082V19.2082C15.9716 19.2082 17.5931 18.6836 18.7631 17.5136C19.9331 16.3436 20.4577 14.7221 20.4577 12.9165H17.4577ZM5.83268 2.0415C4.42055 2.0415 3.08078 2.38459 2.10744 3.35793C1.1341 4.33126 0.791016 5.67104 0.791016 7.08317H3.79102C3.79102 6.11197 4.0271 5.68091 4.22876 5.47925C4.43042 5.27759 4.86148 5.0415 5.83268 5.0415V2.0415ZM0.791016 7.08317V12.9165H3.79102V7.08317H0.791016ZM0.791016 12.9165C0.791016 14.3286 1.1341 15.6684 2.10744 16.6417C3.08078 17.6151 4.42055 17.9582 5.83268 17.9582V14.9582C4.86148 14.9582 4.43042 14.7221 4.22876 14.5204C4.0271 14.3188 3.79102 13.8877 3.79102 12.9165H0.791016ZM5.83268 17.9582H14.166V14.9582H5.83268V17.9582ZM14.166 17.9582C15.5782 17.9582 16.9179 17.6151 17.8913 16.6417C18.8646 15.6684 19.2077 14.3286 19.2077 12.9165H16.2077C16.2077 13.8877 15.9716 14.3188 15.7699 14.5204C15.5683 14.7221 15.1372 14.9582 14.166 14.9582V17.9582ZM19.2077 12.9165V7.08317H16.2077V12.9165H19.2077ZM19.2077 7.08317C19.2077 5.67104 18.8646 4.33126 17.8913 3.35793C16.9179 2.38459 15.5782 2.0415 14.166 2.0415V5.0415C15.1372 5.0415 15.5683 5.27759 15.7699 5.47925C15.9716 5.68091 16.2077 6.11197 16.2077 7.08317H19.2077ZM14.166 2.0415H5.83268V5.0415H14.166V2.0415Z" fill="#8F9BB3" mask="url(#path-1-inside-1_1821_3984)"/>
<mask id="path-3-inside-2_1821_3984" fill="white">
<path d="M9.999 10.725C9.299 10.725 8.59067 10.5083 8.049 10.0666L5.44067 7.98331C5.174 7.76664 5.124 7.37497 5.34067 7.10831C5.55734 6.84164 5.94901 6.79164 6.21567 7.00831L8.824 9.09165C9.45733 9.59998 10.5323 9.59998 11.1657 9.09165L13.774 7.00831C14.0407 6.79164 14.4407 6.83331 14.649 7.10831C14.8657 7.37497 14.824 7.77498 14.549 7.98331L11.9407 10.0666C11.4073 10.5083 10.699 10.725 9.999 10.725Z"/>
</mask>
<path d="M8.049 10.0666L8.99691 8.90412L8.99105 8.89933L8.98513 8.89461L8.049 10.0666ZM5.44067 7.98331L4.49474 9.14752L4.50454 9.15534L5.44067 7.98331ZM6.21567 7.00831L5.26975 8.17252L5.27954 8.18034L6.21567 7.00831ZM8.824 9.09165L9.76292 7.92184L9.76013 7.91961L8.824 9.09165ZM11.1657 9.09165L10.2295 7.91961L10.2267 7.92185L11.1657 9.09165ZM13.774 7.00831L14.7102 8.18039L14.7199 8.17248L13.774 7.00831ZM14.649 7.10831L13.4534 8.01409L13.4688 8.03441L13.4848 8.0542L14.649 7.10831ZM14.549 7.98331L13.6432 6.78767L13.6279 6.79928L13.6129 6.81128L14.549 7.98331ZM11.9407 10.0666L11.0045 8.89461L10.9942 8.90289L10.9839 8.91136L11.9407 10.0666ZM9.999 9.22497C9.59164 9.22497 9.23267 9.09635 8.99691 8.90412L7.1011 11.2292C7.94868 11.9203 9.00637 12.225 9.999 12.225V9.22497ZM8.98513 8.89461L6.3768 6.81128L4.50454 9.15534L7.11288 11.2387L8.98513 8.89461ZM6.38656 6.81914C6.73015 7.09831 6.83675 7.6457 6.50484 8.0542L4.1765 6.16242C3.41126 7.10425 3.61785 8.43498 4.49478 9.14748L6.38656 6.81914ZM6.50484 8.0542C6.22567 8.39779 5.67828 8.50439 5.26978 8.17248L7.16156 5.84414C6.21973 5.0789 4.889 5.28549 4.1765 6.16242L6.50484 8.0542ZM5.27954 8.18034L7.88787 10.2637L9.76013 7.91961L7.1518 5.83628L5.27954 8.18034ZM7.88508 10.2614C8.51576 10.7676 9.29302 10.9729 9.99483 10.9729C10.6966 10.9729 11.4739 10.7676 12.1046 10.2614L10.2267 7.92185C10.2292 7.91991 10.2123 7.93374 10.1669 7.94817C10.1217 7.96256 10.0621 7.9729 9.99483 7.9729C9.92758 7.9729 9.86798 7.96256 9.82274 7.94817C9.77736 7.93374 9.76051 7.91991 9.76292 7.92185L7.88508 10.2614ZM12.1018 10.2637L14.7101 8.18035L12.8379 5.83628L10.2295 7.91961L12.1018 10.2637ZM14.7199 8.17248C14.3492 8.47364 13.7736 8.43687 13.4534 8.01409L15.8446 6.20252C15.1077 5.22975 13.7321 5.10965 12.8281 5.84414L14.7199 8.17248ZM13.4848 8.0542C13.1837 7.68355 13.2204 7.10796 13.6432 6.78767L15.4548 9.17895C16.4276 8.442 16.5477 7.0664 15.8132 6.16242L13.4848 8.0542ZM13.6129 6.81128L11.0045 8.89461L12.8768 11.2387L15.4851 9.15534L13.6129 6.81128ZM10.9839 8.91136C10.7621 9.0951 10.409 9.22497 9.999 9.22497V12.225C10.989 12.225 12.0526 11.9215 12.8974 11.2219L10.9839 8.91136Z" fill="#8F9BB3" mask="url(#path-3-inside-2_1821_3984)"/>
</svg>
