<svg width="144" height="25" viewBox="0 0 144 25" fill="none" xmlns="http://www.w3.org/2000/svg">
<path d="M130.33 2.05148H143.284V4.78917H140.734C139.653 4.78917 138.758 5.1641 138.031 5.91565L129.367 15.1589V19.6362C129.367 20.3877 129.739 20.7626 130.499 20.7626H133.708V23.5003H118.086V20.7626H121.311C122.071 20.7626 122.426 20.3877 122.426 19.6362V15.4494L113.542 5.91565C112.816 5.1641 111.921 4.78917 110.84 4.78917H108.307V2.05148H124.216V4.78917H122.629C122.257 4.78917 122.004 4.92259 121.886 5.19112C121.784 5.45965 121.818 5.70116 122.021 5.91565L127.273 11.5194L132.526 5.91565C132.711 5.70116 132.762 5.45965 132.644 5.19112C132.542 4.92259 132.289 4.78917 131.901 4.78917H130.33V2.05148ZM101.737 23.5003H97.3123L79.6989 8.42871V19.6362C79.6989 20.3877 80.0755 20.7626 80.8237 20.7626H84.0478V23.5003H70.8745V20.7626H74.0952C74.8468 20.7626 75.2217 20.3877 75.2217 19.6362V5.91565C75.2217 5.1641 74.8468 4.78917 74.0952 4.78917H70.8745V2.05148H81.9181L97.2448 15.1589V5.91565C97.2448 5.1641 96.8732 4.78917 96.1301 4.78917H92.9043V2.05148H106.078V4.78917H102.852C102.092 4.78917 101.737 5.1641 101.737 5.91565V23.5003ZM51.4236 0.715576C41.3866 0.715576 34.7408 5.88188 34.7408 12.7759C34.7408 19.6699 41.3866 24.8362 51.4236 24.8362C61.4623 24.8362 68.1081 19.6699 68.1081 12.7759C68.1081 5.88188 61.4623 0.715576 51.4236 0.715576ZM51.4236 3.93121C57.181 3.93121 60.9911 7.71938 60.9911 12.7759C60.9911 17.8307 57.181 21.6206 51.4236 21.6206C45.6679 21.6206 41.8561 17.8307 41.8561 12.7759C41.8561 7.71938 45.6679 3.93121 51.4236 3.93121ZM25.7391 1.79646H28.4767V9.04009H25.7391C24.3744 4.54934 17.5902 3.87717 13.3359 3.87717C9.61527 3.87717 6.83536 4.85503 6.83536 6.74489C6.83536 8.92862 12.0692 8.99111 16.3016 9.56364C21.7516 10.3017 29.6995 10.175 29.6995 17.2987C29.6995 22.9193 22.2346 24.8261 17.5598 24.8362C9.18967 24.8548 6.59216 22.4448 4.67697 22.4448C4.14497 22.4448 3.87137 22.9582 3.87137 23.985H1.13369V15.8564H3.87137C4.8999 20.7559 12.4323 21.8233 15.6074 21.8233C17.857 21.8233 23.6465 21.3825 23.6465 18.7073C23.6465 16.1722 19.931 16.304 15.4183 15.6605C10.4715 14.9529 0.714844 14.7992 0.714844 8.22098C0.714844 3.14419 6.40301 0.715576 12.7853 0.715576C20.1978 0.715576 23.8627 3.12224 24.9605 3.12224C25.479 3.12224 25.7391 2.64597 25.7391 1.79646Z" fill="#1C105A"/>
</svg>
