<svg width="48" height="48" viewBox="0 0 48 48" fill="none" xmlns="http://www.w3.org/2000/svg">
<path opacity="0.4" d="M24 44C35.0457 44 44 35.0457 44 24C44 12.9543 35.0457 4 24 4C12.9543 4 4 12.9543 4 24C4 35.0457 12.9543 44 24 44Z" fill="#6CAF11"/>
<path d="M21.1609 31.16C20.7609 31.16 20.3809 31 20.1009 30.72L14.4409 25.06C13.8609 24.48 13.8609 23.52 14.4409 22.94C15.0209 22.36 15.9809 22.36 16.5609 22.94L21.1609 27.54L31.4409 17.26C32.0209 16.68 32.9809 16.68 33.5609 17.26C34.1409 17.84 34.1409 18.8 33.5609 19.38L22.2209 30.72C21.9409 31 21.5609 31.16 21.1609 31.16Z" fill="#6CAF11"/>
</svg>
