<svg width="24" height="24" viewBox="0 0 24 24" fill="none" xmlns="http://www.w3.org/2000/svg">
<path fill-rule="evenodd" clip-rule="evenodd" d="M19.0699 0.0329786C18.3709 0.144101 17.6155 0.700929 17.2689 1.36049C17.0489 1.77906 16.9608 2.14149 16.9614 2.62426C16.9622 3.20499 17.1045 3.65497 17.4205 4.07602C17.4994 4.18119 17.522 4.24348 17.4855 4.25566C17.306 4.31547 16.6775 4.78198 16.383 5.07396C15.8448 5.60741 15.5266 6.12641 15.2757 6.87994C15.1127 7.36947 15.0393 7.97528 15.0393 8.83234V9.46499L14.7352 9.23483C14.568 9.10824 14.336 8.94894 14.2197 8.88075C14.1034 8.8126 14.0082 8.7469 14.0082 8.73471C14.0082 8.72257 14.0586 8.64548 14.1201 8.56341C14.505 8.04984 14.6605 7.28562 14.5196 6.60043C14.4914 6.46386 14.3845 6.17614 14.2818 5.96116C13.8593 5.07612 12.9849 4.52899 11.993 4.52899C11.0016 4.52899 10.1283 5.07523 9.70317 5.96116C9.47117 6.44459 9.39459 6.82366 9.42731 7.32654C9.45594 7.76667 9.5808 8.13856 9.81851 8.49175C9.90741 8.62387 9.9741 8.73808 9.96665 8.74549C9.95925 8.7529 9.79273 8.86374 9.59659 8.99178C8.58014 9.65532 7.86583 10.6874 7.62906 11.8347C7.56232 12.158 7.54165 12.4637 7.54118 13.1355L7.54057 14.0138L7.20187 13.7521C7.01561 13.6081 6.77833 13.4476 6.67461 13.3954C6.57089 13.3431 6.48025 13.2953 6.47308 13.2892C6.46596 13.2831 6.53288 13.17 6.62179 13.0379C6.89521 12.6316 6.9912 12.3189 7.0144 11.7592C7.03005 11.3812 7.01585 11.1948 6.95553 10.9859C6.61345 9.80173 5.64288 9.04694 4.46215 9.04694C3.74902 9.04694 3.16965 9.28938 2.66011 9.80099C1.80464 10.66 1.6347 12.0426 2.26882 12.985C2.35861 13.1184 2.4313 13.2412 2.43041 13.258C2.42952 13.2747 2.24871 13.4038 2.02857 13.5448C1.33522 13.989 0.705327 14.7267 0.383209 15.4718C0.110489 16.1025 0.0340955 16.4852 0.00724057 17.3546C-0.0197549 18.2275 0.0242533 18.5696 0.215565 18.975C0.385084 19.3341 0.825354 19.7851 1.19106 19.9742L1.49438 20.131L1.49452 21.7683C1.49471 23.3096 1.50019 23.4169 1.58844 23.5992C1.64858 23.7234 1.74826 23.83 1.86646 23.8964L2.05079 24L4.51108 23.9871C6.92877 23.9744 6.97367 23.9724 7.10363 23.8755C7.17642 23.8212 7.27812 23.7053 7.32967 23.6177C7.41788 23.468 7.4242 23.3604 7.43728 21.7918L7.4512 20.125L7.69505 20.0053C8.37373 19.6721 8.84615 18.9645 8.92883 18.1575C9.00869 17.3782 9.04032 18.085 9.04032 20.6481C9.04032 23.7183 9.03442 23.6524 9.32795 23.8617L9.48556 23.9741H11.993H14.5003L14.658 23.8617C14.9514 23.6524 14.9456 23.7172 14.9458 20.6598L14.9459 17.8814L15.2525 17.7229C15.9681 17.3528 16.4453 16.5987 16.4453 15.8378C16.4453 15.6858 16.466 15.5615 16.4912 15.5615C16.5206 15.5615 16.5416 16.9769 16.5498 19.51C16.5622 23.3623 16.5648 23.4625 16.6562 23.6177C16.7078 23.7053 16.8095 23.8212 16.8823 23.8755C17.0122 23.9724 17.0571 23.9744 19.4748 23.9871L21.9351 24L22.1194 23.8964C22.2376 23.83 22.3373 23.7234 22.3975 23.5992C22.4889 23.4103 22.4912 23.3098 22.4912 19.5084V15.6112L22.7607 15.4816C23.0958 15.3203 23.5631 14.866 23.7275 14.5416C23.9901 14.0235 23.9909 14.0108 23.9909 10.8242C23.9909 7.5964 23.9804 7.44296 23.7079 6.6898C23.3599 5.72809 22.6116 4.86583 21.6224 4.28697C21.5431 4.24057 21.549 4.21812 21.7085 3.9589C22.2007 3.15907 22.2331 2.26793 21.8011 1.40759C21.3016 0.41279 20.1924 -0.145492 19.0699 0.0329786ZM20.0222 1.52293C20.2479 1.63124 20.4528 1.83465 20.5723 2.06898C20.8532 2.61953 20.629 3.33383 20.0847 3.62263C19.931 3.70418 19.8105 3.72606 19.5115 3.72672C19.1711 3.72742 19.1097 3.71318 18.9034 3.5857C18.5725 3.38107 18.3978 3.07883 18.3748 2.67118C18.3529 2.28387 18.4121 2.09045 18.6308 1.83497C18.7936 1.64469 18.9705 1.52687 19.2102 1.44893C19.3942 1.38908 19.8253 1.42835 20.0222 1.52293ZM20.2181 5.27409C21.0513 5.44843 21.8727 6.07181 22.2253 6.79732C22.5682 7.50314 22.5569 7.37627 22.5737 10.688L22.5888 13.6648L22.4779 13.875C22.3496 14.1181 22.0817 14.2941 21.8382 14.2953C21.5875 14.2965 21.3045 14.4576 21.1875 14.6657L21.0852 14.8478V18.7197V22.5915H19.5151H17.9451L17.9449 18.6899C17.9448 14.8599 17.943 14.7853 17.8502 14.6331C17.7429 14.4571 17.4384 14.2986 17.2046 14.2971C16.8925 14.295 16.5843 14.029 16.4905 13.6806C16.4555 13.5503 16.4449 12.5955 16.4568 10.6246C16.4738 7.8073 16.4759 7.75205 16.5801 7.40734C16.8417 6.54161 17.3593 5.90197 18.0906 5.54062C18.3123 5.431 18.6287 5.3121 18.7936 5.27629C19.1906 5.19019 19.8124 5.18921 20.2181 5.27409ZM12.4737 6.03483C12.699 6.1243 13.0369 6.49915 13.1089 6.73939C13.28 7.31046 13.043 7.88501 12.5336 8.1343C11.7332 8.52587 10.8213 7.98202 10.8213 7.1132C10.8213 6.82 10.9153 6.57582 11.1161 6.34772C11.4813 5.9329 11.9467 5.82562 12.4737 6.03483ZM12.8131 9.81842C13.6361 10.0336 14.3537 10.6134 14.7008 11.3434C15.0207 12.0162 15.0393 12.1742 15.0393 14.2164C15.0393 16.0109 15.039 16.0167 14.9327 16.1744C14.782 16.3981 14.5681 16.5274 14.2953 16.5597C13.9953 16.5952 13.8096 16.6921 13.6722 16.8848L13.563 17.0378L13.5499 19.8147L13.5367 22.5915H11.993H10.4492L10.436 19.8147L10.4229 17.0378L10.3138 16.8848C10.1763 16.6921 9.99065 16.5952 9.69061 16.5597C9.41784 16.5274 9.20389 16.3981 9.05317 16.1744C8.94682 16.0166 8.94659 16.0119 8.94739 14.2071C8.94832 12.1524 8.96815 11.9799 9.27471 11.358C9.68217 10.5312 10.4258 9.9698 11.3769 9.7708C11.7522 9.69225 12.4148 9.71423 12.8131 9.81842ZM4.83132 10.5081C5.07199 10.5802 5.42265 10.8923 5.531 11.1307C5.63838 11.3671 5.64606 11.844 5.54633 12.0831C5.45419 12.3041 5.22716 12.5418 4.98631 12.6697C4.84806 12.7431 4.71247 12.7697 4.46979 12.7711C3.87397 12.7744 3.43684 12.433 3.32075 11.8738C3.13394 10.974 3.94352 10.2421 4.83132 10.5081ZM5.29086 14.3229C6.16521 14.5856 6.85922 15.186 7.23716 16.0067C7.46784 16.5076 7.51513 16.7698 7.5162 17.5533C7.51709 18.2063 7.50945 18.2687 7.40935 18.4297C7.2642 18.6631 7.05948 18.7803 6.69584 18.8381C6.43146 18.8801 6.36965 18.9104 6.21658 19.0733L6.04082 19.2604V20.9259V22.5915H4.47078H2.90073L2.90063 20.9863C2.90058 19.5517 2.89187 19.3638 2.81861 19.2181C2.7096 19.001 2.49059 18.8621 2.20358 18.8282C1.89908 18.7921 1.71827 18.6957 1.55573 18.4828C1.42858 18.3164 1.42394 18.29 1.40908 17.6577C1.39043 16.8646 1.46636 16.4565 1.73476 15.9068C2.14734 15.062 2.9482 14.459 3.93504 14.2501C4.22313 14.1892 4.98107 14.2298 5.29086 14.3229Z" fill="#7356C0"/>
</svg>
