<svg width="20" height="20" viewBox="0 0 20 20" fill="none" xmlns="http://www.w3.org/2000/svg">
<path d="M7.42565 17.2253C7.26732 17.2253 7.10898 17.1669 6.98398 17.0419C6.74232 16.8003 6.74232 16.4003 6.98398 16.1586L12.4173 10.7253C12.8173 10.3253 12.8173 9.67526 12.4173 9.27526L6.98398 3.84193C6.74232 3.60026 6.74232 3.20026 6.98398 2.95859C7.22565 2.71693 7.62565 2.71693 7.86732 2.95859L13.3007 8.39193C13.7256 8.81693 13.9673 9.39193 13.9673 10.0003C13.9673 10.6086 13.734 11.1836 13.3007 11.6086L7.86732 17.0419C7.74232 17.1586 7.58398 17.2253 7.42565 17.2253Z" fill="white"/>
</svg>
