<svg width="24" height="24" viewBox="0 0 24 24" fill="none" xmlns="http://www.w3.org/2000/svg">
<path fill-rule="evenodd" clip-rule="evenodd" d="M11.2778 0.0711955C9.78279 0.361821 8.37439 1.56014 7.32576 3.43361L7.09781 3.84084L6.26379 3.84271C4.63156 3.84632 3.28509 4.18608 2.40831 4.81548C2.32139 4.87788 2.22889 4.91614 2.20278 4.90052C2.17662 4.88491 2.03316 4.85294 1.88392 4.8295C1.00816 4.6918 0.165159 5.28913 0.0216988 6.14905C-0.0647853 6.66711 0.109153 7.16509 0.509494 7.54578C0.739633 7.76463 0.746378 7.77888 0.746573 8.04686C0.747252 9.03458 1.24165 10.4385 2.01039 11.6359L2.24611 12.003L2.01039 12.3701C1.23946 13.5709 0.747252 14.9712 0.746573 15.9658C0.746378 16.2407 0.740409 16.2536 0.523034 16.4512C0.390202 16.572 0.240335 16.7768 0.15322 16.9566C0.0174279 17.237 0.00835247 17.2886 0.0282506 17.6666C0.0450427 17.9855 0.0771223 18.1258 0.175448 18.3109C0.426892 18.784 0.861739 19.0912 1.39967 19.1758C1.64825 19.2148 2.08193 19.1776 2.20015 19.107C2.22151 19.0943 2.38666 19.1775 2.56715 19.2921C3.17904 19.6803 4.10513 19.9861 5.06573 20.117C5.29261 20.1479 5.84418 20.1759 6.2914 20.179L7.10456 20.1849L7.36022 20.6298C8.28859 22.2454 9.43395 23.3292 10.6739 23.7655C12.8565 24.5334 15.0375 23.3949 16.6338 20.6545L16.906 20.1873L17.7197 20.1809C18.1672 20.1774 18.719 20.1491 18.9459 20.1181C19.9079 19.9866 20.8295 19.6822 21.4419 19.2937C21.7306 19.1105 21.7823 19.0928 21.8976 19.1373C21.9691 19.1649 22.1806 19.1884 22.3676 19.1895C22.8223 19.1924 23.2192 19.0239 23.5475 18.6885C23.8826 18.3462 24.009 18.0038 23.982 17.5117C23.9574 17.063 23.8469 16.8222 23.5088 16.4803L23.277 16.2459L23.2488 15.8005C23.1817 14.7396 22.7705 13.5972 22.0379 12.4367L21.7642 12.003L22.0379 11.5693C22.7696 10.4102 23.1801 9.27073 23.2498 8.20551L23.279 7.76013L23.4984 7.54916C23.8258 7.23448 23.9998 6.84095 24 6.41483C24.0001 6.22186 23.967 5.98318 23.9242 5.86809C23.7567 5.4175 23.3328 5.02415 22.8527 4.87357C22.6209 4.8009 22.081 4.79921 21.894 4.87057C21.7736 4.91651 21.7239 4.8986 21.3945 4.69091C20.5035 4.12898 19.2699 3.84271 17.7294 3.84037L16.916 3.8391L16.6243 3.3383C15.1857 0.868012 13.2532 -0.31282 11.2778 0.0711955ZM12.5186 0.848837C13.2485 0.977577 13.9776 1.39521 14.6525 2.07111C15.1155 2.53483 15.5207 3.05874 15.8101 3.56803C15.9065 3.73779 15.9854 3.88889 15.9854 3.9038C15.9854 3.91876 15.8926 3.94463 15.7792 3.96133C14.79 4.10708 13.4559 4.43231 12.5033 4.75988L12.0058 4.9309L11.5083 4.75988C10.5544 4.43184 9.2238 4.10765 8.22909 3.96081C8.06112 3.93601 8.02545 3.91449 8.04947 3.85246C8.12528 3.65664 8.50669 3.06245 8.79347 2.69334C9.88859 1.28377 11.227 0.621034 12.5186 0.848837ZM6.7015 4.70465C6.32436 5.65407 5.92911 7.00977 5.7492 7.9711L5.65704 8.46337L5.34925 8.71986C4.7822 9.19239 3.65388 10.2868 3.20748 10.7973L2.76545 11.3028L2.59977 11.0551C2.17885 10.426 1.79098 9.43679 1.64917 8.63093C1.53828 8.00064 1.52245 8.04292 1.89363 7.97687C2.07082 7.94531 2.29465 7.88019 2.39108 7.83219C2.86645 7.59538 3.23059 7.09697 3.29562 6.59416C3.33333 6.30264 3.22835 5.84174 3.06664 5.58904C2.96434 5.42917 2.96414 5.42505 3.05563 5.35702C3.35745 5.1325 4.30955 4.81759 4.99293 4.71628C5.59254 4.62739 6.73528 4.6196 6.7015 4.70465ZM19.1027 4.73404C19.4078 4.78444 19.8691 4.89874 20.1278 4.98805C20.6074 5.15364 21.0522 5.37437 21.0211 5.43128C20.7587 5.91122 20.72 6.03574 20.72 6.40053C20.72 6.70607 20.7435 6.82444 20.8465 7.03907C21.0977 7.56219 21.5126 7.86908 22.113 7.97593C22.4899 8.04302 22.4736 8.00021 22.362 8.63093C22.2208 9.42948 21.8366 10.4072 21.4094 11.0551L21.2461 11.3028L20.8041 10.7973C20.3642 10.2943 19.2467 9.20885 18.6651 8.71986L18.3601 8.46337L18.1968 7.68526C18.0027 6.75989 17.799 6.0438 17.509 5.26691C17.3917 4.95285 17.2958 4.68383 17.2958 4.66916C17.2958 4.60188 18.5822 4.64811 19.1027 4.73404ZM8.12703 4.7602C9.00167 4.88712 10.7932 5.30826 10.7921 5.38674C10.7919 5.40282 10.4698 5.56846 10.0763 5.75482C9.11669 6.20925 8.29577 6.66504 7.42516 7.22679C7.02787 7.48315 6.69213 7.68258 6.67907 7.66997C6.64801 7.63992 6.83147 6.91418 7.04088 6.23888C7.19099 5.75468 7.59293 4.68932 7.62545 4.68932C7.63268 4.68932 7.85835 4.7212 8.12703 4.7602ZM16.5898 5.16986C16.9002 5.9536 17.3443 7.42984 17.3443 7.67743C17.3443 7.71057 17.1969 7.63458 17.0167 7.50856C16.2016 6.93828 14.9074 6.20541 13.8379 5.7085C13.4976 5.55041 13.2191 5.40672 13.2191 5.38923C13.2191 5.2912 15.6747 4.74225 16.326 4.69471C16.3763 4.69101 16.4596 4.84098 16.5898 5.16986ZM2.13187 5.74994C2.45961 5.9574 2.57007 6.47526 2.3575 6.80757C1.91464 7.49974 0.844219 7.20855 0.843637 6.39575C0.843151 5.77001 1.57996 5.40062 2.13187 5.74994ZM22.8247 5.75712C23.1461 5.98698 23.2678 6.43002 23.0971 6.74892C22.8619 7.18835 22.2793 7.32337 21.8608 7.03551C21.4256 6.73617 21.4444 6.02627 21.8951 5.73996C22.1627 5.56991 22.5735 5.57746 22.8247 5.75712ZM12.4818 5.98276C13.9128 6.55356 15.7861 7.5982 17.1074 8.56224L17.5742 8.90284L17.6306 9.33946C17.8381 10.9459 17.8381 13.0601 17.6306 14.6665L17.5742 15.1032L17.1074 15.4438C16.497 15.8891 15.763 16.3609 15.0295 16.7793C14.395 17.1411 12.6245 17.9897 12.2232 18.1242L11.9796 18.2058L11.4952 18.0064C9.94295 17.3672 8.22967 16.4109 6.90417 15.4438L6.43739 15.1032L6.38254 14.6665C6.16963 12.9709 6.16949 11.0363 6.38221 9.34213L6.43671 8.90814L6.75823 8.66402C7.21467 8.31751 8.29306 7.6185 8.94829 7.24447C9.88874 6.70761 11.7779 5.82247 11.9964 5.81628C12.0313 5.8153 12.2497 5.89022 12.4818 5.98276ZM9.68874 9.31429C9.57634 9.41752 9.3047 10.0036 8.49354 11.8931C7.91616 13.2379 7.44379 14.3813 7.44379 14.4339C7.44379 14.5717 7.63816 14.7647 7.80856 14.7962C8.06437 14.8435 8.18138 14.6998 8.51815 13.9246L8.82341 13.2219H9.93198H11.0405L11.1509 13.4681C11.2117 13.6034 11.3552 13.9313 11.4699 14.1966C11.6374 14.5843 11.7068 14.6932 11.823 14.7513C12.0917 14.8855 12.3941 14.7113 12.3941 14.4223C12.3941 14.2418 10.352 9.45287 10.2184 9.3201C10.1736 9.27561 10.0688 9.22605 9.98561 9.20997C9.862 9.18606 9.8075 9.20524 9.68874 9.31429ZM13.0885 9.2374C12.9178 9.30378 12.8153 9.49371 12.8509 9.67739C12.8989 9.92446 12.9819 9.96098 13.5539 9.98705L14.0684 10.0105V12.003V13.9955L13.5482 14.019C12.9676 14.0451 12.8945 14.0801 12.8485 14.3539C12.8264 14.4855 12.8453 14.5456 12.943 14.6554L13.065 14.7925L14.4462 14.8063L15.8274 14.82L15.9792 14.6966C16.1747 14.5377 16.1883 14.3044 16.0119 14.134C15.9012 14.0271 15.8582 14.019 15.4052 14.019H14.9177V12.003V9.98705H15.4052C15.8582 9.98705 15.9012 9.97889 16.0119 9.87195C16.1873 9.70252 16.1747 9.4683 15.9817 9.31143L15.8324 9.19005L14.5136 9.193C13.7883 9.19464 13.147 9.21461 13.0885 9.2374ZM5.48121 9.88157C5.4648 9.97828 5.43209 10.4952 5.40856 11.0302C5.36857 11.9374 5.41011 13.7053 5.48121 14.1244C5.49781 14.2222 5.49101 14.3002 5.46592 14.3002C5.32717 14.3002 3.29431 12.1498 3.29431 12.003C3.29431 11.8562 5.32717 9.70576 5.46592 9.70576C5.49101 9.70576 5.49781 9.78381 5.48121 9.88157ZM19.292 10.3973C19.6775 10.7776 20.1638 11.2945 20.3726 11.5459L20.7521 12.003L20.3728 12.4601C19.9557 12.9627 18.5814 14.3389 18.5383 14.2972C18.5234 14.2829 18.5327 14.0403 18.5589 13.7582C18.6079 13.2317 18.6272 10.8395 18.5849 10.5182C18.5263 10.0712 18.51 9.70576 18.5487 9.70576C18.572 9.70576 18.9065 10.0169 19.292 10.3973ZM10.3247 11.5468C10.5222 12.0016 10.6718 12.3852 10.6572 12.3993C10.6221 12.4333 9.19095 12.4325 9.19095 12.3986C9.19095 12.3702 9.86588 10.7858 9.90505 10.7223C9.918 10.7013 9.93698 10.6921 9.94717 10.702C9.95736 10.7118 10.1273 11.092 10.3247 11.5468ZM3.20879 13.2102C3.64845 13.7129 4.76793 14.7999 5.34682 15.2861L5.65224 15.5426L5.81787 16.3396C5.99696 17.2011 6.27825 18.1777 6.54697 18.8707C6.63981 19.1102 6.71581 19.3191 6.71581 19.3349C6.71581 19.3929 5.52382 19.3614 5.02841 19.2903C4.29936 19.1857 3.37181 18.8842 3.05563 18.649C2.96414 18.581 2.96434 18.5768 3.06664 18.417C3.22835 18.1643 3.33333 17.7034 3.29562 17.4118C3.2534 17.0853 3.02355 16.6474 2.78516 16.4394C2.52488 16.2122 2.27426 16.0969 1.89363 16.0291C1.52245 15.9631 1.53828 16.0054 1.64917 15.3751C1.79001 14.5746 2.10236 13.7566 2.52959 13.0696C2.65383 12.8698 2.75832 12.7062 2.76182 12.7062C2.76526 12.7062 2.96643 12.933 3.20879 13.2102ZM21.7619 13.5736C22.0128 14.0706 22.2656 14.8297 22.362 15.3751C22.4736 16.0058 22.4899 15.963 22.113 16.0301C21.5126 16.1369 21.0977 16.4438 20.8465 16.9669C20.744 17.1805 20.7198 17.3015 20.7189 17.6055C20.7179 17.9296 20.7375 18.0186 20.8631 18.2613C20.9431 18.4156 21.015 18.5559 21.023 18.5729C21.0522 18.6351 20.5047 18.8954 20.0108 19.0542C19.732 19.1439 19.2719 19.2501 18.9882 19.2904C18.4875 19.3614 17.2958 19.3928 17.2958 19.3349C17.2958 19.3191 17.3718 19.1102 17.4646 18.8707C17.7296 18.1872 18.0093 17.2158 18.1921 16.3435L18.36 15.5426L18.6651 15.2861C19.2463 14.7974 20.3641 13.7119 20.8041 13.2087L21.2461 12.7032L21.4094 12.9509C21.4992 13.0871 21.6578 13.3673 21.7619 13.5736ZM8.05044 17.1708C8.70203 17.5621 9.78566 18.1322 10.3921 18.4028C10.6123 18.501 10.7925 18.5967 10.7925 18.6155C10.7925 18.6564 9.90995 18.8962 9.16668 19.0574C8.64831 19.1698 7.6354 19.3318 7.61273 19.306C7.57706 19.2654 7.14367 18.1051 7.03879 17.7696C6.903 17.335 6.66743 16.4213 6.66733 16.3287C6.66733 16.2969 6.84748 16.3947 7.06767 16.546C7.28786 16.6972 7.73013 16.9784 8.05044 17.1708ZM17.2716 16.677C17.1387 17.2578 16.8694 18.1206 16.6305 18.7307C16.5093 19.0401 16.4051 19.299 16.3989 19.306C16.3793 19.3283 15.4148 19.1788 14.9264 19.0778C14.3036 18.9491 13.2191 18.6566 13.2191 18.6174C13.2191 18.6003 13.5194 18.4455 13.8864 18.2734C14.2535 18.1013 14.8486 17.7989 15.2089 17.6014C15.8802 17.2335 17.2202 16.3963 17.275 16.3108C17.35 16.1935 17.3486 16.3399 17.2716 16.677ZM2.09071 16.9337C2.46892 17.154 2.58608 17.6762 2.33842 18.0378C2.04917 18.46 1.4053 18.51 1.05577 18.1374C0.892169 17.9629 0.843442 17.8388 0.843637 17.5968C0.844122 16.9762 1.53376 16.6094 2.09071 16.9337ZM22.5479 16.834C22.9229 16.9346 23.1682 17.24 23.1682 17.6062C23.1682 18.0507 22.8226 18.3869 22.3657 18.3869C21.8096 18.3869 21.4245 17.9043 21.5684 17.3878C21.6337 17.1539 21.8843 16.9013 22.1153 16.8368C22.3242 16.7784 22.3404 16.7783 22.5479 16.834ZM12.4455 19.2267C13.3477 19.5449 14.8841 19.923 15.7549 20.0413C15.8817 20.0585 15.9854 20.0853 15.9854 20.1009C15.9854 20.1669 15.6143 20.7746 15.3622 21.1217C15.021 21.5912 14.3551 22.2646 13.967 22.5325C13.1694 23.0832 12.3076 23.3008 11.493 23.1572C10.3381 22.9535 9.09398 21.9515 8.27845 20.5684C7.98002 20.0623 7.9808 20.0787 8.25287 20.0423C9.09922 19.9293 10.8394 19.4969 11.6196 19.2057C11.792 19.1414 11.9561 19.0873 11.9844 19.0856C12.0126 19.0837 12.2201 19.1473 12.4455 19.2267Z" fill="#7356C0"/>
</svg>
