<svg width="24" height="24" viewBox="0 0 24 24" fill="none" xmlns="http://www.w3.org/2000/svg">
<path fill-rule="evenodd" clip-rule="evenodd" d="M4.66973 0.0776601C2.58072 0.451193 0.909347 1.89606 0.273156 3.87855C-0.694808 6.89477 1.01317 10.1012 4.05019 10.9693C4.72234 11.1614 5.14964 11.1996 6.62377 11.1996H7.99547V10.7995V10.3995L6.63267 10.3984C4.81531 10.3972 4.32601 10.3184 3.47247 9.89024C2.89384 9.59992 2.67149 9.43579 2.16918 8.92802C1.54239 8.29443 1.18261 7.65829 0.935203 6.74629C0.788421 6.20502 0.775768 5.07587 0.910448 4.53C1.13445 3.62195 1.55039 2.88638 2.21669 2.22014C3.18365 1.25312 4.20558 0.831627 5.59494 0.826626C6.35981 0.823826 6.81211 0.906144 7.41799 1.1584C8.55124 1.6302 9.56297 2.64143 10.034 3.77313C10.2883 4.38427 10.3556 4.7773 10.3828 5.81093L10.4088 6.79865H10.8088H11.2088L11.1809 5.78593C11.1523 4.7503 11.103 4.41037 10.8912 3.79163C10.5278 2.73005 9.74111 1.67086 8.84566 1.03752C7.64884 0.191035 6.06799 -0.172345 4.66973 0.0776601ZM17.4976 0.0710085C16.9135 0.170131 16.4431 0.328266 15.8594 0.621831C14.2645 1.42391 13.1592 2.94005 12.8701 4.72204C12.8275 4.98495 12.7968 5.51252 12.7967 5.98597L12.7965 6.79865H13.1902H13.584L13.6099 5.81093C13.6311 5.00775 13.6563 4.7485 13.7452 4.42327C13.9967 3.50357 14.3492 2.89669 15.023 2.22329C15.7078 1.53893 16.3483 1.17525 17.3225 0.917646C17.7932 0.793219 18.9686 0.791118 19.4662 0.913896C20.3587 1.13404 21.1031 1.55099 21.755 2.19583C22.4242 2.85763 22.8219 3.54848 23.0606 4.46373C23.2184 5.06902 23.2168 6.15821 23.0573 6.74864C22.8076 7.6723 22.4446 8.30098 21.7729 8.97313C21.2431 9.50325 20.7733 9.81832 20.1417 10.0671C19.4955 10.3217 19.2468 10.3584 17.9852 10.3854L16.7974 10.4109V10.8053V11.1996L17.7851 11.1986C18.3284 11.1981 18.9304 11.1753 19.1229 11.1479C20.9529 10.8877 22.5033 9.80717 23.3378 8.21041C24.4267 6.12675 24.1448 3.69791 22.6066 1.91067C21.3894 0.496553 19.3398 -0.241511 17.4976 0.0710085ZM3.99458 2.79776V3.19785H3.71282C3.55783 3.19785 3.33844 3.22521 3.22521 3.25867C2.9505 3.33983 2.53621 3.75413 2.45504 4.02884C2.36972 4.3177 2.36972 7.67925 2.45504 7.96811C2.53621 8.24282 2.9505 8.65711 3.22521 8.73828C3.37299 8.78194 4.04419 8.7991 5.60434 8.7991C8.10954 8.7991 8.10019 8.8004 8.46052 8.39961C8.57945 8.26733 8.70348 8.06983 8.73618 7.96071C8.8192 7.68365 8.8192 4.3133 8.73618 4.03624C8.70348 3.92711 8.57945 3.72962 8.46052 3.59734C8.20682 3.31518 7.9208 3.19785 7.48646 3.19785H7.19529V2.79776V2.39767H6.7952H6.39511V2.79776V3.19785H5.59494H4.79476V2.79776V2.39767H4.39467H3.99458V2.79776ZM20.5516 2.86948L20.2326 3.19125L19.1026 3.20705C17.9797 3.22276 17.9713 3.22371 17.7476 3.35674C17.6239 3.4304 16.9444 4.0718 16.2376 4.78205C14.8388 6.18782 14.75 6.30824 14.7481 6.80135C14.7463 7.2494 14.8952 7.47715 15.7344 8.30964C16.5526 9.12137 16.748 9.24659 17.1975 9.24759C17.6998 9.24874 17.84 9.14397 19.2799 7.69185C19.9989 6.96679 20.629 6.29479 20.6802 6.19852C20.7615 6.04568 20.7753 5.8801 20.7891 4.89353L20.8049 3.76353L21.1267 3.44461C21.3037 3.26922 21.4485 3.10173 21.4485 3.07237C21.4485 3.00546 20.9876 2.54771 20.9202 2.54771C20.8928 2.54771 20.7269 2.69249 20.5516 2.86948ZM7.87269 4.12081C7.97351 4.22158 7.99547 4.2931 7.99547 4.5209V4.79821H5.59494H3.1944V4.5209C3.1944 4.2931 3.21636 4.22158 3.31718 4.12081L3.43991 3.99803H5.59494H7.74997L7.87269 4.12081ZM18.9727 4.44838L18.5244 4.89873L18.8109 5.18524L19.0974 5.47176L19.5478 5.02351L19.9981 4.57526V5.19715V5.81908L18.6866 7.13408C17.4648 8.35905 17.3629 8.44902 17.1982 8.44902C17.0369 8.44902 16.9561 8.38375 16.2842 7.71075C15.6148 7.04021 15.5471 6.95634 15.5471 6.7968C15.5471 6.63356 15.6406 6.52789 16.8621 5.30957L18.1771 3.99803H18.799H19.4209L18.9727 4.44838ZM7.99547 6.67587C7.99547 7.75326 7.99547 7.75341 7.87269 7.87614L7.74997 7.99892H5.59494H3.43991L3.31718 7.87614C3.1944 7.75341 3.1944 7.75326 3.1944 6.67587V5.59839H5.59494H7.99547V6.67587ZM4.39467 6.79865V7.19874H4.79476H5.19485V6.79865V6.39856H4.79476H4.39467V6.79865ZM5.99503 6.79865V7.19874H6.39511H6.7952V6.79865V6.39856H6.39511H5.99503V6.79865ZM11.7713 7.64949C11.0461 7.78147 10.4186 8.11754 9.86648 8.66967C9.2647 9.2715 8.91192 9.98706 8.8208 10.7908C8.7894 11.0678 8.73273 11.1948 8.3663 11.8098C8.13605 12.1962 7.93321 12.5893 7.91555 12.6834C7.84119 13.0798 8.17991 13.5307 8.59375 13.5863L8.79565 13.6133V13.8885C8.79565 14.3159 8.88667 14.5448 9.16903 14.8271C9.40338 15.0614 9.68089 15.2005 9.9142 15.2005C9.98526 15.2005 9.99591 15.2787 9.99591 15.8006V16.4008H10.396H10.7961V15.4006V14.4003H10.3187C9.87854 14.4003 9.83178 14.3908 9.7186 14.2776C9.60033 14.1593 9.59582 14.13 9.59582 13.4774V12.8H9.14748H8.69913L9.14748 12.0551C9.4794 11.5035 9.59582 11.2657 9.59582 11.139C9.59582 10.4917 9.9294 9.72135 10.4238 9.22699C11.7742 7.87654 14.0734 8.25593 14.8934 9.96445C15.3097 10.8319 15.3057 11.885 14.8829 12.7473C14.7646 12.9886 14.5738 13.2281 14.1594 13.6556L13.5967 14.2361V15.3184V16.4008H13.9968H14.3969V15.4865V14.5722L14.7014 14.2738C15.6635 13.3307 16.0413 12.4031 15.9837 11.126C15.9368 10.0863 15.6297 9.37297 14.9264 8.66967C14.2377 7.98096 13.4923 7.65264 12.5465 7.62133C12.2577 7.61178 11.9088 7.62449 11.7713 7.64949ZM4.69474 12.8769C3.31343 13.0952 1.98319 13.8947 1.14065 15.0129C-0.467108 17.1465 -0.366236 20.0528 1.38615 22.0889C2.59747 23.4963 4.62417 24.2344 6.44258 23.9303C8.3513 23.6111 9.84433 22.4853 10.6697 20.743C11.039 19.9634 11.1516 19.408 11.1825 18.2137L11.2088 17.201H10.8088H10.4088L10.3828 18.1887C10.3487 19.4833 10.228 19.9587 9.7003 20.8755C9.40188 21.394 8.61316 22.1947 8.1205 22.4793C7.214 23.003 6.59671 23.1747 5.61994 23.1749C4.23349 23.1751 3.18055 22.7433 2.21669 21.7795C1.55039 21.1132 1.13445 20.3777 0.910448 19.4696C0.775768 18.9237 0.788421 17.7946 0.935203 17.2533C1.18261 16.3413 1.54239 15.7052 2.16918 15.0716C2.67149 14.5638 2.89384 14.3997 3.47247 14.1094C4.27444 13.707 4.84167 13.6026 6.23258 13.6012L7.19529 13.6002V13.2001V12.8L6.15756 12.8048C5.55853 12.8076 4.94014 12.8381 4.69474 12.8769ZM16.3973 13.1949V13.5898L17.7851 13.6126C18.9888 13.6323 19.2237 13.6492 19.5553 13.7394C20.4744 13.9895 21.1512 14.3863 21.8235 15.0693C22.4509 15.7066 22.8107 16.3435 23.0575 17.2533C23.2173 17.8426 23.2183 18.9308 23.0597 19.5395C22.6776 21.0049 21.6641 22.2062 20.3112 22.7973C19.658 23.0826 19.2095 23.1706 18.3978 23.1727C17.6117 23.1747 17.2968 23.1174 16.6144 22.8481C15.463 22.3938 14.4407 21.3846 13.9587 20.2265C13.7044 19.6153 13.6371 19.2223 13.6099 18.1887L13.584 17.201H13.1902H12.7965L12.7968 17.9886C12.797 18.4219 12.8296 18.9901 12.8693 19.2514C13.1347 20.9993 14.222 22.524 15.7857 23.3412C17.4671 24.2199 19.3212 24.2196 21.0098 23.3403C23.4103 22.0904 24.5612 19.2483 23.7164 16.657C23.0703 14.6754 21.3118 13.1862 19.248 12.8727C18.9357 12.8253 18.3656 12.8005 17.5851 12.8003L16.3973 12.8V13.1949ZM16.2473 15.5776C15.2173 15.8652 14.5555 16.8936 14.7331 17.9305C14.846 18.5901 14.9128 18.676 16.7301 20.5017L18.3978 22.1771L20.0654 20.5017C21.8827 18.676 21.9495 18.5901 22.0625 17.9305C22.2988 16.5508 21.0484 15.3003 19.6687 15.5367C19.2796 15.6034 18.8997 15.7789 18.6125 16.0247L18.4051 16.2023L18.0829 15.9583C17.9056 15.8242 17.6508 15.676 17.5166 15.629C17.1688 15.5072 16.5839 15.4835 16.2473 15.5776ZM2.86953 15.6627C2.85748 15.6973 2.74555 16.1354 2.62093 16.6363C2.41248 17.4737 2.39423 17.5975 2.39423 18.1742V18.8013H2.59427H2.79432V19.6015V20.4017H2.59427H2.39423V20.8018V21.2018H5.59494H8.79565V20.8018V20.4017H8.5956H8.39556V19.6015V18.8013H8.5956H8.79565L8.79425 18.1637C8.79295 17.5705 8.77619 17.4598 8.55359 16.5758L8.31429 15.6256L5.60294 15.6127C3.45956 15.6025 2.88694 15.6129 2.86953 15.6627ZM17.2246 16.3842C17.4088 16.447 17.5844 16.5789 17.9336 16.9167L18.3978 17.3657L18.8619 16.9167C19.3509 16.4436 19.6144 16.3008 19.9981 16.3008C20.7138 16.3008 21.3548 16.9961 21.2873 17.6991C21.2443 18.1465 21.1157 18.3112 19.7242 19.7012L18.3978 21.0261L17.0714 19.7012C16.1805 18.8113 15.7098 18.304 15.638 18.1563C15.3937 17.6538 15.4907 17.1026 15.8946 16.6987C16.2676 16.3257 16.7312 16.2161 17.2246 16.3842ZM4.14026 16.9634C4.06135 17.2729 3.99628 17.6329 3.99568 17.7636L3.99458 18.0011H3.59449H3.1944V17.8248C3.1944 17.7278 3.26472 17.3677 3.35064 17.0246L3.50687 16.4008H3.89531H4.2838L4.14026 16.9634ZM6.23888 17.0246C6.3248 17.3677 6.39511 17.7278 6.39511 17.8248V18.0011H5.59494H4.79476V17.8248C4.79476 17.7278 4.86508 17.3677 4.95099 17.0246L5.10723 16.4008H5.59494H6.08264L6.23888 17.0246ZM7.83924 17.0246C7.92515 17.3677 7.99547 17.7278 7.99547 17.8248V18.0011H7.59538H7.19529L7.19419 17.7636C7.19359 17.6329 7.12853 17.2729 7.04961 16.9634L6.90608 16.4008H7.29456H7.683L7.83924 17.0246ZM5.19485 19.6015V20.4017H4.39467H3.59449V19.6015V18.8013H4.39467H5.19485V19.6015ZM7.59538 19.6015V20.4017H6.7952H5.99503V19.6015V18.8013H6.7952H7.59538V19.6015Z" fill="#7356C0"/>
</svg>
