<svg width="64" height="64" viewBox="0 0 64 64" fill="none" xmlns="http://www.w3.org/2000/svg">
<path opacity="0.4" d="M32.0007 58.6668C46.7282 58.6668 58.6673 46.7278 58.6673 32.0002C58.6673 17.2726 46.7282 5.3335 32.0007 5.3335C17.2731 5.3335 5.33398 17.2726 5.33398 32.0002C5.33398 46.7278 17.2731 58.6668 32.0007 58.6668Z" fill="#7356C0"/>
<path d="M41.8924 42.4802C41.5457 42.4802 41.1991 42.4002 40.8791 42.1869L32.6124 37.2535C30.5591 36.0269 29.0391 33.3335 29.0391 30.9602V20.0269C29.0391 18.9335 29.9457 18.0269 31.0391 18.0269C32.1324 18.0269 33.0391 18.9335 33.0391 20.0269V30.9602C33.0391 31.9202 33.8391 33.3335 34.6657 33.8135L42.9324 38.7469C43.8924 39.3069 44.1857 40.5335 43.6257 41.4935C43.2257 42.1335 42.5591 42.4802 41.8924 42.4802Z" fill="#7356C0"/>
</svg>
