<svg width="62" height="64" viewBox="0 0 62 64" fill="none" xmlns="http://www.w3.org/2000/svg">
<path fill-rule="evenodd" clip-rule="evenodd" d="M29.0474 0.189824C25.1968 0.964699 21.5693 4.1597 18.8684 9.15482L18.2813 10.2406L16.1331 10.2456C11.9291 10.2552 8.46114 11.1611 6.20289 12.8392C5.97901 13.0056 5.74076 13.1076 5.67351 13.0659C5.60614 13.0243 5.23664 12.9391 4.85226 12.8766C2.59664 12.5094 0.425388 14.1021 0.0558878 16.3948C-0.166862 17.7761 0.281138 19.1038 1.31226 20.1188C1.90501 20.7023 1.92239 20.7403 1.92289 21.4548C1.92464 24.0883 3.19801 27.8316 5.17801 31.0239L5.78514 32.0028L5.17801 32.9817C3.19239 36.1832 1.92464 39.9167 1.92289 42.5684C1.92239 43.3014 1.90701 43.3359 1.34714 43.8628C1.00501 44.1848 0.619013 44.7308 0.394638 45.2103C0.0448877 45.9578 0.0215128 46.0954 0.0727628 47.1033C0.116013 47.9537 0.198638 48.3277 0.451888 48.8211C1.09951 50.0824 2.21951 50.9016 3.60501 51.1271C4.24526 51.2312 5.36226 51.1319 5.66676 50.9438C5.72176 50.9098 6.14714 51.1318 6.61201 51.4372C8.18801 52.4723 10.5733 53.2876 13.0474 53.6367C13.6318 53.7191 15.0524 53.7936 16.2043 53.8021L18.2986 53.8176L18.9571 55.0039C21.3483 59.3114 24.2983 62.2011 27.492 63.3643C33.1135 65.4117 38.7309 62.3763 42.8424 55.0697L43.5434 53.8242L45.6391 53.8071C46.7918 53.7977 48.213 53.7223 48.7974 53.6396C51.2753 53.2891 53.649 52.4774 55.2261 51.4416C55.9697 50.9531 56.1029 50.9058 56.3999 51.0244C56.5841 51.0981 57.1289 51.1608 57.6104 51.1638C58.7816 51.1714 59.8038 50.7221 60.6494 49.8279C61.5125 48.9153 61.8381 48.0024 61.7686 46.6903C61.7051 45.4941 61.4205 44.8519 60.5498 43.9403L59.9528 43.3153L59.8801 42.1278C59.7074 39.2993 58.6481 36.2533 56.7612 33.1591L56.0563 32.0028L56.7612 30.8466C58.6459 27.7561 59.7033 24.7179 59.8826 21.8778L59.9577 20.6903L60.523 20.1278C61.3661 19.2888 61.8144 18.2396 61.8149 17.1034C61.8151 16.5889 61.73 15.9526 61.6198 15.6457C61.1881 14.4443 60.0965 13.3956 58.8599 12.9941C58.2629 12.8003 56.8724 12.7958 56.3906 12.9861C56.0805 13.1086 55.9525 13.0608 55.1041 12.5071C52.8091 11.0088 49.632 10.2456 45.6641 10.2393L43.5691 10.2359L42.8179 8.9007C39.1125 2.31432 34.1353 -0.834051 29.0474 0.189824ZM32.2431 2.2632C34.123 2.60645 36.001 3.71995 37.7393 5.52207C38.9319 6.75845 39.9754 8.15532 40.7208 9.5132C40.9691 9.96582 41.1724 10.3687 41.1724 10.4084C41.1724 10.4483 40.9333 10.5173 40.6411 10.5618C38.0935 10.9504 34.6574 11.8176 32.2036 12.6909L30.9224 13.1469L29.6411 12.6909C27.1841 11.8163 23.757 10.9519 21.195 10.5604C20.7624 10.4943 20.6705 10.4369 20.7324 10.2716C20.9276 9.74945 21.91 8.1652 22.6486 7.18107C25.4693 3.42282 28.9165 1.65582 32.2431 2.2632ZM17.2605 12.5437C16.2891 15.0751 15.2711 18.6897 14.8078 21.2528L14.5704 22.5653L13.7776 23.2492C12.3171 24.5091 9.41101 27.4269 8.26126 28.7881L7.12276 30.1359L6.69601 29.4756C5.61189 27.7982 4.61289 25.1607 4.24764 23.0121C3.96201 21.3316 3.92126 21.4443 4.87726 21.2682C5.33364 21.1841 5.91014 21.0104 6.15851 20.8824C7.38289 20.2511 8.32076 18.9222 8.48826 17.5816C8.58539 16.8043 8.31501 15.5754 7.89851 14.9017C7.63501 14.4754 7.63451 14.4644 7.87014 14.2831C8.64751 13.6844 11.0998 12.8448 12.8599 12.5747C14.4043 12.3377 17.3475 12.3169 17.2605 12.5437ZM49.2013 12.6221C49.9871 12.7564 51.1751 13.0612 51.8415 13.2993C53.0768 13.7408 54.2225 14.3293 54.1424 14.4811C53.4666 15.7607 53.3669 16.0927 53.3669 17.0653C53.3669 17.8799 53.4274 18.1956 53.6927 18.7678C54.3398 20.1626 55.4082 20.9808 56.9546 21.2657C57.9254 21.4446 57.8834 21.3304 57.5961 23.0121C57.2324 25.1412 56.2429 27.7479 55.1425 29.4756L54.722 30.1359L53.5835 28.7881C52.4505 27.4469 49.5721 24.5529 48.0743 23.2492L47.2886 22.5653L46.8681 20.4907C46.3681 18.0234 45.8435 16.1142 45.0965 14.0428C44.7945 13.2054 44.5474 12.4882 44.5474 12.4491C44.5474 12.2697 47.8608 12.3929 49.2013 12.6221ZM20.9321 12.6918C23.1849 13.0302 27.7991 14.1531 27.7964 14.3623C27.7958 14.4052 26.9661 14.8468 25.9526 15.3437C23.4811 16.5553 21.3668 17.7706 19.1244 19.2683C18.1011 19.9518 17.2364 20.4836 17.2028 20.4499C17.1228 20.3698 17.5953 18.4348 18.1346 16.6343C18.5213 15.3433 19.5565 12.5028 19.6403 12.5028C19.6589 12.5028 20.2401 12.5878 20.9321 12.6918ZM42.7291 13.7841C43.5284 15.8737 44.6724 19.8097 44.6724 20.4698C44.6724 20.5582 44.2926 20.3556 43.8286 20.0196C41.7291 18.4991 38.3958 16.5451 35.6411 15.2202C34.7646 14.7987 34.0474 14.4156 34.0474 14.3689C34.0474 14.1076 40.3721 12.6439 42.0495 12.5172C42.1793 12.5073 42.3938 12.9072 42.7291 13.7841ZM5.49089 15.3307C6.33501 15.8838 6.61951 17.2646 6.07201 18.1506C4.93139 19.9961 2.17439 19.2197 2.17289 17.0526C2.17164 15.3842 4.06939 14.3993 5.49089 15.3307ZM58.7878 15.3498C59.6156 15.9627 59.929 17.1439 59.4894 17.9942C58.8835 19.1658 57.383 19.5258 56.305 18.7583C55.1841 17.9602 55.2325 16.0674 56.3934 15.3041C57.0828 14.8507 58.1409 14.8708 58.7878 15.3498ZM32.1483 15.9514C35.8341 17.4733 40.659 20.2586 44.0623 22.8289L45.2645 23.7371L45.4098 24.9012C45.9441 29.1844 45.9441 34.8212 45.4098 39.1044L45.2645 40.2686L44.0623 41.1767C42.4899 42.3642 40.5995 43.6219 38.7104 44.7374C37.0761 45.7023 32.516 47.9647 31.4824 48.3233L30.8549 48.5411L29.6074 48.0093C25.6093 46.3049 21.1965 43.7552 17.7825 41.1767L16.5803 40.2686L16.439 39.1044C15.8906 34.5836 15.8903 29.4254 16.4381 24.9083L16.5785 23.7512L17.4066 23.1003C18.5823 22.1764 21.3598 20.3127 23.0474 19.3154C25.4696 17.8841 30.3354 15.5241 30.8983 15.5076C30.988 15.5049 31.5505 15.7047 32.1483 15.9514ZM24.9545 24.8341C24.665 25.1093 23.9654 26.6718 21.8761 31.7098C20.389 35.2954 19.1724 38.3439 19.1724 38.4841C19.1724 38.8514 19.673 39.3662 20.1119 39.4502C20.7708 39.5763 21.0721 39.1932 21.9395 37.1262L22.7258 35.2528H25.581H28.4361L28.7205 35.9091C28.877 36.2699 29.2466 37.1441 29.542 37.8516C29.9736 38.8852 30.1523 39.1756 30.4516 39.3304C31.1435 39.6882 31.9224 39.2237 31.9224 38.4533C31.9224 37.9719 26.6628 25.2036 26.3188 24.8496C26.2034 24.7309 25.9335 24.5988 25.7191 24.5559C25.4008 24.4922 25.2604 24.5433 24.9545 24.8341ZM33.7109 24.6291C33.2714 24.8061 33.0073 25.3124 33.0991 25.8022C33.2228 26.4609 33.4364 26.5583 34.9096 26.6278L36.2349 26.6903V32.0028V37.3153L34.895 37.3778C33.3996 37.4476 33.2114 37.5409 33.0929 38.2708C33.036 38.6217 33.0845 38.7821 33.3361 39.0747L33.6504 39.4403L37.2079 39.4769L40.7654 39.5137L41.1564 39.1846C41.66 38.7608 41.6949 38.1389 41.2405 37.6847C40.9555 37.3996 40.8446 37.3778 39.678 37.3778H38.4224V32.0028V26.6278H39.678C40.8446 26.6278 40.9555 26.6061 41.2405 26.3209C41.6923 25.8692 41.6598 25.2447 41.1628 24.8264L40.7783 24.5028L37.3815 24.5107C35.5134 24.5151 33.8616 24.5683 33.7109 24.6291ZM14.1175 26.3466C14.0753 26.6044 13.991 27.9826 13.9304 29.4091C13.8274 31.8279 13.9344 36.5416 14.1175 37.6591C14.1603 37.9197 14.1428 38.1278 14.0781 38.1278C13.7208 38.1278 8.48489 32.3942 8.48489 32.0028C8.48489 31.6114 13.7208 25.8778 14.0781 25.8778C14.1428 25.8778 14.1603 26.0859 14.1175 26.3466ZM49.6889 27.7216C50.6818 28.7357 51.9343 30.1137 52.472 30.7841L53.4496 32.0028L52.4725 33.2216C51.3983 34.5616 47.8588 38.2308 47.7476 38.1198C47.7093 38.0814 47.7333 37.4347 47.8008 36.6827C47.927 35.2787 47.9765 28.9007 47.8678 28.0439C47.7166 26.8521 47.6746 25.8778 47.7744 25.8778C47.8344 25.8778 48.6959 26.7074 49.6889 27.7216ZM26.5925 30.7864C27.1011 31.9991 27.4865 33.0219 27.449 33.0596C27.3585 33.1501 23.6724 33.1481 23.6724 33.0576C23.6724 32.9818 25.4108 28.7576 25.5116 28.5882C25.545 28.5321 25.5939 28.5077 25.6201 28.5339C25.6464 28.5601 26.084 29.5738 26.5925 30.7864ZM8.26464 35.2216C9.39701 36.5619 12.2804 39.4601 13.7714 40.7564L14.558 41.4403L14.9846 43.5653C15.4459 45.8622 16.1704 48.4661 16.8625 50.3137C17.1016 50.9523 17.2974 51.5093 17.2974 51.5513C17.2974 51.7059 14.2273 51.6219 12.9513 51.4324C11.0735 51.1536 8.68451 50.3497 7.87014 49.7226C7.63451 49.5412 7.63501 49.5302 7.89851 49.1039C8.31501 48.4302 8.58539 47.2013 8.48826 46.4241C8.37951 45.5533 7.78751 44.3859 7.17351 43.8312C6.50314 43.2256 5.85764 42.9182 4.87726 42.7374C3.92126 42.5613 3.96201 42.6741 4.24764 40.9936C4.61039 38.8593 5.41489 36.6784 6.51526 34.8466C6.83526 34.3138 7.10439 33.8778 7.11339 33.8778C7.12226 33.8778 7.64039 34.4824 8.26464 35.2216ZM56.0505 36.1903C56.6965 37.5156 57.3476 39.5394 57.5961 40.9936C57.8834 42.6752 57.9254 42.5611 56.9546 42.7399C55.4082 43.0248 54.3398 43.8431 53.6927 45.2378C53.4286 45.8072 53.3664 46.1298 53.364 46.9403C53.3614 47.8046 53.4119 48.0419 53.7355 48.6888C53.9414 49.1004 54.1268 49.4744 54.1473 49.5198C54.2225 49.6856 52.8124 50.3797 51.5401 50.8031C50.8223 51.0421 49.637 51.3253 48.9064 51.4327C47.6169 51.6221 44.5474 51.7057 44.5474 51.5513C44.5474 51.5093 44.7431 50.9523 44.9823 50.3137C45.6648 48.4914 46.385 45.9014 46.856 43.5756L47.2884 41.4403L48.0741 40.7564C49.5713 39.4534 52.4503 36.5591 53.5835 35.2176L54.722 33.8697L55.1425 34.5301C55.3739 34.8932 55.7824 35.6403 56.0505 36.1903ZM20.7349 45.7813C22.4131 46.8247 25.2041 48.3447 26.7661 49.0661C27.3333 49.3279 27.7974 49.5832 27.7974 49.6333C27.7974 49.7423 25.5243 50.3818 23.6099 50.8114C22.2748 51.1111 19.6659 51.5432 19.6075 51.4744C19.5156 51.3662 18.3994 48.2726 18.1293 47.3778C17.7795 46.2191 17.1728 43.7829 17.1725 43.5362C17.1725 43.4514 17.6365 43.7121 18.2036 44.1154C18.7708 44.5187 19.9099 45.2683 20.7349 45.7813ZM44.485 44.4648C44.1429 46.0134 43.4491 48.3137 42.8338 49.9403C42.5216 50.7653 42.2533 51.4557 42.2373 51.4744C42.1869 51.5337 39.7028 51.1352 38.4446 50.8659C36.8408 50.5227 34.0474 49.7428 34.0474 49.6383C34.0474 49.5927 34.8209 49.1799 35.7661 48.7212C36.7115 48.2623 38.2443 47.4561 39.1724 46.9294C40.9013 45.9484 44.3528 43.7164 44.4938 43.4884C44.687 43.1757 44.6835 43.5659 44.485 44.4648ZM5.38489 45.1493C6.35901 45.7366 6.66076 47.1289 6.02289 48.0929C5.27789 49.2187 3.61951 49.3519 2.71926 48.3584C2.29789 47.8934 2.17239 47.5623 2.17289 46.9173C2.17414 45.2624 3.95039 44.2847 5.38489 45.1493ZM58.0747 44.8833C59.0406 45.1516 59.6724 45.9658 59.6724 46.9423C59.6724 48.1273 58.7822 49.0237 57.6055 49.0237C56.1731 49.0237 55.1814 47.7371 55.5521 46.3601C55.7201 45.7362 56.3656 45.0629 56.9606 44.8908C57.4986 44.7352 57.5405 44.7349 58.0747 44.8833ZM32.0548 51.2629C34.3786 52.1112 38.3358 53.1193 40.5786 53.4347C40.9053 53.4806 41.1724 53.5522 41.1724 53.5938C41.1724 53.7697 40.2166 55.3899 39.5671 56.3153C38.6884 57.5672 36.9734 59.3626 35.9738 60.0771C33.9194 61.5453 31.6996 62.1254 29.6016 61.7424C26.627 61.1993 23.4226 58.5279 21.3221 54.8402C20.5535 53.4907 20.5555 53.5346 21.2563 53.4376C23.4361 53.1362 27.9183 51.9832 29.9278 51.2069C30.3718 51.0356 30.7944 50.8913 30.8673 50.8866C30.94 50.8817 31.4744 51.0511 32.0548 51.2629Z" fill="#7356C0"/>
</svg>
