<svg width="26" height="24" viewBox="0 0 26 24" fill="none" xmlns="http://www.w3.org/2000/svg">
<mask id="mask0_1469_4771" style="mask-type:alpha" maskUnits="userSpaceOnUse" x="0" y="13" width="25" height="11">
<path d="M24.4765 24H0V13.9224H24.4765V24Z" fill="white"/>
</mask>
<g mask="url(#mask0_1469_4771)">
<path opacity="0.4" fill-rule="evenodd" clip-rule="evenodd" d="M16.1286 16.4078H1.24243C0.555987 16.4078 0 15.8518 0 15.1654C0 14.479 0.555987 13.923 1.24243 13.923H16.1286C16.815 13.923 17.371 14.479 17.371 15.1654C17.371 15.8518 16.815 16.4078 16.1286 16.4078Z" fill="#7356C0"/>
<path fill-rule="evenodd" clip-rule="evenodd" d="M12.9362 24.0186C11.7236 24.0186 10.5259 23.8385 9.37663 23.4822C9.06192 23.3847 8.79884 23.1661 8.64524 22.8747C8.49164 22.5832 8.4601 22.2426 8.55756 21.9279C8.7607 21.2694 9.45832 20.9029 10.1121 21.1079C11.0228 21.3906 11.9727 21.5334 12.9362 21.5334C17.1521 21.5334 20.8126 18.828 22.0454 14.7995C22.0931 14.6435 22.1711 14.4984 22.2749 14.3726C22.3787 14.2468 22.5063 14.1427 22.6504 14.0662C22.7945 13.9898 22.9523 13.9425 23.1147 13.9271C23.2771 13.9116 23.4409 13.9284 23.5969 13.9764C24.2529 14.1752 24.6219 14.8709 24.4212 15.5263C22.8669 20.605 18.2513 24.0186 12.9362 24.0186Z" fill="#7356C0"/>
</g>
<path opacity="0.4" fill-rule="evenodd" clip-rule="evenodd" d="M24.6319 10.0957H9.74634C9.05989 10.0957 8.50391 9.53971 8.50391 8.85327C8.50391 8.16683 9.05989 7.61084 9.74634 7.61084H24.6319C25.3183 7.61084 25.8743 8.16683 25.8743 8.85327C25.8743 9.53971 25.3183 10.0957 24.6319 10.0957Z" fill="#7356C0"/>
<path fill-rule="evenodd" clip-rule="evenodd" d="M2.64104 10.096C2.44672 10.096 2.2551 10.0505 2.08158 9.96298C1.90807 9.8755 1.75748 9.74855 1.64194 9.59231C1.52639 9.43608 1.44911 9.25492 1.41629 9.06339C1.38347 8.87186 1.39603 8.67531 1.45296 8.48952C3.00755 3.41109 7.62318 0 12.9377 0C14.1512 0 15.3489 0.180152 16.4972 0.536729C16.6531 0.585016 16.7979 0.663531 16.9234 0.767791C17.0489 0.872052 17.1527 1.00002 17.2288 1.14437C17.3048 1.28873 17.3517 1.44666 17.3667 1.60914C17.3817 1.77162 17.3646 1.93546 17.3163 2.09132C17.2682 2.24727 17.1897 2.39219 17.0855 2.51778C16.9813 2.64337 16.8533 2.74717 16.7089 2.82322C16.5645 2.89928 16.4065 2.9461 16.2439 2.961C16.0814 2.97591 15.9175 2.9586 15.7617 2.91008C14.8516 2.63053 13.9012 2.48765 12.9377 2.48765C8.72273 2.48765 5.0616 5.19304 3.8288 9.22162C3.75088 9.47585 3.59351 9.69841 3.37979 9.85662C3.16607 10.0148 2.90726 10.1004 2.64135 10.1006" fill="#7356C0"/>
<path opacity="0.4" fill-rule="evenodd" clip-rule="evenodd" d="M21.5544 4.11865C21.5544 4.44816 21.4235 4.76418 21.1905 4.99718C20.9575 5.23018 20.6414 5.36108 20.3119 5.36108C19.9824 5.36108 19.6664 5.23018 19.4334 4.99718C19.2004 4.76418 19.0695 4.44816 19.0695 4.11865C19.0695 3.78914 19.2004 3.47312 19.4334 3.24012C19.6664 3.00712 19.9824 2.87622 20.3119 2.87622C20.6414 2.87622 20.9575 3.00712 21.1905 3.24012C21.4235 3.47312 21.5544 3.78914 21.5544 4.11865ZM6.80517 19.9018C6.80517 20.2314 6.67427 20.5474 6.44127 20.7804C6.20827 21.0134 5.89225 21.1443 5.56274 21.1443C5.23323 21.1443 4.91721 21.0134 4.68421 20.7804C4.45121 20.5474 4.32031 20.2314 4.32031 19.9018C4.32031 19.5723 4.45121 19.2563 4.68421 19.0233C4.91721 18.7903 5.23323 18.6594 5.56274 18.6594C5.89225 18.6594 6.20827 18.7903 6.44127 19.0233C6.67427 19.2563 6.80517 19.5723 6.80517 19.9018Z" fill="#7356C0"/>
</svg>
