<svg width="65" height="64" viewBox="0 0 65 64" fill="none" xmlns="http://www.w3.org/2000/svg">
<path d="M9.11393 2.66699H30.7939C32.6073 2.66699 34.0741 4.16033 34.0741 6.00033V9.65365C34.0741 10.987 33.2472 12.6403 32.4206 13.467L25.354 19.787C24.3673 20.6137 23.7007 22.2937 23.7007 23.6003V30.747C23.7007 31.7337 23.034 33.067 22.2341 33.5737L19.9406 35.067C17.8073 36.4003 14.8473 34.907 14.8473 32.2403V23.4137C14.8473 22.2403 14.1807 20.747 13.5407 19.9203L7.30062 13.2537C6.47395 12.427 5.83398 10.9337 5.83398 9.92033V6.10702C5.83398 4.16035 7.3006 2.66699 9.11393 2.66699Z" fill="#7356C0"/>
<path opacity="0.4" d="M45.834 5.33301H39.4339C38.6873 5.33301 38.1006 5.91967 38.1006 6.66634C38.1006 7.94634 38.1006 9.653 38.1006 9.653C38.1006 12.293 36.6873 14.8796 35.3006 16.293L28.0474 22.773C27.9674 22.9597 27.8339 23.2264 27.7539 23.4397V30.773C27.7539 33.1997 26.314 35.8397 24.3407 37.0397L22.154 38.453C20.9273 39.2264 19.5674 39.5997 18.2074 39.5997C16.9807 39.5997 15.754 39.2797 14.634 38.6663C12.9006 37.7063 11.7007 36.133 11.1673 34.3197V27.2263C11.1673 26.8797 11.0339 26.533 10.7673 26.293L8.10059 23.6263C7.24725 22.7996 5.83398 23.3863 5.83398 24.5597V45.333C5.83398 52.693 11.8073 58.6663 19.1673 58.6663H45.834C53.194 58.6663 59.1673 52.693 59.1673 45.333V18.6663C59.1673 11.3063 53.194 5.33301 45.834 5.33301Z" fill="#7356C0"/>
<path d="M48.4993 36.667H35.166C34.0727 36.667 33.166 35.7603 33.166 34.667C33.166 33.5737 34.0727 32.667 35.166 32.667H48.4993C49.5927 32.667 50.4993 33.5737 50.4993 34.667C50.4993 35.7603 49.5927 36.667 48.4993 36.667Z" fill="#7356C0"/>
<path d="M48.5007 47.333H29.834C28.7407 47.333 27.834 46.4263 27.834 45.333C27.834 44.2397 28.7407 43.333 29.834 43.333H48.5007C49.594 43.333 50.5007 44.2397 50.5007 45.333C50.5007 46.4263 49.594 47.333 48.5007 47.333Z" fill="#7356C0"/>
</svg>
