<svg width="65" height="64" viewBox="0 0 65 64" fill="none" xmlns="http://www.w3.org/2000/svg">
<path opacity="0.4" d="M55.166 27.173H47.4593C41.1393 27.173 35.9927 22.0263 35.9927 15.7063V7.99967C35.9927 6.53301 34.7927 5.33301 33.326 5.33301H22.0193C13.806 5.33301 7.16602 10.6663 7.16602 20.1863V43.813C7.16602 53.333 13.806 58.6663 22.0193 58.6663H42.9793C51.1927 58.6663 57.8327 53.333 57.8327 43.813V29.8397C57.8327 28.373 56.6327 27.173 55.166 27.173Z" fill="#7356C0"/>
<path d="M42.6332 5.89364C41.5398 4.80031 39.6465 5.54697 39.6465 7.06697V16.3736C39.6465 20.267 42.9532 23.4936 46.9798 23.4936C49.5132 23.5203 53.0332 23.5203 56.0465 23.5203C57.5665 23.5203 58.3665 21.7336 57.2998 20.667C53.4598 16.8003 46.5798 9.84031 42.6332 5.89364Z" fill="#7356C0"/>
<path d="M36.5 36.667H20.5C19.4067 36.667 18.5 35.7603 18.5 34.667C18.5 33.5737 19.4067 32.667 20.5 32.667H36.5C37.5933 32.667 38.5 33.5737 38.5 34.667C38.5 35.7603 37.5933 36.667 36.5 36.667Z" fill="#7356C0"/>
<path d="M31.1667 47.333H20.5C19.4067 47.333 18.5 46.4263 18.5 45.333C18.5 44.2397 19.4067 43.333 20.5 43.333H31.1667C32.26 43.333 33.1667 44.2397 33.1667 45.333C33.1667 46.4263 32.26 47.333 31.1667 47.333Z" fill="#7356C0"/>
</svg>
