<svg width="65" height="64" viewBox="0 0 65 64" fill="none" xmlns="http://www.w3.org/2000/svg">
<path opacity="0.4" d="M32.4993 53.3337C44.2814 53.3337 53.8327 43.7824 53.8327 32.0003C53.8327 20.2182 44.2814 10.667 32.4993 10.667C20.7173 10.667 11.166 20.2182 11.166 32.0003C11.166 43.7824 20.7173 53.3337 32.4993 53.3337Z" fill="#7356C0"/>
<path d="M32.4997 40.3197C37.0947 40.3197 40.8197 36.5947 40.8197 31.9997C40.8197 27.4047 37.0947 23.6797 32.4997 23.6797C27.9047 23.6797 24.1797 27.4047 24.1797 31.9997C24.1797 36.5947 27.9047 40.3197 32.4997 40.3197Z" fill="#7356C0"/>
<path d="M34.5 5.33301V10.773H34.4733C33.8333 10.693 33.1667 10.6663 32.5 10.6663C31.8333 10.6663 31.1667 10.693 30.5267 10.773H30.5V5.33301C30.5 4.23967 31.4067 3.33301 32.5 3.33301C33.5933 3.33301 34.5 4.23967 34.5 5.33301Z" fill="#7356C0"/>
<path d="M11.1673 32C11.1673 32.6667 11.194 33.36 11.274 34H5.83398C4.74065 34 3.83398 33.0933 3.83398 32C3.83398 30.9067 4.74065 30 5.83398 30H11.274C11.194 30.64 11.1673 31.3333 11.1673 32Z" fill="#7356C0"/>
<path d="M34.5 53.2266V58.6666C34.5 59.7599 33.5933 60.6666 32.5 60.6666C31.4067 60.6666 30.5 59.7599 30.5 58.6666V53.2266H30.5267C31.1667 53.3066 31.8333 53.3332 32.5 53.3332C33.1667 53.3332 33.8333 53.3066 34.4733 53.2266H34.5Z" fill="#7356C0"/>
<path d="M61.1666 32C61.1666 33.0933 60.2599 34 59.1666 34H53.7266C53.8066 33.36 53.8332 32.6667 53.8332 32C53.8332 31.3333 53.8066 30.64 53.7266 30H59.1666C60.2599 30 61.1666 30.9067 61.1666 32Z" fill="#7356C0"/>
</svg>
