<svg width="64" height="64" viewBox="0 0 64 64" fill="none" xmlns="http://www.w3.org/2000/svg">
<path opacity="0.4" d="M31.9993 53.3332C43.7814 53.3332 53.3327 43.7819 53.3327 31.9998C53.3327 20.2178 43.7814 10.6665 31.9993 10.6665C20.2173 10.6665 10.666 20.2178 10.666 31.9998C10.666 43.7819 20.2173 53.3332 31.9993 53.3332Z" fill="#7356C0"/>
<path d="M31.9997 40.3202C36.5947 40.3202 40.3197 36.5952 40.3197 32.0002C40.3197 27.4052 36.5947 23.6802 31.9997 23.6802C27.4047 23.6802 23.6797 27.4052 23.6797 32.0002C23.6797 36.5952 27.4047 40.3202 31.9997 40.3202Z" fill="#7356C0"/>
<path d="M34 5.3335V10.7735H33.9733C33.3333 10.6935 32.6667 10.6668 32 10.6668C31.3333 10.6668 30.6667 10.6935 30.0267 10.7735H30V5.3335C30 4.24016 30.9067 3.3335 32 3.3335C33.0933 3.3335 34 4.24016 34 5.3335Z" fill="#7356C0"/>
<path d="M10.6673 32C10.6673 32.6667 10.694 33.36 10.774 34H5.33398C4.24065 34 3.33398 33.0933 3.33398 32C3.33398 30.9067 4.24065 30 5.33398 30H10.774C10.694 30.64 10.6673 31.3333 10.6673 32Z" fill="#7356C0"/>
<path d="M34 53.2266V58.6666C34 59.7599 33.0933 60.6666 32 60.6666C30.9067 60.6666 30 59.7599 30 58.6666V53.2266H30.0267C30.6667 53.3066 31.3333 53.3332 32 53.3332C32.6667 53.3332 33.3333 53.3066 33.9733 53.2266H34Z" fill="#7356C0"/>
<path d="M60.6666 32C60.6666 33.0933 59.7599 34 58.6666 34H53.2266C53.3066 33.36 53.3332 32.6667 53.3332 32C53.3332 31.3333 53.3066 30.64 53.2266 30H58.6666C59.7599 30 60.6666 30.9067 60.6666 32Z" fill="#7356C0"/>
</svg>
