<svg width="64" height="64" viewBox="0 0 64 64" fill="none" xmlns="http://www.w3.org/2000/svg">
<path opacity="0.4" d="M54.9869 22.5332C52.1869 10.2132 41.4403 4.6665 32.0003 4.6665C32.0003 4.6665 32.0003 4.6665 31.9736 4.6665C22.5603 4.6665 11.7869 10.1865 8.98692 22.5065C5.86692 36.2665 14.2936 47.9198 21.9203 55.2532C24.7469 57.9732 28.3736 59.3332 32.0003 59.3332C35.6269 59.3332 39.2536 57.9732 42.0536 55.2532C49.6803 47.9198 58.1069 36.2932 54.9869 22.5332Z" fill="#7356C0"/>
<path d="M31.9996 35.8933C36.6388 35.8933 40.3996 32.1325 40.3996 27.4933C40.3996 22.8541 36.6388 19.0933 31.9996 19.0933C27.3604 19.0933 23.5996 22.8541 23.5996 27.4933C23.5996 32.1325 27.3604 35.8933 31.9996 35.8933Z" fill="#7356C0"/>
</svg>
