<svg width="65" height="64" viewBox="0 0 65 64" fill="none" xmlns="http://www.w3.org/2000/svg">
<path opacity="0.4" d="M32.5007 5.33301C25.514 5.33301 19.834 11.013 19.834 17.9997C19.834 24.853 25.194 30.3997 32.1807 30.6397C32.394 30.613 32.6073 30.613 32.7673 30.6397C32.8207 30.6397 32.8473 30.6397 32.9007 30.6397C32.9273 30.6397 32.9273 30.6397 32.954 30.6397C39.7807 30.3997 45.1407 24.853 45.1673 17.9997C45.1673 11.013 39.4873 5.33301 32.5007 5.33301Z" fill="#7356C0"/>
<path d="M46.0466 37.7337C38.6066 32.7737 26.4732 32.7737 18.9799 37.7337C15.5932 40.0003 13.7266 43.067 13.7266 46.347C13.7266 49.627 15.5932 52.667 18.9532 54.907C22.6866 57.4137 27.5932 58.667 32.4999 58.667C37.4066 58.667 42.3132 57.4137 46.0466 54.907C49.4066 52.6403 51.2732 49.6003 51.2732 46.2937C51.2466 43.0137 49.4066 39.9737 46.0466 37.7337Z" fill="#7356C0"/>
</svg>
