<svg width="64" height="64" viewBox="0 0 64 64" fill="none" xmlns="http://www.w3.org/2000/svg">
<path opacity="0.4" d="M48.9333 52.48C47.4666 56.24 43.8933 58.6667 39.8666 58.6667H24.1333C20.0799 58.6667 16.5333 56.24 15.0666 52.48C13.5999 48.6933 14.6133 44.5067 17.5999 41.7867L28.3999 32H35.6266L46.3999 41.7867C49.3866 44.5067 50.3733 48.6933 48.9333 52.48Z" fill="#7356C0"/>
<path d="M36.854 48.3732H27.1473C26.134 48.3732 25.334 47.5466 25.334 46.5599C25.334 45.5466 26.1607 44.7466 27.1473 44.7466H36.854C37.8673 44.7466 38.6673 45.5732 38.6673 46.5599C38.6673 47.5466 37.8407 48.3732 36.854 48.3732Z" fill="#7356C0"/>
<path d="M48.9325 11.5202C47.4658 7.76016 43.8925 5.3335 39.8658 5.3335H24.1325C20.1058 5.3335 16.5325 7.76016 15.0658 11.5202C13.6258 15.3068 14.6125 19.4935 17.6258 22.2135L28.3991 32.0002H35.6258L46.3991 22.2135C49.3858 19.4935 50.3725 15.3068 48.9325 11.5202ZM36.8525 19.2802H27.1458C26.1325 19.2802 25.3325 18.4535 25.3325 17.4668C25.3325 16.4802 26.1591 15.6535 27.1458 15.6535H36.8525C37.8658 15.6535 38.6658 16.4802 38.6658 17.4668C38.6658 18.4535 37.8391 19.2802 36.8525 19.2802Z" fill="#7356C0"/>
</svg>
