<svg width="22" height="22" viewBox="0 0 22 22" fill="none" xmlns="http://www.w3.org/2000/svg">
<path d="M12.7309 2.50989L14.4909 6.02989C14.7309 6.51989 15.3709 6.98989 15.9109 7.07989L19.1009 7.60989C21.1409 7.94989 21.6209 9.42989 20.1509 10.8899L17.6709 13.3699C17.2509 13.7899 17.0209 14.5999 17.1509 15.1799L17.8609 18.2499C18.4209 20.6799 17.1309 21.6199 14.9809 20.3499L11.9909 18.5799C11.4509 18.2599 10.5609 18.2599 10.0109 18.5799L7.02089 20.3499C4.88089 21.6199 3.58089 20.6699 4.14089 18.2499L4.85089 15.1799C4.98089 14.5999 4.75089 13.7899 4.33089 13.3699L1.85089 10.8899C0.390886 9.42989 0.860886 7.94989 2.90089 7.60989L6.09089 7.07989C6.62089 6.98989 7.26089 6.51989 7.50089 6.02989L9.26089 2.50989C10.2209 0.599893 11.7809 0.599893 12.7309 2.50989Z" fill="#FFDE59" stroke="#FFDE59" stroke-width="1.5" stroke-linecap="round" stroke-linejoin="round"/>
</svg>
